<svg width="44" height="44" viewBox="0 0 44 44" fill="none" xmlns="http://www.w3.org/2000/svg">
<path d="M0 22C0 9.84974 9.84979 0 22.0001 0C34.1503 0 44.0001 9.84974 44.0001 22C44.0001 34.1503 34.1503 44 22.0001 44C9.84979 44 0 34.1503 0 22Z" fill="#570F9E"/>
<mask id="mask0_3202_38044" style="mask-type:alpha" maskUnits="userSpaceOnUse" x="8" y="8" width="28" height="28">
<path d="M12.1289 14.333H31.8725C32.6082 14.333 33.1674 14.899 33.1674 15.5523V28.447C33.1674 29.1004 32.6082 29.6663 31.8725 29.6663H12.1289C11.3932 29.6663 10.834 29.1004 10.834 28.447V15.5523C10.834 14.899 11.3932 14.333 12.1289 14.333Z" stroke="#000001" stroke-linecap="round" stroke-linejoin="round"/>
<path d="M10.334 20.833H33.6674" stroke="#000001" stroke-linejoin="round"/>
<path d="M10.334 17.333H33.6674" stroke="#000001" stroke-linejoin="round"/>
<path d="M26.668 26.666H30.168" stroke="#000001" stroke-linecap="round" stroke-linejoin="round"/>
</mask>
<g mask="url(#mask0_3202_38044)">
<rect x="8" y="8" width="28" height="28" fill="white"/>
</g>
</svg>
