<svg width="44" height="44" viewBox="0 0 44 44" fill="none" xmlns="http://www.w3.org/2000/svg">
<path d="M0 22C0 9.84974 9.84979 0 22.0001 0C34.1503 0 44.0001 9.84974 44.0001 22C44.0001 34.1503 34.1503 44 22.0001 44C9.84979 44 0 34.1503 0 22Z" fill="#570F9E"/>
<mask id="mask0_3202_31311" style="mask-type:alpha" maskUnits="userSpaceOnUse" x="8" y="8" width="28" height="28">
<path d="M18.5007 18.5V15C18.5007 13.067 20.0677 11.5 22.0007 11.5C23.9337 11.5 25.5007 13.067 25.5007 15V18.5M15.0007 16.1667H29.0007L30.1674 31.3333H13.834L15.0007 16.1667Z" stroke="black"/>
</mask>
<g mask="url(#mask0_3202_31311)">
<rect x="8" y="8" width="28" height="28" fill="white"/>
</g>
</svg>
