<svg width="45" height="44" viewBox="0 0 45 44" fill="none" xmlns="http://www.w3.org/2000/svg">
<path d="M0.666016 22C0.666016 9.84974 10.5158 0 22.6661 0C34.8163 0 44.6661 9.84974 44.6661 22C44.6661 34.1503 34.8163 44 22.6661 44C10.5158 44 0.666016 34.1503 0.666016 22Z" fill="#570F9E"/>
<mask id="mask0_3202_41981" style="mask-type:alpha" maskUnits="userSpaceOnUse" x="8" y="8" width="29" height="28">
<path d="M28.8876 11.5V11.5C29.924 11.5 30.4422 11.5 30.844 11.6874C31.2702 11.8861 31.6127 12.2286 31.8114 12.6548C31.9988 13.0566 31.9988 13.5748 31.9988 14.6111L31.9988 18.6667C31.9988 19.1381 31.9988 19.3738 31.8523 19.5202C31.7059 19.6667 31.4702 19.6667 30.9988 19.6667L26.8136 19.6667M28.8876 11.5V11.5C27.7422 11.5 26.8136 12.4286 26.8136 13.5741L26.8136 19.6667M28.8876 11.5L17.332 11.5C15.4464 11.5 14.5036 11.5 13.9178 12.0858C13.332 12.6716 13.332 13.6144 13.332 15.5L13.332 32.5L17.4802 31.3333L20.5913 32.5L23.7024 31.3333L26.8136 32.5L26.8136 19.6667" stroke="#222222"/>
<path d="M16.4434 17.333L23.7026 17.333" stroke="#222222" stroke-linecap="round"/>
<path d="M19.5547 22H16.4436" stroke="#222222" stroke-linecap="round"/>
<path d="M16.4434 26.667L21.6286 26.667" stroke="#222222" stroke-linecap="round"/>
</mask>
<g mask="url(#mask0_3202_41981)">
<rect x="8.66602" y="8" width="28" height="28" fill="white"/>
</g>
</svg>
