<!--<svg width="28" height="28" viewBox="0 0 28 28" fill="none" xmlns="http://www.w3.org/2000/svg">-->
<!--<mask id="mask0_3105_31013" style="mask-type:alpha" maskUnits="userSpaceOnUse" x="0" y="0" width="28" height="28">-->
<!--<path fill-rule="evenodd" clip-rule="evenodd" d="M10.9999 7C10.9999 5.34315 12.343 4 13.9999 4C15.6567 4 16.9999 5.34315 16.9999 7V7.66667H10.9999V7ZM17.9999 7V7.66667H20.9999H21.4629L21.4984 8.12832L22.6651 23.295L22.7065 23.8333H22.1666H10.7083C10.9422 23.5276 11.1393 23.192 11.2926 22.8333H21.6266L20.5369 8.66667H17.9999V10.5H16.9999V8.66667H10.9999V10.5H9.99987V8.66667H7.46287L6.873 16.335C6.52423 16.3443 6.18501 16.3919 5.85938 16.4737L6.50133 8.12832L6.53684 7.66667H6.99986H9.99987V7C9.99987 4.79086 11.7907 3 13.9999 3C16.209 3 17.9999 4.79086 17.9999 7Z" fill="black"/>-->
<!--<path fill-rule="evenodd" clip-rule="evenodd" d="M7.00067 25.6663C9.57801 25.6663 11.6674 23.577 11.6674 20.9997C11.6674 18.4223 9.57801 16.333 7.00067 16.333C4.42333 16.333 2.33398 18.4223 2.33398 20.9997C2.33398 23.577 4.42333 25.6663 7.00067 25.6663ZM9.42241 18.5719L6.12118 22.3749L4.31291 20.639L3.62037 21.3604L5.80788 23.4604L6.18712 23.8244L6.53173 23.4275L10.1776 19.2275L9.42241 18.5719Z" fill="black"/>-->
<!--</mask>-->
<!--<g mask="url(#mask0_3105_31013)">-->
<!--<rect width="28" height="28" fill="black" fill-opacity="0.15"/>-->
<!--</g>-->
<!--</svg>-->


<svg width="24" height="24" viewBox="0 0 24 24" fill="none" xmlns="http://www.w3.org/2000/svg">
    <path fill-rule="evenodd" clip-rule="evenodd" d="M9.49988 6C9.49988 4.61929 10.6192 3.5 11.9999 3.5C13.3806 3.5 14.4999 4.61929 14.4999 6V6.5H9.49988V6ZM15.4999 6V6.5H17.9999H18.4629L18.4984 6.96165L19.4984 19.9617L19.5398 20.5H18.9999H9.12257C9.36369 20.1992 9.56225 19.8628 9.70912 19.5H18.4599L17.5369 7.5H15.4999V9H14.4999V7.5H9.49988V9H8.49988V7.5H6.4629L5.96288 14.0002C5.61239 14.0033 5.27266 14.0516 4.94922 14.1394L5.50135 6.96165L5.53687 6.5H5.99988H8.49988V6C8.49988 4.067 10.0669 2.5 11.9999 2.5C13.9329 2.5 15.4999 4.067 15.4999 6Z" fill="black"/>
    <path fill-rule="evenodd" clip-rule="evenodd" d="M6 22C8.20914 22 10 20.2091 10 18C10 15.7909 8.20914 14 6 14C3.79086 14 2 15.7909 2 18C2 20.2091 3.79086 22 6 22ZM8.02183 15.8722L5.24144 19.0753L3.74568 17.6393L3.05315 18.3607L4.92815 20.1607L5.30738 20.5248L5.652 20.1278L8.777 16.5278L8.02183 15.8722Z" fill="black"/>
</svg>

