<svg width="45" height="44" viewBox="0 0 45 44" fill="none" xmlns="http://www.w3.org/2000/svg">
<path d="M0.333984 22C0.333984 9.84974 10.1838 0 22.334 0C34.4843 0 44.3341 9.84974 44.3341 22C44.3341 34.1503 34.4843 44 22.334 44C10.1838 44 0.333984 34.1503 0.333984 22Z" fill="#570F9E"/>
<mask id="mask0_3202_42236" style="mask-type:alpha" maskUnits="userSpaceOnUse" x="8" y="8" width="29" height="28">
<path fill-rule="evenodd" clip-rule="evenodd" d="M11.8943 30.167C11.856 30.3555 11.8359 30.5506 11.8359 30.7503C11.8359 32.3612 13.1418 33.667 14.7526 33.667C16.3635 33.667 17.6693 32.3612 17.6693 30.7503C17.6693 30.5506 17.6492 30.3555 17.6109 30.167H16.5789C16.6376 30.3509 16.6693 30.5469 16.6693 30.7503C16.6693 31.8089 15.8112 32.667 14.7526 32.667C13.6941 32.667 12.8359 31.8089 12.8359 30.7503C12.8359 30.5469 12.8676 30.3509 12.9263 30.167H11.8943Z" fill="black"/>
<path d="M18.3095 30.1335H11.1932C11.4081 28.0184 12.9705 26.4668 14.7513 26.4668C16.5321 26.4668 18.0945 28.0184 18.3095 30.1335Z" stroke="black"/>
<path d="M33.4755 30.1335H26.3592C26.5742 28.0184 28.1365 26.4668 29.9173 26.4668C31.6981 26.4668 33.2605 28.0184 33.4755 30.1335Z" stroke="black"/>
<path fill-rule="evenodd" clip-rule="evenodd" d="M27.0603 30.167C27.022 30.3555 27.002 30.5506 27.002 30.7503C27.002 32.3612 28.3078 33.667 29.9186 33.667C31.5295 33.667 32.8353 32.3612 32.8353 30.7503C32.8353 30.5506 32.8152 30.3555 32.777 30.167H31.7449C31.8036 30.3509 31.8353 30.5469 31.8353 30.7503C31.8353 31.8089 30.9772 32.667 29.9186 32.667C28.8601 32.667 28.002 31.8089 28.002 30.7503C28.002 30.5469 28.0336 30.3509 28.0923 30.167H27.0603Z" fill="black"/>
<path d="M13.0013 27.2497V24.833C13.0013 22.6239 14.7921 20.833 17.0013 20.833H17.7763C18.3286 20.833 18.7763 21.2807 18.7763 21.833V23.333C18.7763 23.8853 19.224 24.333 19.7763 24.333H25.418C25.9703 24.333 26.418 23.8853 26.418 23.333V17.333" stroke="black"/>
<line x1="17.668" y1="29.667" x2="27.0013" y2="29.667" stroke="black"/>
<path d="M22.334 11.5H25.2507L26.4173 13.8333" stroke="black"/>
<path d="M26.418 13.833H30.5013C31.79 13.833 32.8347 14.8777 32.8347 16.1663V16.1663C32.8347 17.455 31.79 18.4997 30.5013 18.4997H26.418V13.833Z" stroke="black"/>
<path d="M30.5011 18.5L31.668 22V27.25" stroke="black"/>
</mask>
<g mask="url(#mask0_3202_42236)">
<rect x="8.33398" y="8" width="28" height="28" fill="white"/>
</g>
</svg>
