<svg width="44" height="44" viewBox="0 0 44 44" fill="none" xmlns="http://www.w3.org/2000/svg">
<path d="M0 22C0 9.84974 9.84979 0 22.0001 0C34.1503 0 44.0001 9.84974 44.0001 22C44.0001 34.1503 34.1503 44 22.0001 44C9.84979 44 0 34.1503 0 22Z" fill="#570F9E"/>
<mask id="mask0_3202_42502" style="mask-type:alpha" maskUnits="userSpaceOnUse" x="8" y="8" width="28" height="28">
<path d="M33.1415 30.1335H26.0252C26.2402 28.0184 27.8026 26.4668 29.5833 26.4668C31.3641 26.4668 32.9265 28.0184 33.1415 30.1335Z" stroke="black"/>
<path fill-rule="evenodd" clip-rule="evenodd" d="M26.7263 30.167C26.6881 30.3555 26.668 30.5506 26.668 30.7503C26.668 32.3612 27.9738 33.667 29.5846 33.667C31.1955 33.667 32.5013 32.3612 32.5013 30.7503C32.5013 30.5506 32.4812 30.3555 32.443 30.167H31.4109C31.4696 30.3509 31.5013 30.5469 31.5013 30.7503C31.5013 31.8089 30.6432 32.667 29.5846 32.667C28.5261 32.667 27.668 31.8089 27.668 30.7503C27.668 30.5469 27.6997 30.3509 27.7584 30.167H26.7263Z" fill="black"/>
<path d="M12.6673 27.833V24.833C12.6673 22.6239 14.4581 20.833 16.6673 20.833H17.4423C17.9946 20.833 18.4423 21.2807 18.4423 21.833V23.333C18.4423 23.8853 18.89 24.333 19.4423 24.333H25.084C25.6363 24.333 26.084 23.8853 26.084 23.333V17.333" stroke="black"/>
<line x1="17.334" y1="29.667" x2="26.6674" y2="29.667" stroke="black"/>
<path d="M22 11.5H24.9167L26.0833 13.8333" stroke="black"/>
<path d="M26.084 13.833H30.1673C31.456 13.833 32.5007 14.8777 32.5007 16.1663V16.1663C32.5007 17.455 31.456 18.4997 30.1673 18.4997H26.084V13.833Z" stroke="black"/>
<path d="M30.1671 18.5L31.334 22V27.25" stroke="black"/>
<path fill-rule="evenodd" clip-rule="evenodd" d="M15.0007 33.6663C17.578 33.6663 19.6674 31.577 19.6674 28.9997C19.6674 26.4223 17.578 24.333 15.0007 24.333C12.4233 24.333 10.334 26.4223 10.334 28.9997C10.334 31.577 12.4233 33.6663 15.0007 33.6663ZM17.4224 26.5719L14.1212 30.3749L12.3129 28.639L11.6204 29.3604L13.8079 31.4604L14.1871 31.8244L14.5317 31.4275L18.1776 27.2275L17.4224 26.5719Z" fill="black"/>
</mask>
<g mask="url(#mask0_3202_42502)">
<rect x="8" y="8" width="28" height="28" fill="white"/>
</g>
</svg>
