<svg width="28" height="28" viewBox="0 0 28 28" fill="none" xmlns="http://www.w3.org/2000/svg">
<mask id="mask0_3105_14623" style="mask-type:alpha" maskUnits="userSpaceOnUse" x="0" y="0" width="28" height="28">
<path d="M25.1415 22.1335H18.0252C18.2402 20.0184 19.8026 18.4668 21.5833 18.4668C23.3641 18.4668 24.9265 20.0184 25.1415 22.1335Z" stroke="black"/>
<path fill-rule="evenodd" clip-rule="evenodd" d="M18.7263 22.167C18.6881 22.3555 18.668 22.5506 18.668 22.7503C18.668 24.3612 19.9738 25.667 21.5846 25.667C23.1955 25.667 24.5013 24.3612 24.5013 22.7503C24.5013 22.5506 24.4812 22.3555 24.443 22.167H23.4109C23.4696 22.3509 23.5013 22.5469 23.5013 22.7503C23.5013 23.8089 22.6432 24.667 21.5846 24.667C20.5261 24.667 19.668 23.8089 19.668 22.7503C19.668 22.5469 19.6997 22.3509 19.7584 22.167H18.7263Z" fill="black"/>
<path d="M4.66727 19.833V16.833C4.66727 14.6239 6.45813 12.833 8.66727 12.833H9.44229C9.99457 12.833 10.4423 13.2807 10.4423 13.833V15.333C10.4423 15.8853 10.89 16.333 11.4423 16.333H17.084C17.6363 16.333 18.084 15.8853 18.084 15.333V9.33301" stroke="black"/>
<line x1="9.33398" y1="21.667" x2="18.6674" y2="21.667" stroke="black"/>
<path d="M14 3.5H16.9167L18.0833 5.83333" stroke="black"/>
<path d="M18.084 5.83301H22.1673C23.456 5.83301 24.5007 6.87768 24.5007 8.16634V8.16634C24.5007 9.45501 23.456 10.4997 22.1673 10.4997H18.084V5.83301Z" stroke="black"/>
<path d="M22.1671 10.5L23.334 14V19.25" stroke="black"/>
<path fill-rule="evenodd" clip-rule="evenodd" d="M7.00067 25.6663C9.57801 25.6663 11.6674 23.577 11.6674 20.9997C11.6674 18.4223 9.57801 16.333 7.00067 16.333C4.42333 16.333 2.33398 18.4223 2.33398 20.9997C2.33398 23.577 4.42333 25.6663 7.00067 25.6663ZM9.42241 18.5719L6.12118 22.3749L4.31291 20.639L3.62037 21.3604L5.80788 23.4604L6.18712 23.8244L6.53173 23.4275L10.1776 19.2275L9.42241 18.5719Z" fill="black"/>
</mask>
<g mask="url(#mask0_3105_14623)">
<rect width="28" height="28" fill="black" fill-opacity="0.15"/>
</g>
</svg>
