<svg width="44" height="44" viewBox="0 0 44 44" fill="none" xmlns="http://www.w3.org/2000/svg">
<path d="M0 22C0 9.84974 9.84979 0 22.0001 0C34.1503 0 44.0001 9.84974 44.0001 22C44.0001 34.1503 34.1503 44 22.0001 44C9.84979 44 0 34.1503 0 22Z" fill="#570F9E"/>
<mask id="mask0_3202_38713" style="mask-type:alpha" maskUnits="userSpaceOnUse" x="8" y="8" width="28" height="28">
<path fill-rule="evenodd" clip-rule="evenodd" d="M18.9999 15C18.9999 13.3431 20.343 12 21.9999 12C23.6567 12 24.9999 13.3431 24.9999 15V15.6667H18.9999V15ZM25.9999 15V15.6667H28.9999H29.4629L29.4984 16.1283L30.6651 31.295L30.7065 31.8333H30.1666H18.7083C18.9422 31.5276 19.1393 31.192 19.2926 30.8333H29.6266L28.5369 16.6667H25.9999V18.5H24.9999V16.6667H18.9999V18.5H17.9999V16.6667H15.4629L14.873 24.335C14.5242 24.3443 14.185 24.3919 13.8594 24.4737L14.5013 16.1283L14.5368 15.6667H14.9999H17.9999V15C17.9999 12.7909 19.7907 11 21.9999 11C24.209 11 25.9999 12.7909 25.9999 15Z" fill="black"/>
<path fill-rule="evenodd" clip-rule="evenodd" d="M15.0007 33.6663C17.578 33.6663 19.6674 31.577 19.6674 28.9997C19.6674 26.4223 17.578 24.333 15.0007 24.333C12.4233 24.333 10.334 26.4223 10.334 28.9997C10.334 31.577 12.4233 33.6663 15.0007 33.6663ZM17.4224 26.5719L14.1212 30.3749L12.3129 28.639L11.6204 29.3604L13.8079 31.4604L14.1871 31.8244L14.5317 31.4275L18.1776 27.2275L17.4224 26.5719Z" fill="black"/>
</mask>
<g mask="url(#mask0_3202_38713)">
<rect x="8" y="8" width="28" height="28" fill="white"/>
</g>
</svg>
