<svg width="28" height="28" viewBox="0 0 28 28" fill="none" xmlns="http://www.w3.org/2000/svg">
<mask id="mask0_3105_37484" style="mask-type:alpha" maskUnits="userSpaceOnUse" x="0" y="0" width="28" height="28">
<path d="M14.0008 16.3337H17.209V4.66699H3.85156V7.19472" stroke="black"/>
<path fill-rule="evenodd" clip-rule="evenodd" d="M20.1973 7.24055L20.0493 7.08398L19.8339 7.08399L17.209 7.08409L16.709 7.0841V7.58409V7.60122V7.61835V7.63547V7.6526V7.66973V7.68686V7.70398V7.72111V7.73824V7.75536V7.77249V7.78961V7.80674V7.82386V7.84098V7.85811V7.87523V7.89235V7.90947V7.92659V7.94371V7.96083V7.97795V7.99507V8.01219V8.02931V8.04643V8.06355V8.08066V8.09778V8.1149V8.13201V8.14913V8.16625V8.18336V8.20047V8.21759V8.2347V8.25182V8.26893V8.28604V8.30315V8.32026V8.33738V8.35449V8.3716V8.38871V8.40582V8.42293V8.44004V8.45714V8.47425V8.49136V8.50847V8.52557V8.54268V8.55979V8.57689V8.594V8.6111V8.62821V8.64531V8.66242V8.67952V8.69663V8.71373V8.73083V8.74793V8.76504V8.78214V8.79924V8.81634V8.83344V8.85054V8.86764V8.88474V8.90184V8.91894V8.93604V8.95314V8.97024V8.98733V9.00443V9.02153V9.03863V9.05572V9.07282V9.08991V9.10701V9.1241V9.1412V9.15829V9.17539V9.19248V9.20958V9.22667V9.24376V9.26086V9.27795V9.29504V9.31213V9.32923V9.34632V9.36341V9.3805V9.39759V9.41468V9.43177V9.44886V9.46595V9.48304V9.50013V9.51722V9.53431V9.55139V9.56848V9.58557V9.60266V9.61974V9.63683V9.65392V9.671V9.68809V9.70518V9.72226V9.73935V9.75643V9.77352V9.7906V9.80769V9.82477V9.84186V9.85894V9.87602V9.89311V9.91019V9.92727V9.94436V9.96144V9.97852V9.9956V10.0127V10.0298V10.0468V10.0639V10.081V10.0981V10.1152V10.1323V10.1493V10.1664V10.1835V10.2006V10.2177V10.2347V10.2518V10.2689V10.286V10.303V10.3201V10.3372V10.3543V10.3714V10.3884V10.4055V10.4226V10.4397V10.4567V10.4738V10.4909V10.508V10.5251V10.5421V10.5592V10.5763V10.5934V10.6104V10.6275V10.6446V10.6617V10.6787V10.6958V10.7129V10.73V10.747V10.7641V10.7812V10.7983V10.8153V10.8324V10.8495V10.8666V10.8836V10.9007V10.9178V10.9348V10.9519V10.969V10.9861V11.0031V11.0202V11.0373V11.0544V11.0714V11.0885V11.1056V11.1226V11.1397V11.1568V11.1739V11.1909V11.208V11.2251V11.2422V11.2592V11.2763V11.2934V11.3104V11.3275V11.3446V11.3617V11.3787V11.3958V11.4129V11.4299V11.447V11.4641V11.4811V11.4982V11.5153V11.5324V11.5494V11.5665V11.5836V11.6006V11.6177V11.6348V11.6519V11.6689V11.686V11.7031V11.7201V11.7372V11.7543V11.7713V11.7884V11.8055V11.8226V11.8396V11.8567V11.8738V11.8908V11.9079V11.925V11.942V11.9591V11.9762V11.9933V12.0103V12.0274V12.0445V12.0615V12.0786V12.0957V12.1127V12.1298V12.1469V12.164V12.181V12.1981V12.2152V12.2322V12.2493V12.2664V12.2834V12.3005V12.3176V12.3347V12.3517V12.3688V12.3859V12.4029V12.42V12.4371V12.4541V12.4712V12.4883V12.5054V12.5224V12.5395V12.5566V12.5736V12.5907V12.6078V12.6249V12.6419V12.659V12.6761V12.6931V12.7102V12.7273V12.7444V12.7614V12.7785V12.7956V12.8126V12.8297V12.8468V12.8639V12.8809V12.898V12.9151V12.9322V12.9492V12.9663V12.9834V13.0004V13.0175V13.0346V13.0517V13.0687V13.0858V13.1029V13.12V13.137V13.1541V13.1712V13.1883V13.2053V13.2224V13.2395V13.2566V13.2736V13.2907V13.3078V13.3249V13.3419V13.359V13.3761V13.3932V13.4102V13.4273V13.4444V13.4615V13.4786V13.4956V13.5127V13.5298V13.5469V13.5639V13.581V13.5981V13.6152V13.6323V13.6493V13.6664V13.6835V13.7006V13.7177V13.7347V13.7518V13.7689V13.786V13.8031V13.8201V13.8372V13.8543V13.8714V13.8885V13.9055V13.9226V13.9397V13.9568V13.9739V13.991V14.008V14.0251V14.0422V14.0593V14.0764V14.0935V14.1105V14.1276V14.1447V14.1618V14.1789V14.196V14.213V14.2301V14.2472V14.2643V14.2814V14.2985V14.3156V14.3327V14.3497V14.3668V14.3839V14.401V14.4181V14.4352V14.4523V14.4694V14.4865V14.5035V14.5206V14.5377V14.5548V14.5719V14.589V14.6061V14.6232V14.6403V14.6574V14.6745V14.6916V14.7086V14.7257V14.7428V14.7599V14.777V14.7941V14.8112V14.8283V14.8454V14.8625V14.8796V14.8967V14.9138V14.9309V14.948V14.9651V14.9822V14.9993V15.0164V15.0335V15.0506V15.0677V15.0848V15.1019V15.119V15.1361V15.1532V15.1703V15.1874V15.2045V15.2216V15.2387V15.2558V15.2729V15.29V15.3071V15.3242V15.3413V15.3584V15.3755V15.3927V15.4098V15.4269V15.444V15.4611V15.4782V15.4953V15.5124V15.5295V15.5466V15.5637V15.5808V15.598V15.6151V15.6322V15.6493V15.6664V15.6835V15.7006V15.7178V15.7349V15.752V15.7691V15.7862V15.8033V15.8204V15.8341H14.0005V16.8341H17.209H17.709V16.3341V16.317V16.2999V16.2828V16.2656V16.2485V16.2314V16.2142V16.1971V16.18V16.1629V16.1457V16.1286V16.1115V16.0944V16.0772V16.0601V16.043V16.0259V16.0088V15.9916V15.9745V15.9574V15.9403V15.9232V15.906V15.8889V15.8718V15.8547V15.8376V15.8204V15.8033V15.7862V15.7691V15.752V15.7349V15.7178V15.7006V15.6835V15.6664V15.6493V15.6322V15.6151V15.598V15.5808V15.5637V15.5466V15.5295V15.5124V15.4953V15.4782V15.4611V15.444V15.4269V15.4098V15.3927V15.3755V15.3584V15.3413V15.3242V15.3071V15.29V15.2729V15.2558V15.2387V15.2216V15.2045V15.1874V15.1703V15.1532V15.1361V15.119V15.1019V15.0848V15.0677V15.0506V15.0335V15.0164V14.9993V14.9822V14.9651V14.948V14.9309V14.9138V14.8967V14.8796V14.8625V14.8454V14.8283V14.8112V14.7941V14.777V14.7599V14.7428V14.7257V14.7086V14.6916V14.6745V14.6574V14.6403V14.6232V14.6061V14.589V14.5719V14.5548V14.5377V14.5206V14.5035V14.4865V14.4694V14.4523V14.4352V14.4181V14.401V14.3839V14.3668V14.3497V14.3327V14.3156V14.2985V14.2814V14.2643V14.2472V14.2301V14.213V14.196V14.1789V14.1618V14.1447V14.1276V14.1105V14.0935V14.0764V14.0593V14.0422V14.0251V14.008V13.991V13.9739V13.9568V13.9397V13.9226V13.9055V13.8885V13.8714V13.8543V13.8372V13.8201V13.8031V13.786V13.7689V13.7518V13.7347V13.7177V13.7006V13.6835V13.6664V13.6493V13.6323V13.6152V13.5981V13.581V13.5639V13.5469V13.5298V13.5127V13.4956V13.4786V13.4615V13.4444V13.4273V13.4102V13.3932V13.3761V13.359V13.3419V13.3249V13.3078V13.2907V13.2736V13.2566V13.2395V13.2224V13.2053V13.1883V13.1712V13.1541V13.137V13.12V13.1029V13.0858V13.0687V13.0517V13.0346V13.0175V13.0004V12.9834V12.9663V12.9492V12.9322V12.9151V12.898V12.8809V12.8639V12.8468V12.8297V12.8126V12.7956V12.7785V12.7614V12.7444V12.7273V12.7102V12.6931V12.6761V12.659V12.6419V12.6249V12.6078V12.5907V12.5736V12.5566V12.5395V12.5224V12.5054V12.4883V12.4712V12.4541V12.4371V12.42V12.4029V12.3859V12.3688V12.3517V12.3347V12.3176V12.3005V12.2834V12.2664V12.2493V12.2322V12.2152V12.1981V12.181V12.164V12.1469V12.1298V12.1127V12.0957V12.0786V12.0615V12.0445V12.0274V12.0103V11.9933V11.9762V11.9591V11.942V11.925V11.9079V11.8908V11.8738V11.8567V11.8396V11.8226V11.8055V11.7884V11.7713V11.7543V11.7372V11.7201V11.7031V11.686V11.6689V11.6519V11.6348V11.6177V11.6006V11.5836V11.5665V11.5494V11.5324V11.5153V11.4982V11.4811V11.4641V11.447V11.4299V11.4129V11.3958V11.3787V11.3617V11.3446V11.3275V11.3104V11.2934V11.2763V11.2592V11.2422V11.2251V11.208V11.1909V11.1739V11.1568V11.1397V11.1226V11.1056V11.0885V11.0714V11.0544V11.0373V11.0202V11.0031V10.9861V10.969V10.9519V10.9348V10.9178V10.9007V10.8836V10.8666V10.8495V10.8324V10.8153V10.7983V10.7812V10.7641V10.747V10.73V10.7129V10.6958V10.6787V10.6617V10.6446V10.6275V10.6104V10.5934V10.5763V10.5592V10.5421V10.5251V10.508V10.4909V10.4738V10.4567V10.4397V10.4226V10.4055V10.3884V10.3714V10.3543V10.3372V10.3201V10.303V10.286V10.2689V10.2518V10.2347V10.2177V10.2006V10.1835V10.1664V10.1493V10.1323V10.1152V10.0981V10.081V10.0639V10.0468V10.0298V10.0127V9.9956V9.97852V9.96144V9.94436V9.92727V9.91019V9.89311V9.87602V9.85894V9.84186V9.82477V9.80769V9.7906V9.77352V9.75643V9.73935V9.72226V9.70518V9.68809V9.671V9.65392V9.63683V9.61974V9.60266V9.58557V9.56848V9.55139V9.53431V9.51722V9.50013V9.48304V9.46595V9.44886V9.43177V9.41468V9.39759V9.3805V9.36341V9.34632V9.32923V9.31213V9.29504V9.27795V9.26086V9.24376V9.22667V9.20958V9.19248V9.17539V9.15829V9.1412V9.1241V9.10701V9.08991V9.07282V9.05572V9.03863V9.02153V9.00443V8.98733V8.97024V8.95314V8.93604V8.91894V8.90184V8.88474V8.86764V8.85054V8.83344V8.81634V8.79924V8.78214V8.76504V8.74793V8.73083V8.71373V8.69663V8.67952V8.66242V8.64531V8.62821V8.6111V8.594V8.57689V8.55979V8.54268V8.52557V8.50847V8.49136V8.47425V8.45714V8.44004V8.42293V8.40582V8.38871V8.3716V8.35449V8.33738V8.32026V8.30315V8.28604V8.26893V8.25182V8.2347V8.21759V8.20047V8.18336V8.16625V8.14913V8.13201V8.1149V8.09778V8.08407L19.6185 8.084L22.4617 11.0923L24.1952 14.1333V16.1397V22.0564H20.8696C20.6346 20.8412 19.5602 19.9175 18.2785 19.9175C16.9968 19.9175 15.9223 20.8412 15.6873 22.0564H11.5475C11.4665 22.4065 11.3462 22.7414 11.1914 23.0564H16.1396H16.6396V22.5564C16.6396 21.6562 17.3782 20.9175 18.2785 20.9175C19.1787 20.9175 19.9174 21.6562 19.9174 22.5564V23.0564H20.4174H24.6952H25.1952V22.5564V16.1397V14.0008V13.8683L25.1295 13.7532L23.3008 10.5449L23.271 10.4927L23.2298 10.4491L20.1973 7.24055Z" fill="black"/>
<path d="M18.2795 24.6948C19.4608 24.6948 20.4184 23.7372 20.4184 22.5559C20.4184 21.3746 19.4608 20.417 18.2795 20.417C17.0982 20.417 16.1406 21.3746 16.1406 22.5559C16.1406 23.7372 17.0982 24.6948 18.2795 24.6948Z" stroke="black" stroke-linecap="round"/>
<path d="M24.6958 16.1395V14.0007L22.867 11.084H20.418V16.1395H24.6958Z" stroke="black" stroke-linecap="round"/>
<path d="M2.33398 9.72266H8.75068" stroke="black" stroke-linejoin="round"/>
<path d="M2.33398 12.9307H6.61178" stroke="black" stroke-linejoin="round"/>
<path d="M2.33398 16.1396H4.47288" stroke="black" stroke-linejoin="round"/>
<path fill-rule="evenodd" clip-rule="evenodd" d="M7.00067 25.6673C9.57801 25.6673 11.6674 23.578 11.6674 21.0007C11.6674 18.4233 9.57801 16.334 7.00067 16.334C4.42333 16.334 2.33398 18.4233 2.33398 21.0007C2.33398 23.578 4.42333 25.6673 7.00067 25.6673ZM9.42241 18.5729L6.12118 22.3759L4.31291 20.64L3.62037 21.3614L5.80788 23.4614L6.18712 23.8254L6.53173 23.4284L10.1776 19.2284L9.42241 18.5729Z" fill="black"/>
</mask>
<g mask="url(#mask0_3105_37484)">
<rect width="28" height="28" fill="black" fill-opacity="0.15"/>
</g>
</svg>
