<svg width="29" height="28" viewBox="0 0 29 28" fill="none" xmlns="http://www.w3.org/2000/svg">
<mask id="mask0_3105_37468" style="mask-type:alpha" maskUnits="userSpaceOnUse" x="0" y="0" width="29" height="28">
<path d="M14.3347 16.3337H17.543V4.66699H4.18555V7.19472" stroke="black"/>
<path d="M14.3338 16.3341H17.5423C17.5423 13.4106 17.5423 10.5076 17.5423 7.58408L20.1672 7.58398L23.1997 10.7925L25.0285 14.0008V16.1397V22.5564H20.7507C20.7507 21.38 19.7882 20.4175 18.6118 20.4175C17.4354 20.4175 16.4729 21.38 16.4729 22.5564H12.1951C12.1951 21.38 11.2326 20.4175 10.0562 20.4175C8.8798 20.4175 7.9173 21.38 7.9173 22.5564H3.83398V18.6675" stroke="black"/>
<path d="M10.0569 24.6948C11.2381 24.6948 12.1958 23.7372 12.1958 22.5559C12.1958 21.3746 11.2381 20.417 10.0569 20.417C8.87559 20.417 7.91797 21.3746 7.91797 22.5559C7.91797 23.7372 8.87559 24.6948 10.0569 24.6948Z" stroke="black" stroke-linecap="round"/>
<path d="M18.6135 24.6948C19.7948 24.6948 20.7524 23.7372 20.7524 22.5559C20.7524 21.3746 19.7948 20.417 18.6135 20.417C17.4322 20.417 16.4746 21.3746 16.4746 22.5559C16.4746 23.7372 17.4322 24.6948 18.6135 24.6948Z" stroke="black" stroke-linecap="round"/>
<path d="M25.0297 16.1395V14.0007L23.201 11.084H20.752V16.1395H25.0297Z" stroke="black" stroke-linecap="round"/>
<path d="M2.66797 9.72266H9.08466" stroke="black" stroke-linejoin="round"/>
<path d="M2.66797 12.9307H6.94576" stroke="black" stroke-linejoin="round"/>
<path d="M2.66797 16.1396H4.80687" stroke="black" stroke-linejoin="round"/>
</mask>
<g mask="url(#mask0_3105_37468)">
<rect x="0.333984" width="28" height="28" fill="black" fill-opacity="0.15"/>
</g>
</svg>
