<svg width="29" height="28" viewBox="0 0 29 28" fill="none" xmlns="http://www.w3.org/2000/svg">
<mask id="mask0_3105_37456" style="mask-type:alpha" maskUnits="userSpaceOnUse" x="0" y="0" width="29" height="28">
<path d="M14.4883 3.03027V9.60119" stroke="#000001" stroke-linejoin="round"/>
<path d="M18.166 21H21.666" stroke="#000001" stroke-linecap="round" stroke-linejoin="round"/>
<path d="M4.31055 10.1016H24.6661V22.7434C24.6661 23.0465 24.5457 23.3371 24.3314 23.5514C24.1171 23.7657 23.8264 23.8861 23.5234 23.8861H5.45328C5.15021 23.8861 4.85955 23.7657 4.64525 23.5514C4.43094 23.3371 4.31055 23.0465 4.31055 22.7434V10.1016Z" stroke="#000001" stroke-linecap="round" stroke-linejoin="round"/>
<mask id="path-4-inside-1_3105_37456" fill="white">
<path d="M3.81055 9.60119L6.27465 4.8537C6.54029 4.31862 6.94681 3.86609 7.45045 3.5448C7.95409 3.22351 8.53581 3.04562 9.13301 3.03027H19.8436C20.4549 3.0306 21.0539 3.20143 21.5734 3.52355C22.0928 3.84568 22.5121 4.30632 22.7841 4.8537L25.1661 9.60119"/>
</mask>
<path d="M4.31055 9.60119C4.31055 9.32505 4.08669 9.10119 3.81055 9.10119C3.5344 9.10119 3.31055 9.32505 3.31055 9.60119H4.31055ZM25.6661 9.60119C25.6661 9.32505 25.4422 9.10119 25.1661 9.10119C24.89 9.10119 24.6661 9.32505 24.6661 9.60119H25.6661ZM25.1661 12.2497V12.7497C25.4422 12.7497 25.6661 12.5258 25.6661 12.2497H25.1661ZM3.81055 12.2497H3.31055C3.31055 12.5258 3.5344 12.7497 3.81055 12.7497V12.2497ZM24.6661 9.60119V12.2497H25.6661V9.60119H24.6661ZM25.1661 11.7497H3.81055V12.7497H25.1661V11.7497ZM4.31055 12.2497V9.60119H3.31055V12.2497H4.31055ZM2.92298 9.14051C2.66855 9.6307 2.85968 10.2343 3.34987 10.4888C3.84006 10.7432 4.44369 10.5521 4.69811 10.0619L2.92298 9.14051ZM6.27465 4.8537L7.16222 5.31438C7.16497 5.30907 7.16768 5.30373 7.17034 5.29837L6.27465 4.8537ZM9.13301 3.03027V2.03027C9.12444 2.03027 9.11588 2.03038 9.10731 2.0306L9.13301 3.03027ZM19.8436 3.03027L19.8442 2.03027H19.8436V3.03027ZM22.7841 4.8537L21.8886 5.29871L21.8903 5.30215L22.7841 4.8537ZM24.2723 10.0496C24.52 10.5433 25.1209 10.7427 25.6145 10.495C26.1082 10.2473 26.3076 9.64637 26.0599 9.15274L24.2723 10.0496ZM4.69811 10.0619L7.16222 5.31438L5.38708 4.39303L2.92298 9.14051L4.69811 10.0619ZM7.17034 5.29837C7.35513 4.92615 7.63791 4.61136 7.98826 4.38786L6.91263 2.70174C6.2557 3.12082 5.72545 3.71108 5.37896 4.40903L7.17034 5.29837ZM7.98826 4.38786C8.33861 4.16437 8.74327 4.04062 9.1587 4.02994L9.10731 2.0306C8.32834 2.05063 7.56957 2.28266 6.91263 2.70174L7.98826 4.38786ZM9.13301 4.03027H19.8436V2.03027H9.13301V4.03027ZM19.8431 4.03027C20.2683 4.0305 20.685 4.14933 21.0464 4.37341L22.1004 2.67369C21.4228 2.25352 20.6414 2.0307 19.8442 2.03027L19.8431 4.03027ZM21.0464 4.37341C21.4077 4.59749 21.6994 4.91793 21.8886 5.2987L23.6797 4.4087C23.3249 3.69472 22.7779 3.09386 22.1004 2.67369L21.0464 4.37341ZM21.8903 5.30215L24.2723 10.0496L26.0599 9.15274L23.6779 4.40525L21.8903 5.30215Z" fill="#000001" mask="url(#path-4-inside-1_3105_37456)"/>
</mask>
<g mask="url(#mask0_3105_37456)">
<rect x="0.666016" width="28" height="28" fill="black" fill-opacity="0.15"/>
</g>
</svg>
