<svg width="45" height="44" viewBox="0 0 45 44" fill="none" xmlns="http://www.w3.org/2000/svg">
<path d="M0.666016 22C0.666016 9.84974 10.5158 0 22.6661 0C34.8163 0 44.6661 9.84974 44.6661 22C44.6661 34.1503 34.8163 44 22.6661 44C10.5158 44 0.666016 34.1503 0.666016 22Z" fill="#570F9E"/>
<mask id="mask0_3202_15933" style="mask-type:alpha" maskUnits="userSpaceOnUse" x="8" y="8" width="29" height="28">
<path d="M22.4883 11.0303V17.6012" stroke="#000001" stroke-linejoin="round"/>
<path d="M26.166 29H29.666" stroke="#000001" stroke-linecap="round" stroke-linejoin="round"/>
<path d="M12.3105 18.1016H32.6661V30.7434C32.6661 31.0465 32.5457 31.3371 32.3314 31.5514C32.1171 31.7657 31.8264 31.8861 31.5234 31.8861H13.4533C13.1502 31.8861 12.8596 31.7657 12.6452 31.5514C12.4309 31.3371 12.3105 31.0465 12.3105 30.7434V18.1016Z" stroke="#000001" stroke-linecap="round" stroke-linejoin="round"/>
<mask id="path-5-inside-1_3202_15933" fill="white">
<path d="M11.8105 17.6012L14.2746 12.8537C14.5403 12.3186 14.9468 11.8661 15.4504 11.5448C15.9541 11.2235 16.5358 11.0456 17.133 11.0303H27.8436C28.4549 11.0306 29.0539 11.2014 29.5734 11.5236C30.0928 11.8457 30.5121 12.3063 30.7841 12.8537L33.1661 17.6012"/>
</mask>
<path d="M12.3105 17.6012C12.3105 17.325 12.0867 17.1012 11.8105 17.1012C11.5344 17.1012 11.3105 17.325 11.3105 17.6012H12.3105ZM33.6661 17.6012C33.6661 17.325 33.4422 17.1012 33.1661 17.1012C32.89 17.1012 32.6661 17.325 32.6661 17.6012H33.6661ZM33.1661 20.2497V20.7497C33.4422 20.7497 33.6661 20.5258 33.6661 20.2497H33.1661ZM11.8105 20.2497H11.3105C11.3105 20.5258 11.5344 20.7497 11.8105 20.7497V20.2497ZM32.6661 17.6012V20.2497H33.6661V17.6012H32.6661ZM33.1661 19.7497H11.8105V20.7497H33.1661V19.7497ZM12.3105 20.2497V17.6012H11.3105V20.2497H12.3105ZM10.923 17.1405C10.6686 17.6307 10.8597 18.2343 11.3499 18.4888C11.8401 18.7432 12.4437 18.5521 12.6981 18.0619L10.923 17.1405ZM14.2746 12.8537L15.1622 13.3144C15.165 13.3091 15.1677 13.3037 15.1703 13.2984L14.2746 12.8537ZM17.133 11.0303V10.0303C17.1244 10.0303 17.1159 10.0304 17.1073 10.0306L17.133 11.0303ZM27.8436 11.0303L27.8442 10.0303H27.8436V11.0303ZM30.7841 12.8537L29.8886 13.2987L29.8903 13.3022L30.7841 12.8537ZM32.2723 18.0496C32.52 18.5433 33.1209 18.7427 33.6145 18.495C34.1082 18.2473 34.3076 17.6464 34.0599 17.1527L32.2723 18.0496ZM12.6981 18.0619L15.1622 13.3144L13.3871 12.393L10.923 17.1405L12.6981 18.0619ZM15.1703 13.2984C15.3551 12.9262 15.6379 12.6114 15.9883 12.3879L14.9126 10.7017C14.2557 11.1208 13.7255 11.7111 13.379 12.409L15.1703 13.2984ZM15.9883 12.3879C16.3386 12.1644 16.7433 12.0406 17.1587 12.0299L17.1073 10.0306C16.3283 10.0506 15.5696 10.2827 14.9126 10.7017L15.9883 12.3879ZM17.133 12.0303H27.8436V10.0303H17.133V12.0303ZM27.8431 12.0303C28.2683 12.0305 28.685 12.1493 29.0464 12.3734L30.1004 10.6737C29.4228 10.2535 28.6414 10.0307 27.8442 10.0303L27.8431 12.0303ZM29.0464 12.3734C29.4077 12.5975 29.6994 12.9179 29.8886 13.2987L31.6797 12.4087C31.3249 11.6947 30.7779 11.0939 30.1004 10.6737L29.0464 12.3734ZM29.8903 13.3022L32.2723 18.0496L34.0599 17.1527L31.6779 12.4053L29.8903 13.3022Z" fill="#000001" mask="url(#path-5-inside-1_3202_15933)"/>
</mask>
<g mask="url(#mask0_3202_15933)">
<rect x="8.66602" y="8" width="28" height="28" fill="white"/>
</g>
</svg>
