<svg width="44" height="44" viewBox="0 0 44 44" fill="none" xmlns="http://www.w3.org/2000/svg">
<path d="M0 22C0 9.84974 9.84979 0 22.0001 0C34.1503 0 44.0001 9.84974 44.0001 22C44.0001 34.1503 34.1503 44 22.0001 44C9.84979 44 0 34.1503 0 22Z" fill="#570F9E"/>
<mask id="mask0_3202_39983" style="mask-type:alpha" maskUnits="userSpaceOnUse" x="8" y="8" width="28" height="28">
<path d="M22.0008 24.3337H25.209V12.667H11.8516V15.1947" stroke="black"/>
<path fill-rule="evenodd" clip-rule="evenodd" d="M28.1973 15.2405L28.0493 15.084L27.8339 15.084L25.209 15.0841L24.709 15.0841V15.5841V15.6012V15.6183V15.6355V15.6526V15.6697V15.6869V15.704V15.7211V15.7382V15.7554V15.7725V15.7896V15.8067V15.8239V15.841V15.8581V15.8752V15.8924V15.9095V15.9266V15.9437V15.9608V15.978V15.9951V16.0122V16.0293V16.0464V16.0635V16.0807V16.0978V16.1149V16.132V16.1491V16.1662V16.1834V16.2005V16.2176V16.2347V16.2518V16.2689V16.286V16.3032V16.3203V16.3374V16.3545V16.3716V16.3887V16.4058V16.4229V16.44V16.4571V16.4743V16.4914V16.5085V16.5256V16.5427V16.5598V16.5769V16.594V16.6111V16.6282V16.6453V16.6624V16.6795V16.6966V16.7137V16.7308V16.7479V16.765V16.7821V16.7992V16.8163V16.8334V16.8505V16.8676V16.8847V16.9018V16.9189V16.936V16.9531V16.9702V16.9873V17.0044V17.0215V17.0386V17.0557V17.0728V17.0899V17.107V17.1241V17.1412V17.1583V17.1754V17.1925V17.2096V17.2267V17.2438V17.2609V17.2779V17.295V17.3121V17.3292V17.3463V17.3634V17.3805V17.3976V17.4147V17.4318V17.4489V17.466V17.483V17.5001V17.5172V17.5343V17.5514V17.5685V17.5856V17.6027V17.6197V17.6368V17.6539V17.671V17.6881V17.7052V17.7223V17.7393V17.7564V17.7735V17.7906V17.8077V17.8248V17.8419V17.8589V17.876V17.8931V17.9102V17.9273V17.9444V17.9614V17.9785V17.9956V18.0127V18.0298V18.0468V18.0639V18.081V18.0981V18.1152V18.1323V18.1493V18.1664V18.1835V18.2006V18.2177V18.2347V18.2518V18.2689V18.286V18.303V18.3201V18.3372V18.3543V18.3714V18.3884V18.4055V18.4226V18.4397V18.4567V18.4738V18.4909V18.508V18.5251V18.5421V18.5592V18.5763V18.5934V18.6104V18.6275V18.6446V18.6617V18.6787V18.6958V18.7129V18.73V18.747V18.7641V18.7812V18.7983V18.8153V18.8324V18.8495V18.8666V18.8836V18.9007V18.9178V18.9348V18.9519V18.969V18.9861V19.0031V19.0202V19.0373V19.0544V19.0714V19.0885V19.1056V19.1226V19.1397V19.1568V19.1739V19.1909V19.208V19.2251V19.2422V19.2592V19.2763V19.2934V19.3104V19.3275V19.3446V19.3617V19.3787V19.3958V19.4129V19.4299V19.447V19.4641V19.4811V19.4982V19.5153V19.5324V19.5494V19.5665V19.5836V19.6006V19.6177V19.6348V19.6519V19.6689V19.686V19.7031V19.7201V19.7372V19.7543V19.7713V19.7884V19.8055V19.8226V19.8396V19.8567V19.8738V19.8908V19.9079V19.925V19.942V19.9591V19.9762V19.9933V20.0103V20.0274V20.0445V20.0615V20.0786V20.0957V20.1127V20.1298V20.1469V20.164V20.181V20.1981V20.2152V20.2322V20.2493V20.2664V20.2834V20.3005V20.3176V20.3347V20.3517V20.3688V20.3859V20.4029V20.42V20.4371V20.4541V20.4712V20.4883V20.5054V20.5224V20.5395V20.5566V20.5736V20.5907V20.6078V20.6249V20.6419V20.659V20.6761V20.6931V20.7102V20.7273V20.7444V20.7614V20.7785V20.7956V20.8126V20.8297V20.8468V20.8639V20.8809V20.898V20.9151V20.9322V20.9492V20.9663V20.9834V21.0004V21.0175V21.0346V21.0517V21.0687V21.0858V21.1029V21.12V21.137V21.1541V21.1712V21.1883V21.2053V21.2224V21.2395V21.2566V21.2736V21.2907V21.3078V21.3249V21.3419V21.359V21.3761V21.3932V21.4102V21.4273V21.4444V21.4615V21.4786V21.4956V21.5127V21.5298V21.5469V21.5639V21.581V21.5981V21.6152V21.6323V21.6493V21.6664V21.6835V21.7006V21.7177V21.7347V21.7518V21.7689V21.786V21.8031V21.8201V21.8372V21.8543V21.8714V21.8885V21.9055V21.9226V21.9397V21.9568V21.9739V21.991V22.008V22.0251V22.0422V22.0593V22.0764V22.0935V22.1105V22.1276V22.1447V22.1618V22.1789V22.196V22.213V22.2301V22.2472V22.2643V22.2814V22.2985V22.3156V22.3327V22.3497V22.3668V22.3839V22.401V22.4181V22.4352V22.4523V22.4694V22.4865V22.5035V22.5206V22.5377V22.5548V22.5719V22.589V22.6061V22.6232V22.6403V22.6574V22.6745V22.6916V22.7086V22.7257V22.7428V22.7599V22.777V22.7941V22.8112V22.8283V22.8454V22.8625V22.8796V22.8967V22.9138V22.9309V22.948V22.9651V22.9822V22.9993V23.0164V23.0335V23.0506V23.0677V23.0848V23.1019V23.119V23.1361V23.1532V23.1703V23.1874V23.2045V23.2216V23.2387V23.2558V23.2729V23.29V23.3071V23.3242V23.3413V23.3584V23.3755V23.3927V23.4098V23.4269V23.444V23.4611V23.4782V23.4953V23.5124V23.5295V23.5466V23.5637V23.5808V23.598V23.6151V23.6322V23.6493V23.6664V23.6835V23.7006V23.7178V23.7349V23.752V23.7691V23.7862V23.8033V23.8204V23.8341H22.0005V24.8341H25.209H25.709V24.3341V24.317V24.2999V24.2828V24.2656V24.2485V24.2314V24.2142V24.1971V24.18V24.1629V24.1457V24.1286V24.1115V24.0944V24.0772V24.0601V24.043V24.0259V24.0088V23.9916V23.9745V23.9574V23.9403V23.9232V23.906V23.8889V23.8718V23.8547V23.8376V23.8204V23.8033V23.7862V23.7691V23.752V23.7349V23.7178V23.7006V23.6835V23.6664V23.6493V23.6322V23.6151V23.598V23.5808V23.5637V23.5466V23.5295V23.5124V23.4953V23.4782V23.4611V23.444V23.4269V23.4098V23.3927V23.3755V23.3584V23.3413V23.3242V23.3071V23.29V23.2729V23.2558V23.2387V23.2216V23.2045V23.1874V23.1703V23.1532V23.1361V23.119V23.1019V23.0848V23.0677V23.0506V23.0335V23.0164V22.9993V22.9822V22.9651V22.948V22.9309V22.9138V22.8967V22.8796V22.8625V22.8454V22.8283V22.8112V22.7941V22.777V22.7599V22.7428V22.7257V22.7086V22.6916V22.6745V22.6574V22.6403V22.6232V22.6061V22.589V22.5719V22.5548V22.5377V22.5206V22.5035V22.4865V22.4694V22.4523V22.4352V22.4181V22.401V22.3839V22.3668V22.3497V22.3327V22.3156V22.2985V22.2814V22.2643V22.2472V22.2301V22.213V22.196V22.1789V22.1618V22.1447V22.1276V22.1105V22.0935V22.0764V22.0593V22.0422V22.0251V22.008V21.991V21.9739V21.9568V21.9397V21.9226V21.9055V21.8885V21.8714V21.8543V21.8372V21.8201V21.8031V21.786V21.7689V21.7518V21.7347V21.7177V21.7006V21.6835V21.6664V21.6493V21.6323V21.6152V21.5981V21.581V21.5639V21.5469V21.5298V21.5127V21.4956V21.4786V21.4615V21.4444V21.4273V21.4102V21.3932V21.3761V21.359V21.3419V21.3249V21.3078V21.2907V21.2736V21.2566V21.2395V21.2224V21.2053V21.1883V21.1712V21.1541V21.137V21.12V21.1029V21.0858V21.0687V21.0517V21.0346V21.0175V21.0004V20.9834V20.9663V20.9492V20.9322V20.9151V20.898V20.8809V20.8639V20.8468V20.8297V20.8126V20.7956V20.7785V20.7614V20.7444V20.7273V20.7102V20.6931V20.6761V20.659V20.6419V20.6249V20.6078V20.5907V20.5736V20.5566V20.5395V20.5224V20.5054V20.4883V20.4712V20.4541V20.4371V20.42V20.4029V20.3859V20.3688V20.3517V20.3347V20.3176V20.3005V20.2834V20.2664V20.2493V20.2322V20.2152V20.1981V20.181V20.164V20.1469V20.1298V20.1127V20.0957V20.0786V20.0615V20.0445V20.0274V20.0103V19.9933V19.9762V19.9591V19.942V19.925V19.9079V19.8908V19.8738V19.8567V19.8396V19.8226V19.8055V19.7884V19.7713V19.7543V19.7372V19.7201V19.7031V19.686V19.6689V19.6519V19.6348V19.6177V19.6006V19.5836V19.5665V19.5494V19.5324V19.5153V19.4982V19.4811V19.4641V19.447V19.4299V19.4129V19.3958V19.3787V19.3617V19.3446V19.3275V19.3104V19.2934V19.2763V19.2592V19.2422V19.2251V19.208V19.1909V19.1739V19.1568V19.1397V19.1226V19.1056V19.0885V19.0714V19.0544V19.0373V19.0202V19.0031V18.9861V18.969V18.9519V18.9348V18.9178V18.9007V18.8836V18.8666V18.8495V18.8324V18.8153V18.7983V18.7812V18.7641V18.747V18.73V18.7129V18.6958V18.6787V18.6617V18.6446V18.6275V18.6104V18.5934V18.5763V18.5592V18.5421V18.5251V18.508V18.4909V18.4738V18.4567V18.4397V18.4226V18.4055V18.3884V18.3714V18.3543V18.3372V18.3201V18.303V18.286V18.2689V18.2518V18.2347V18.2177V18.2006V18.1835V18.1664V18.1493V18.1323V18.1152V18.0981V18.081V18.0639V18.0468V18.0298V18.0127V17.9956V17.9785V17.9614V17.9444V17.9273V17.9102V17.8931V17.876V17.8589V17.8419V17.8248V17.8077V17.7906V17.7735V17.7564V17.7393V17.7223V17.7052V17.6881V17.671V17.6539V17.6368V17.6197V17.6027V17.5856V17.5685V17.5514V17.5343V17.5172V17.5001V17.483V17.466V17.4489V17.4318V17.4147V17.3976V17.3805V17.3634V17.3463V17.3292V17.3121V17.295V17.2779V17.2609V17.2438V17.2267V17.2096V17.1925V17.1754V17.1583V17.1412V17.1241V17.107V17.0899V17.0728V17.0557V17.0386V17.0215V17.0044V16.9873V16.9702V16.9531V16.936V16.9189V16.9018V16.8847V16.8676V16.8505V16.8334V16.8163V16.7992V16.7821V16.765V16.7479V16.7308V16.7137V16.6966V16.6795V16.6624V16.6453V16.6282V16.6111V16.594V16.5769V16.5598V16.5427V16.5256V16.5085V16.4914V16.4743V16.4571V16.44V16.4229V16.4058V16.3887V16.3716V16.3545V16.3374V16.3203V16.3032V16.286V16.2689V16.2518V16.2347V16.2176V16.2005V16.1834V16.1662V16.1491V16.132V16.1149V16.0978V16.0841L27.6185 16.084L30.4617 19.0923L32.1952 22.1333V24.1397V30.0564H28.8696C28.6346 28.8412 27.5602 27.9175 26.2785 27.9175C24.9968 27.9175 23.9223 28.8412 23.6873 30.0564H19.5475C19.4665 30.4065 19.3462 30.7414 19.1914 31.0564H24.1396H24.6396V30.5564C24.6396 29.6562 25.3782 28.9175 26.2785 28.9175C27.1787 28.9175 27.9174 29.6562 27.9174 30.5564V31.0564H28.4174H32.6952H33.1952V30.5564V24.1397V22.0008V21.8683L33.1295 21.7532L31.3008 18.5449L31.271 18.4927L31.2298 18.4491L28.1973 15.2405Z" fill="black"/>
<path d="M26.2795 32.6948C27.4608 32.6948 28.4184 31.7372 28.4184 30.5559C28.4184 29.3746 27.4608 28.417 26.2795 28.417C25.0982 28.417 24.1406 29.3746 24.1406 30.5559C24.1406 31.7372 25.0982 32.6948 26.2795 32.6948Z" stroke="black" stroke-linecap="round"/>
<path d="M32.6958 24.1395V22.0007L30.867 19.084H28.418V24.1395H32.6958Z" stroke="black" stroke-linecap="round"/>
<path d="M10.334 17.7227H16.7507" stroke="black" stroke-linejoin="round"/>
<path d="M10.334 20.9307H14.6118" stroke="black" stroke-linejoin="round"/>
<path d="M10.334 24.1396H12.4729" stroke="black" stroke-linejoin="round"/>
<path fill-rule="evenodd" clip-rule="evenodd" d="M15.0007 33.6673C17.578 33.6673 19.6674 31.578 19.6674 29.0007C19.6674 26.4233 17.578 24.334 15.0007 24.334C12.4233 24.334 10.334 26.4233 10.334 29.0007C10.334 31.578 12.4233 33.6673 15.0007 33.6673ZM17.4224 26.5729L14.1212 30.3759L12.3129 28.64L11.6204 29.3614L13.8079 31.4614L14.1871 31.8254L14.5317 31.4284L18.1776 27.2284L17.4224 26.5729Z" fill="black"/>
</mask>
<g mask="url(#mask0_3202_39983)">
<rect x="8" y="8" width="28" height="28" fill="white"/>
</g>
</svg>
