<svg width="45" height="44" viewBox="0 0 45 44" fill="none" xmlns="http://www.w3.org/2000/svg">
<path d="M0.333984 22C0.333984 9.84974 10.1838 0 22.334 0C34.4843 0 44.3341 9.84974 44.3341 22C44.3341 34.1503 34.4843 44 22.334 44C10.1838 44 0.333984 34.1503 0.333984 22Z" fill="#570F9E"/>
<mask id="mask0_3202_46436" style="mask-type:alpha" maskUnits="userSpaceOnUse" x="8" y="8" width="29" height="28">
<path d="M22.3347 24.3337H25.543V12.667H12.1855V15.1947" stroke="black"/>
<path d="M22.3338 24.3341H25.5423C25.5423 21.4106 25.5423 18.5076 25.5423 15.5841L28.1672 15.584L31.1997 18.7925L33.0285 22.0008V24.1397V30.5564H28.7507C28.7507 29.38 27.7882 28.4175 26.6118 28.4175C25.4354 28.4175 24.4729 29.38 24.4729 30.5564H20.1951C20.1951 29.38 19.2326 28.4175 18.0562 28.4175C16.8798 28.4175 15.9173 29.38 15.9173 30.5564H11.834V26.6675" stroke="black"/>
<path d="M18.0569 32.6948C19.2381 32.6948 20.1958 31.7372 20.1958 30.5559C20.1958 29.3746 19.2381 28.417 18.0569 28.417C16.8756 28.417 15.918 29.3746 15.918 30.5559C15.918 31.7372 16.8756 32.6948 18.0569 32.6948Z" stroke="black" stroke-linecap="round"/>
<path d="M26.6135 32.6948C27.7948 32.6948 28.7524 31.7372 28.7524 30.5559C28.7524 29.3746 27.7948 28.417 26.6135 28.417C25.4322 28.417 24.4746 29.3746 24.4746 30.5559C24.4746 31.7372 25.4322 32.6948 26.6135 32.6948Z" stroke="black" stroke-linecap="round"/>
<path d="M33.0297 24.1395V22.0007L31.201 19.084H28.752V24.1395H33.0297Z" stroke="black" stroke-linecap="round"/>
<path d="M10.668 17.7227H17.0847" stroke="black" stroke-linejoin="round"/>
<path d="M10.668 20.9307H14.9458" stroke="black" stroke-linejoin="round"/>
<path d="M10.668 24.1396H12.8069" stroke="black" stroke-linejoin="round"/>
</mask>
<g mask="url(#mask0_3202_46436)">
<rect x="8.33398" y="8" width="28" height="28" fill="white"/>
</g>
</svg>
