<svg width="24" height="24" viewBox="0 0 24 24" fill="none" xmlns="http://www.w3.org/2000/svg">
    <g clip-path="url(#ooqfuiy2xa)" fill="#000">
        <path d="M12.14 8.39c-2.07 0-3.75 1.68-3.75 3.75 0 2.07 1.68 3.75 3.75 3.75 2.07 0 3.75-1.68 3.75-3.75 0-2.07-1.68-3.75-3.75-3.75zm0 6.5c-1.52 0-2.75-1.23-2.75-2.75s1.23-2.75 2.75-2.75 2.75 1.24 2.75 2.75-1.23 2.75-2.75 2.75z"/>
        <path d="m21.37 9.802-1.44-.08c-.14-.47-.33-.93-.57-1.38l.96-1.06c.35-.36.35-.93 0-1.29l-2.02-2.02c-.36-.35-.94-.35-1.27-.02l-1.09.97c-.44-.23-.9-.42-1.38-.57l-.08-1.43c0-.5-.41-.91-.91-.91h-2.86c-.51 0-.91.4-.91.89l-.08 1.45c-.47.15-.93.34-1.38.57l-1.06-.95a.924.924 0 0 0-1.29 0l-2.02 2.02a.9.9 0 0 0-.02 1.27l.97 1.08c-.23.45-.42.91-.57 1.38l-1.43.08a.9.9 0 0 0-.91.91v2.85c0 .51.41.92.88.92l1.46.08c.15.48.34.94.57 1.38l-.96 1.07c-.35.37-.34.93 0 1.29l2.02 2.02c.35.35.93.35 1.27.02l1.08-.98c.45.24.91.43 1.38.58l.08 1.42c0 .51.41.91.91.91h2.85c.51 0 .92-.4.92-.88l.08-1.45c.48-.15.94-.35 1.37-.58l1.07.96c.35.35.94.35 1.3 0l1.99-2.01c.19-.17.29-.41.29-.66 0-.25-.1-.48-.25-.62l-.97-1.08c.24-.45.43-.91.57-1.39l1.42-.08c.51 0 .92-.4.92-.91v-2.86c0-.49-.4-.9-.9-.91h.01zm-.1 3.69-1.75.09c-.21.02-.4.17-.45.38-.17.63-.41 1.22-.75 1.8-.11.19-.09.42.06.59l1.16 1.3-1.9 1.9-1.3-1.17a.516.516 0 0 0-.59-.06c-.55.33-1.16.58-1.8.75-.21.06-.36.24-.37.46l-.09 1.74H10.8l-.1-1.74a.492.492 0 0 0-.37-.46c-.64-.17-1.23-.41-1.81-.75a.499.499 0 0 0-.58.06l-1.3 1.17-1.91-1.9 1.17-1.31c.15-.16.17-.4.06-.59-.32-.55-.58-1.15-.74-1.79a.524.524 0 0 0-.46-.38l-1.75-.09v-2.69l1.75-.1c.22-.01.4-.16.46-.37.16-.63.41-1.23.74-1.8.11-.19.09-.43-.06-.59l-1.16-1.3 1.89-1.9 1.31 1.17c.16.14.4.16.58.06.58-.34 1.17-.59 1.81-.75.21-.06.36-.24.37-.46l.1-1.75h2.69l.09 1.75c0 .22.16.4.37.46.64.17 1.25.42 1.81.75.19.1.42.08.59-.06l1.3-1.17 1.9 1.9-1.17 1.3c-.15.16-.17.4-.06.59.33.57.58 1.17.75 1.8.05.21.24.36.45.37l1.75.1v2.69z"/>
    </g>
    <defs>
        <clipPath id="ooqfuiy2xa">
            <path fill="#fff" d="M0 0h24v24H0z"/>
        </clipPath>
    </defs>
</svg>
