<svg width="40" height="40" viewBox="0 0 40 40" fill="none" xmlns="http://www.w3.org/2000/svg">
    <g clip-path="url(#o5tr6xr1va)" fill="#4B4D4D">
        <path d="M20 35.835c-8.733 0-15.833-7.1-15.833-15.834 0-8.733 7.1-15.833 15.833-15.833s15.833 7.1 15.833 15.833c0 8.734-7.1 15.834-15.833 15.834zm0-30c-7.817 0-14.167 6.35-14.167 14.166 0 7.817 6.35 14.167 14.167 14.167s14.167-6.35 14.167-14.167c0-7.816-6.35-14.166-14.167-14.166z"/>
        <path d="M20 24.866a.925.925 0 0 1-.917-.917V10.616c0-.5.417-.917.917-.917s.917.417.917.917v13.333c0 .5-.417.917-.917.917zM20 30.3a.925.925 0 0 1-.917-.917v-1.334c0-.5.417-.916.917-.916s.917.416.917.916v1.334c0 .5-.417.916-.917.916z"/>
    </g>
    <defs>
        <clipPath id="o5tr6xr1va">
            <path fill="#fff" d="M0 0h40v40H0z"/>
        </clipPath>
    </defs>
</svg>
