<svg width="81" height="181" viewBox="0 0 81 182" fill="#f1f1f1" xmlns="http://www.w3.org/2000/svg">
<path d="M0 1H4C4 5.41828 7.58172 9 12 9V173C7.58172 173 4 176.582 4 181H0" stroke="#D1D1D1" stroke-width="0.6"/>
<path fill-rule="evenodd" clip-rule="evenodd" d="M20.5 1C20.5 5.41828 16.6944 9 12 9V173C16.6944 173 20.5 176.582 20.5 181H80V174.992C79.9173 174.997 79.834 175 79.75 175C77.5409 175 75.75 173.209 75.75 171C75.75 168.791 77.5409 167 79.75 167C79.834 167 79.9173 167.003 80 167.008V158.992C79.9173 158.997 79.834 159 79.75 159C77.5409 159 75.75 157.209 75.75 155C75.75 152.791 77.5409 151 79.75 151C79.834 151 79.9173 151.003 80 151.008V142.992C79.9173 142.997 79.834 143 79.75 143C77.5409 143 75.75 141.209 75.75 139C75.75 136.791 77.5409 135 79.75 135C79.834 135 79.9173 135.003 80 135.008V126.992C79.9173 126.997 79.834 127 79.75 127C77.5409 127 75.75 125.209 75.75 123C75.75 120.791 77.5409 119 79.75 119C79.834 119 79.9173 119.003 80 119.008V110.992C79.9173 110.997 79.834 111 79.75 111C77.5409 111 75.75 109.209 75.75 107C75.75 104.791 77.5409 103 79.75 103C79.834 103 79.9173 103.003 80 103.008V94.9923C79.9173 94.9974 79.834 95 79.75 95C77.5409 95 75.75 93.2091 75.75 91C75.75 88.7909 77.5409 87 79.75 87C79.834 87 79.9173 87.0026 80 87.0077V78.9923C79.9173 78.9974 79.834 79 79.75 79C77.5409 79 75.75 77.2091 75.75 75C75.75 72.7909 77.5409 71 79.75 71C79.834 71 79.9173 71.0026 80 71.0077V62.9923C79.9173 62.9974 79.834 63 79.75 63C77.5409 63 75.75 61.2091 75.75 59C75.75 56.7909 77.5409 55 79.75 55C79.834 55 79.9173 55.0026 80 55.0077V46.9923C79.9173 46.9974 79.834 47 79.75 47C77.5409 47 75.75 45.2091 75.75 43C75.75 40.7909 77.5409 39 79.75 39C79.834 39 79.9173 39.0026 80 39.0077V30.9923C79.9173 30.9974 79.834 31 79.75 31C77.5409 31 75.75 29.2091 75.75 27C75.75 24.7909 77.5409 23 79.75 23C79.834 23 79.9173 23.0026 80 23.0077V14.9923C79.9173 14.9974 79.834 15 79.75 15C77.5409 15 75.75 13.2091 75.75 11C75.75 8.79086 77.5409 7 79.75 7C79.834 7 79.9173 7.00259 80 7.00769V1H20.5Z" fill="#f1f1f1"/>
<path d="M12 9V8.7H11.7V9H12ZM20.5 1V0.7H20.2V1H20.5ZM12 173H11.7V173.3H12V173ZM20.5 181H20.2V181.3H20.5V181ZM80 181V181.3H80.3V181H80ZM80 174.992H80.3V174.673L79.9815 174.693L80 174.992ZM80 167.008L79.9815 167.307L80.3 167.327V167.008H80ZM80 158.992H80.3V158.673L79.9815 158.693L80 158.992ZM80 151.008L79.9815 151.307L80.3 151.327V151.008H80ZM80 142.992H80.3V142.673L79.9815 142.693L80 142.992ZM80 135.008L79.9815 135.307L80.3 135.327V135.008H80ZM80 126.992H80.3V126.673L79.9815 126.693L80 126.992ZM80 119.008L79.9815 119.307L80.3 119.327V119.008H80ZM80 110.992H80.3V110.673L79.9815 110.693L80 110.992ZM80 103.008L79.9815 103.307L80.3 103.327V103.008H80ZM80 94.9923H80.3V94.6733L79.9815 94.6929L80 94.9923ZM80 87.0077L79.9815 87.3071L80.3 87.3267V87.0077H80ZM80 78.9923H80.3V78.6733L79.9815 78.6929L80 78.9923ZM80 71.0077L79.9815 71.3071L80.3 71.3267V71.0077H80ZM80 62.9923H80.3V62.6732L79.9815 62.6929L80 62.9923ZM80 55.0077L79.9815 55.3071L80.3 55.3268V55.0077H80ZM80 46.9923H80.3V46.6732L79.9815 46.6929L80 46.9923ZM80 39.0077L79.9815 39.3071L80.3 39.3268V39.0077H80ZM80 30.9923H80.3V30.6732L79.9815 30.6929L80 30.9923ZM80 23.0077L79.9815 23.3071L80.3 23.3268V23.0077H80ZM80 14.9923H80.3V14.6732L79.9815 14.6929L80 14.9923ZM80 7.00769L79.9815 7.30712L80.3 7.32675V7.00769H80ZM80 1H80.3V0.7H80V1ZM12 9.3C16.8427 9.3 20.8 5.60084 20.8 1H20.2C20.2 5.23572 16.5461 8.7 12 8.7V9.3ZM12.3 173V9H11.7V173H12.3ZM20.8 181C20.8 176.399 16.8427 172.7 12 172.7V173.3C16.5461 173.3 20.2 176.764 20.2 181H20.8ZM80 180.7H20.5V181.3H80V180.7ZM79.7 174.992V181H80.3V174.992H79.7ZM79.9815 174.693C79.905 174.698 79.8278 174.7 79.75 174.7V175.3C79.8401 175.3 79.9297 175.297 80.0185 175.292L79.9815 174.693ZM79.75 174.7C77.7066 174.7 76.05 173.043 76.05 171H75.45C75.45 173.375 77.3752 175.3 79.75 175.3V174.7ZM76.05 171C76.05 168.957 77.7066 167.3 79.75 167.3V166.7C77.3752 166.7 75.45 168.625 75.45 171H76.05ZM79.75 167.3C79.8278 167.3 79.905 167.302 79.9815 167.307L80.0185 166.708C79.9297 166.703 79.8401 166.7 79.75 166.7V167.3ZM79.7 158.992V167.008H80.3V158.992H79.7ZM79.75 159.3C79.8401 159.3 79.9297 159.297 80.0185 159.292L79.9815 158.693C79.905 158.698 79.8278 158.7 79.75 158.7V159.3ZM75.45 155C75.45 157.375 77.3752 159.3 79.75 159.3V158.7C77.7066 158.7 76.05 157.043 76.05 155H75.45ZM79.75 150.7C77.3752 150.7 75.45 152.625 75.45 155H76.05C76.05 152.957 77.7066 151.3 79.75 151.3V150.7ZM80.0185 150.708C79.9297 150.703 79.8401 150.7 79.75 150.7V151.3C79.8278 151.3 79.905 151.302 79.9815 151.307L80.0185 150.708ZM79.7 142.992V151.008H80.3V142.992H79.7ZM79.75 143.3C79.8401 143.3 79.9297 143.297 80.0185 143.292L79.9815 142.693C79.905 142.698 79.8278 142.7 79.75 142.7V143.3ZM75.45 139C75.45 141.375 77.3752 143.3 79.75 143.3V142.7C77.7066 142.7 76.05 141.043 76.05 139H75.45ZM79.75 134.7C77.3752 134.7 75.45 136.625 75.45 139H76.05C76.05 136.957 77.7066 135.3 79.75 135.3V134.7ZM80.0185 134.708C79.9297 134.703 79.8401 134.7 79.75 134.7V135.3C79.8278 135.3 79.905 135.302 79.9815 135.307L80.0185 134.708ZM79.7 126.992V135.008H80.3V126.992H79.7ZM79.75 127.3C79.8401 127.3 79.9296 127.297 80.0185 127.292L79.9815 126.693C79.905 126.698 79.8278 126.7 79.75 126.7V127.3ZM75.45 123C75.45 125.375 77.3752 127.3 79.75 127.3V126.7C77.7066 126.7 76.05 125.043 76.05 123H75.45ZM79.75 118.7C77.3752 118.7 75.45 120.625 75.45 123H76.05C76.05 120.957 77.7066 119.3 79.75 119.3V118.7ZM80.0185 118.708C79.9296 118.703 79.8401 118.7 79.75 118.7V119.3C79.8278 119.3 79.905 119.302 79.9815 119.307L80.0185 118.708ZM79.7 110.992V119.008H80.3V110.992H79.7ZM79.75 111.3C79.8401 111.3 79.9296 111.297 80.0185 111.292L79.9815 110.693C79.905 110.698 79.8278 110.7 79.75 110.7V111.3ZM75.45 107C75.45 109.375 77.3752 111.3 79.75 111.3V110.7C77.7066 110.7 76.05 109.043 76.05 107H75.45ZM79.75 102.7C77.3752 102.7 75.45 104.625 75.45 107H76.05C76.05 104.957 77.7066 103.3 79.75 103.3V102.7ZM80.0185 102.708C79.9296 102.703 79.8401 102.7 79.75 102.7V103.3C79.8278 103.3 79.905 103.302 79.9815 103.307L80.0185 102.708ZM79.7 94.9923V103.008H80.3V94.9923H79.7ZM79.75 95.3C79.8401 95.3 79.9296 95.2972 80.0185 95.2917L79.9815 94.6929C79.905 94.6976 79.8278 94.7 79.75 94.7V95.3ZM75.45 91C75.45 93.3748 77.3752 95.3 79.75 95.3V94.7C77.7066 94.7 76.05 93.0434 76.05 91H75.45ZM79.75 86.7C77.3752 86.7 75.45 88.6252 75.45 91H76.05C76.05 88.9566 77.7066 87.3 79.75 87.3V86.7ZM80.0185 86.7083C79.9296 86.7028 79.8401 86.7 79.75 86.7V87.3C79.8278 87.3 79.905 87.3024 79.9815 87.3071L80.0185 86.7083ZM79.7 78.9923V87.0077H80.3V78.9923H79.7ZM79.75 79.3C79.8401 79.3 79.9296 79.2972 80.0185 79.2917L79.9815 78.6929C79.905 78.6976 79.8278 78.7 79.75 78.7V79.3ZM75.45 75C75.45 77.3748 77.3752 79.3 79.75 79.3V78.7C77.7066 78.7 76.05 77.0434 76.05 75H75.45ZM79.75 70.7C77.3752 70.7 75.45 72.6252 75.45 75H76.05C76.05 72.9566 77.7066 71.3 79.75 71.3V70.7ZM80.0185 70.7083C79.9296 70.7028 79.8401 70.7 79.75 70.7V71.3C79.8278 71.3 79.905 71.3024 79.9815 71.3071L80.0185 70.7083ZM79.7 62.9923V71.0077H80.3V62.9923H79.7ZM79.75 63.3C79.8401 63.3 79.9296 63.2972 80.0185 63.2917L79.9815 62.6929C79.905 62.6976 79.8278 62.7 79.75 62.7V63.3ZM75.45 59C75.45 61.3748 77.3752 63.3 79.75 63.3V62.7C77.7066 62.7 76.05 61.0435 76.05 59H75.45ZM79.75 54.7C77.3752 54.7 75.45 56.6252 75.45 59H76.05C76.05 56.9565 77.7066 55.3 79.75 55.3V54.7ZM80.0185 54.7083C79.9296 54.7028 79.8401 54.7 79.75 54.7V55.3C79.8278 55.3 79.905 55.3024 79.9815 55.3071L80.0185 54.7083ZM79.7 46.9923V55.0077H80.3V46.9923H79.7ZM79.75 47.3C79.8401 47.3 79.9296 47.2972 80.0185 47.2917L79.9815 46.6929C79.905 46.6976 79.8278 46.7 79.75 46.7V47.3ZM75.45 43C75.45 45.3748 77.3752 47.3 79.75 47.3V46.7C77.7066 46.7 76.05 45.0435 76.05 43H75.45ZM79.75 38.7C77.3752 38.7 75.45 40.6252 75.45 43H76.05C76.05 40.9565 77.7066 39.3 79.75 39.3V38.7ZM80.0185 38.7083C79.9296 38.7028 79.8401 38.7 79.75 38.7V39.3C79.8278 39.3 79.905 39.3024 79.9815 39.3071L80.0185 38.7083ZM79.7 30.9923V39.0077H80.3V30.9923H79.7ZM79.75 31.3C79.8401 31.3 79.9296 31.2972 80.0185 31.2917L79.9815 30.6929C79.905 30.6976 79.8278 30.7 79.75 30.7V31.3ZM75.45 27C75.45 29.3748 77.3752 31.3 79.75 31.3V30.7C77.7066 30.7 76.05 29.0435 76.05 27H75.45ZM79.75 22.7C77.3752 22.7 75.45 24.6252 75.45 27H76.05C76.05 24.9565 77.7066 23.3 79.75 23.3V22.7ZM80.0185 22.7083C79.9296 22.7028 79.8401 22.7 79.75 22.7V23.3C79.8278 23.3 79.905 23.3024 79.9815 23.3071L80.0185 22.7083ZM79.7 14.9923V23.0077H80.3V14.9923H79.7ZM79.75 15.3C79.8401 15.3 79.9296 15.2972 80.0185 15.2917L79.9815 14.6929C79.905 14.6976 79.8278 14.7 79.75 14.7V15.3ZM75.45 11C75.45 13.3748 77.3752 15.3 79.75 15.3V14.7C77.7066 14.7 76.05 13.0435 76.05 11H75.45ZM79.75 6.7C77.3752 6.7 75.45 8.62518 75.45 11H76.05C76.05 8.95655 77.7066 7.3 79.75 7.3V6.7ZM80.0185 6.70825C79.9296 6.70278 79.8401 6.7 79.75 6.7V7.3C79.8278 7.3 79.905 7.3024 79.9815 7.30712L80.0185 6.70825ZM79.7 1V7.00769H80.3V1H79.7ZM20.5 1.3H80V0.7H20.5V1.3Z" fill="#d1d1d1"/>
</svg>
