<svg width="24" height="24" viewBox="0 0 24 24" fill="none" xmlns="http://www.w3.org/2000/svg">
<g id="24/ Nav bar_store">
<g id="Group 13999">
<path id="Subtract" fill-rule="evenodd" clip-rule="evenodd" d="M2 13.4205V20.5C2 21.0523 2.44772 21.5 3 21.5H21C21.5523 21.5 22 21.0523 22 20.5V13.4053C21.6843 13.6079 21.3314 13.7366 21 13.8118V20.5H3V13.8304C2.59444 13.7498 2.26527 13.6041 2 13.4205Z" fill="#262627"/>
<path id="Rectangle 7320" d="M18.4928 12.73C18.1446 12.352 18 11.881 18 11.525C18 11.2489 17.7761 11.025 17.5 11.025C17.2239 11.025 17 11.2489 17 11.525C17 12.2791 16.6517 12.7225 16.2047 13.0004C15.731 13.295 15.1417 13.4 14.75 13.4C13.7661 13.4 13.2277 13.0866 12.9275 12.7409C12.6143 12.3802 12.5 11.9146 12.5 11.525C12.5 11.2489 12.2761 11.025 12 11.025C11.7239 11.025 11.5 11.2489 11.5 11.525C11.5 12.2791 11.1517 12.7225 10.7047 13.0004C10.231 13.295 9.64172 13.4 9.25 13.4C8.3796 13.4 7.82894 13.095 7.49277 12.73C7.14457 12.352 7 11.881 7 11.525C7 11.2489 6.77614 11.025 6.5 11.025C6.22386 11.025 6 11.2489 6 11.525C6 12.2791 5.65167 12.7225 5.20472 13.0004C4.73103 13.295 4.14172 13.4 3.75 13.4C2.78424 13.4 2.24286 13.0596 1.93404 12.6892C1.60868 12.2989 1.5 11.8244 1.5 11.525V8.30483L3.69546 3.29917C3.77519 3.1174 3.95488 3 4.15336 3H19.8466C20.0451 3 20.2248 3.1174 20.3045 3.29917L22.5 8.30483V11.525C22.5 12.2791 22.1517 12.7225 21.7047 13.0004C21.231 13.295 20.6417 13.4 20.25 13.4C19.3796 13.4 18.8289 13.095 18.4928 12.73Z" stroke="#262627" stroke-linejoin="round"/>
<rect id="Rectangle 7316" x="8.5" y="16.3" width="7" height="4.7" rx="0.5" stroke="#262627"/>
<path id="Vector 434" d="M2 8.19995H18.5" stroke="#262627" stroke-linecap="round"/>
</g>
</g>
</svg>
