<svg width="32" height="24" viewBox="0 0 32 24" fill="none" xmlns="http://www.w3.org/2000/svg">
<g id="Frame 68402705">
<g id="Group 14147">
<g id="Group">
<path id="Vector" d="M7.00994 20.2125C8.5394 20.2125 9.77928 18.9726 9.77928 17.4432C9.77928 15.9137 8.5394 14.6738 7.00994 14.6738C5.48048 14.6738 4.2406 15.9137 4.2406 17.4432C4.2406 18.9726 5.48048 20.2125 7.00994 20.2125Z" stroke="#262627" stroke-linecap="round" stroke-linejoin="round"/>
<path id="Vector_2" d="M23.846 20.2125C25.3755 20.2125 26.6153 18.9726 26.6153 17.4432C26.6153 15.9137 25.3755 14.6738 23.846 14.6738C22.3165 14.6738 21.0767 15.9137 21.0767 17.4432C21.0767 18.9726 22.3165 20.2125 23.846 20.2125Z" stroke="#262627" stroke-linecap="round" stroke-linejoin="round"/>
<path id="Vector_3" d="M26.6155 17.4431H28.4807C29.3199 17.4431 30 16.763 30 15.9238V12.5009C30 11.6617 29.3199 10.9816 28.4807 10.9816C28.4807 10.9816 24.6058 10.3664 23.2791 10.1158C21.9524 9.86623 19.3845 6.00017 17.25 6.00017C15.1155 6.00017 13.9618 6.03653 10.3267 6.00017C6.98049 5.96774 5.71964 10.6446 2.82648 10.9816C2.82648 10.9816 2 11.6617 2 12.5009V15.9238C2 16.763 2.68005 17.4431 3.5193 17.4431H4.15415" stroke="#262627" stroke-linecap="round" stroke-linejoin="round"/>
<path id="Vector_4" d="M9.95227 17.4431H20.6532" stroke="#262627" stroke-linecap="round" stroke-linejoin="round"/>
<path id="Vector_5" d="M21.1436 10.3281H7.26941" stroke="#262627" stroke-linecap="round" stroke-linejoin="round"/>
<path id="Vector_6" d="M11.8263 7.21289L12.5771 10.2132" stroke="#262627" stroke-linecap="round" stroke-linejoin="round"/>
<path id="Vector_7" d="M13.8458 11.8279H15.2305" stroke="#262627" stroke-linecap="round" stroke-linejoin="round"/>
<path id="Vector_8" d="M29.8841 13.1554L28.6154 12.9824" stroke="#262627" stroke-linecap="round" stroke-linejoin="round"/>
</g>
</g>
</g>
</svg>
