<svg width="24" height="24" viewBox="0 0 24 24" fill="none" xmlns="http://www.w3.org/2000/svg">
<g id="48/ coffee">
<g id="Group 14149">
<g id="Mask group">
<mask id="mask0_8481_44099" style="mask-type:alpha" maskUnits="userSpaceOnUse" x="0" y="0" width="24" height="13">
<path id="Union" d="M10 2L9 13H0V0H24V13L22 13L15 13L14 2H10Z" fill="#D9D9D9"/>
</mask>
<g mask="url(#mask0_8481_44099)">
<g id="Group 14148">
<g id="Group 13983">
<path id="Subtract" fill-rule="evenodd" clip-rule="evenodd" d="M1.82141 9.24243L2.42168 17.4067C2.4601 17.9291 2.89516 18.3334 3.41899 18.3334H9.58148C10.1053 18.3334 10.5404 17.9291 10.5788 17.4067L11.1791 9.24243H10.1764L9.58148 17.3334L3.41899 17.3334L2.82411 9.24243H1.82141Z" fill="#262627"/>
<path id="Rectangle 7311" d="M2.37498 6.71212H2.80046L2.86854 6.29211L2.99692 5.5H10.0031L10.1314 6.29209L10.1995 6.71212H10.625H11.5V9.34848L1.5 9.34848L1.50002 6.71212H2.37498Z" stroke="#262627"/>
</g>
<g id="Group 13984">
<path id="Subtract_2" fill-rule="evenodd" clip-rule="evenodd" d="M12.8214 9.24243L13.4217 17.4067C13.4601 17.9291 13.8952 18.3334 14.419 18.3334H20.5815C21.1053 18.3334 21.5404 17.9291 21.5788 17.4067L22.1791 9.24243H21.1764L20.5815 17.3334L14.419 17.3334L13.8241 9.24243H12.8214Z" fill="#262627"/>
<path id="Rectangle 7311_2" d="M13.375 6.71212H13.8005L13.8685 6.29211L13.9969 5.5H21.0031L21.1314 6.29209L21.1995 6.71212H21.625H22.5V9.34848L12.5 9.34848L12.5 6.71212H13.375Z" stroke="#262627"/>
</g>
</g>
</g>
</g>
<g id="Subtract_3">
<mask id="path-6-inside-1_8481_44099" fill="white">
<path fill-rule="evenodd" clip-rule="evenodd" d="M10.895 2C10.3855 2 9.95743 2.38313 9.90116 2.88957L8.77778 13H2C1.44772 13 1 13.4477 1 14V20C1 20.5523 1.44772 21 2 21H22C22.5523 21 23 20.5523 23 20V14C23 13.4477 22.5523 13 22 13H15.2222L14.0988 2.88957C14.0426 2.38314 13.6145 2 13.105 2H10.895Z"/>
</mask>
<path d="M9.90116 2.88957L8.90728 2.77914V2.77914L9.90116 2.88957ZM8.77778 13V14H9.67282L9.77166 13.1104L8.77778 13ZM15.2222 13L14.2283 13.1104L14.3272 14H15.2222V13ZM14.0988 2.88957L13.105 3V3L14.0988 2.88957ZM10.895 3L10.895 3V1C9.87594 1 9.01982 1.76627 8.90728 2.77914L10.895 3ZM9.77166 13.1104L10.895 3L8.90728 2.77914L7.78389 12.8896L9.77166 13.1104ZM2 14H8.77778V12H2V14ZM2 14V12C0.895431 12 0 12.8954 0 14H2ZM2 20V14H0V20H2ZM2 20H0C0 21.1046 0.89543 22 2 22V20ZM22 20H2V22H22V20ZM22 20V20V22C23.1046 22 24 21.1046 24 20H22ZM22 14V20H24V14H22ZM22 14H24C24 12.8954 23.1046 12 22 12V14ZM15.2222 14H22V12H15.2222V14ZM13.105 3L14.2283 13.1104L16.2161 12.8896L15.0927 2.77914L13.105 3ZM13.105 3L13.105 3L15.0927 2.77914C14.9802 1.76627 14.1241 1 13.105 1V3ZM10.895 3H13.105V1H10.895V3Z" fill="#262627" mask="url(#path-6-inside-1_8481_44099)"/>
</g>
</g>
</g>
</svg>
