<svg width="36" height="46" viewBox="0 0 36 46" fill="none" xmlns="http://www.w3.org/2000/svg">
    <g opacity=".4" filter="url(#js6izenfba)">
        <ellipse cx="18" cy="40" rx="6" ry="2" fill="#262627"/>
    </g>
    <path fill-rule="evenodd" clip-rule="evenodd" d="M21.314 35.696C29.672 34.14 36 26.809 36 18c0-9.941-8.059-18-18-18S0 8.059 0 18c0 8.81 6.328 16.14 14.687 17.696l2.917 3.79a.5.5 0 0 0 .792 0l2.918-3.79z" fill="#262627"/>
    <path d="M25.681 11.39H23.67c-.016 0-.03.003-.045.004l-1.561-1.561a.574.574 0 1 0-.813.813l1.18 1.18a2.001 2.001 0 0 0-.774 1.576c0 .73.395 1.364.978 1.717.155.823.808 5.145-2.181 7.102a.647.647 0 0 1-.352.093h-2.629a2.584 2.584 0 0 0-2.429-1.725 2.584 2.584 0 0 0-2.428 1.725h-.482c-.47-.551-1.623-2.236-.006-4.025h5.858c.358.35 1.238 1.376.806 2.697a.575.575 0 1 0 1.093.357c.774-2.37-1.233-4.01-1.32-4.078a.574.574 0 0 0-.358-.126h-1.15v-.575a.575.575 0 0 0-1.15 0v.575h-4.6v-3.45h.862v1.15c0 .318.258.575.575.575h1.725a.575.575 0 0 0 .575-.575v-1.15h.863v1.15a.575.575 0 0 0 1.15 0v-1.725a.575.575 0 0 0-.575-.575h-5.75a.575.575 0 0 0-.575.575v4.6c0 .31.245.558.55.57-1.237 2.069-.126 4.118.768 5.012a.576.576 0 0 0 .407.169h.604a2.582 2.582 0 0 0 2.558 2.3 2.581 2.581 0 0 0 2.559-2.3H20.1c.36 0 .699-.098.98-.282a2.59 2.59 0 0 0 2.588 2.582 2.59 2.59 0 0 0 2.587-2.588 2.59 2.59 0 0 0-2.587-2.588c-.145 0-.284.02-.422.043.886-1.948.756-4.122.602-5.218h1.832a.575.575 0 0 0 .575-.575v-2.875a.575.575 0 0 0-.575-.575zm-11.788 2.3v.574h-.575v-.575h.575zm1.15 10.924a1.44 1.44 0 0 1-1.437-1.437 1.44 1.44 0 0 1 1.438-1.438 1.44 1.44 0 0 1 1.437 1.438 1.44 1.44 0 0 1-1.438 1.437zm10.063-1.437a1.44 1.44 0 0 1-1.437 1.437 1.44 1.44 0 0 1-1.438-1.437 1.44 1.44 0 0 1 1.438-1.438 1.44 1.44 0 0 1 1.437 1.438zm0-8.913H23.67a.864.864 0 0 1 0-1.725h1.437v1.725z" fill="#E9EAEB"/>
    <defs>
        <filter id="js6izenfba" x="8" y="34" width="20" height="12" filterUnits="userSpaceOnUse" color-interpolation-filters="sRGB">
            <feFlood flood-opacity="0" result="BackgroundImageFix"/>
            <feColorMatrix in="SourceAlpha" values="0 0 0 0 0 0 0 0 0 0 0 0 0 0 0 0 0 0 127 0" result="hardAlpha"/>
            <feOffset/>
            <feGaussianBlur stdDeviation="2"/>
            <feComposite in2="hardAlpha" operator="out"/>
            <feColorMatrix values="0 0 0 0 0.196078 0 0 0 0 0.196078 0 0 0 0 0.196078 0 0 0 1 0"/>
            <feBlend in2="BackgroundImageFix" result="effect1_dropShadow_951_20375"/>
            <feBlend in="SourceGraphic" in2="effect1_dropShadow_951_20375" result="shape"/>
        </filter>
    </defs>
</svg>
