<svg width="40" height="40" viewBox="0 0 40 40" fill="none" xmlns="http://www.w3.org/2000/svg">
    <rect width="40" height="40" rx="20" fill="#323334"/>
    <path d="M29.217 12.07h-2.415c-.018 0-.035.005-.053.006l-1.874-1.874a.69.69 0 1 0-.976.976l1.418 1.417a2.402 2.402 0 0 0-.93 1.89c0 .877.474 1.638 1.174 2.06.186.989.969 6.175-2.618 8.523a.777.777 0 0 1-.422.112h-3.154a3.1 3.1 0 0 0-2.915-2.07 3.101 3.101 0 0 0-2.915 2.07h-.577c-.565-.661-1.948-2.683-.008-4.83h7.03c.43.42 1.485 1.652.968 3.236a.69.69 0 0 0 1.311.428c.928-2.843-1.48-4.81-1.583-4.892a.688.688 0 0 0-.43-.152h-1.38v-.69a.69.69 0 0 0-1.381 0v.69h-5.52v-4.14h1.035v1.38c0 .381.31.69.69.69h2.07c.38 0 .69-.309.69-.69v-1.38h1.035v1.38a.69.69 0 0 0 1.38 0v-2.07a.69.69 0 0 0-.69-.69h-6.9a.69.69 0 0 0-.69.69v5.52c0 .372.295.67.661.685-1.485 2.481-.152 4.94.92 6.013.13.13.306.203.489.203h.725c.174 1.548 1.476 2.76 3.07 2.76 1.594 0 2.896-1.212 3.07-2.76h2.999c.432 0 .839-.117 1.176-.338a3.109 3.109 0 0 0 3.105 3.098 3.109 3.109 0 0 0 3.105-3.106 3.109 3.109 0 0 0-3.105-3.105c-.173 0-.34.024-.506.052 1.064-2.338.907-4.947.723-6.262h2.198c.381 0 .69-.309.69-.69v-3.45a.69.69 0 0 0-.69-.69zm-14.145 2.76v.69h-.69v-.69h.69zm1.38 13.11c-.95 0-1.725-.774-1.725-1.725 0-.95.774-1.725 1.725-1.725.951 0 1.725.775 1.725 1.725 0 .951-.774 1.726-1.725 1.726zm12.075-1.725c0 .951-.774 1.726-1.725 1.726-.95 0-1.725-.775-1.725-1.726 0-.95.775-1.725 1.725-1.725.951 0 1.725.775 1.725 1.725zm0-10.695h-1.725a1.036 1.036 0 0 1 0-2.07h1.725v2.07z" fill="#E9EAEB"/>
</svg>
