<svg width="44" height="44" viewBox="0 0 44 44" fill="none" xmlns="http://www.w3.org/2000/svg">
<mask id="mask0_2585_3295" style="mask-type:alpha" maskUnits="userSpaceOnUse" x="0" y="0" width="44" height="44">
<path fill-rule="evenodd" clip-rule="evenodd" d="M21.9999 38.5C31.1126 38.5 38.5 31.1127 38.5 22C38.5 12.8873 31.1126 5.50002 21.9999 5.50002C12.8872 5.50002 5.49984 12.8873 5.49984 22C5.49984 31.1127 12.8872 38.5 21.9999 38.5ZM21.9999 40.3334C32.1252 40.3334 40.3333 32.1252 40.3333 22C40.3333 11.8748 32.1252 3.66669 21.9999 3.66669C11.8746 3.66669 3.6665 11.8748 3.6665 22C3.6665 32.1252 11.8746 40.3334 21.9999 40.3334Z" fill="black"/>
<path d="M21.0832 31.2686C21.0832 30.7624 21.4936 30.352 21.9998 30.352C22.5061 30.352 22.9165 30.7624 22.9165 31.2686C22.9165 31.7749 22.5061 32.1853 21.9998 32.1853C21.4936 32.1853 21.0832 31.7749 21.0832 31.2686Z" fill="black"/>
<path fill-rule="evenodd" clip-rule="evenodd" d="M21.0832 25.2593L21.0832 11L22.9165 11L22.9165 25.2593L21.0832 25.2593Z" fill="black"/>
</mask>
<g mask="url(#mask0_2585_3295)">
<rect width="44" height="44" fill="black" fill-opacity="0.5"/>
</g>
</svg>
