<svg width="46" height="46" viewBox="0 0 46 46" fill="none" xmlns="http://www.w3.org/2000/svg">
    <g clip-path="url(#kf75t84hla)">
        <path d="M41.853 16.275 38.293 5.93C37.935 4.776 36.903 4 35.743 4H10.278c-1.158 0-2.19.776-2.528 1.91L4.906 13.84l-.759 2.413a2.999 2.999 0 0 0-.147.902v4.05c0 1.888 1.411 3.525 3.35 4.07v13.598c0 1.72 1.41 3.126 3.159 3.126h25.003a3.14 3.14 0 0 0 3.139-3.127V25.277C40.589 24.73 42 23.094 42 21.206v-4.05c0-.335-.042-.63-.147-.881zM19.44 39.902v-8.393h7.12v8.393h-7.12zm16.072 0h-6.846v-8.708c0-.986-.8-1.784-1.79-1.784h-7.752c-.99 0-1.79.798-1.79 1.784v8.708h-6.825c-.59 0-1.053-.462-1.053-1.029V25.488h.779c1.538 0 2.907-.63 3.792-1.658a4.784 4.784 0 0 0 3.644 1.657h1.727c1.453 0 2.76-.65 3.602-1.636a4.838 4.838 0 0 0 3.644 1.636h1.727a4.71 4.71 0 0 0 3.602-1.636c.885.986 2.254 1.636 3.792 1.636h.78v13.387c0 .567-.464 1.029-1.033 1.029zm4.382-18.696c0 .755-.485 1.427-1.243 1.826-.422.23-.948.356-1.496.356h-1.39c-1.517 0-2.738-.986-2.738-2.329 0-.587-.464-1.05-1.054-1.05-.59 0-1.053.463-1.053 1.05 0 1.28-1.137 2.33-2.549 2.33h-1.727c-1.432 0-2.59-1.05-2.59-2.33 0-.587-.464-1.05-1.054-1.05-.59 0-1.053.463-1.053 1.05 0 1.28-1.138 2.33-2.549 2.33h-1.727c-1.433 0-2.591-1.05-2.591-2.33 0-.587-.464-1.05-1.053-1.05-.59 0-1.054.463-1.054 1.05v.147c0 1.196-1.221 2.182-2.738 2.182h-1.39c-.548 0-1.074-.126-1.496-.378-.758-.377-1.243-1.049-1.243-1.804v-3.168h30.06c.126 0 .252-.021.378-.063.4-.168.674-.546.674-.987a1.04 1.04 0 0 0-.758-1.007 1.247 1.247 0 0 0-.295-.042H6.485l3.266-9.38c.084-.272.295-.46.526-.46h25.467c.232 0 .463.188.548.503l2.801 7.868.78 2.476s.02.126.02.21v4.05z" fill="#F0F1F3"/>
    </g>
    <defs>
        <clipPath id="kf75t84hla">
            <path fill="#fff" d="M0 0h46v46H0z"/>
        </clipPath>
    </defs>
</svg>
