<svg width="24" height="24" viewBox="0 0 24 24" fill="none" xmlns="http://www.w3.org/2000/svg">
    <g clip-path="url(#7p102hnffa)">
        <g clip-path="url(#0kta5zuypb)">
            <path d="M19.35 4.91h-.87L17.37 1.8a.496.496 0 0 0-.47-.33H7.1c-.21 0-.4.13-.47.33l-1.1 3.11h-.88c-.28 0-.5.22-.5.5V8.1c0 .28.22.5.5.5h.83L6.6 22.07c.02.26.24.46.5.46h9.8c.26 0 .48-.2.5-.46L18.53 8.6h.82c.28 0 .5-.22.5-.5V5.41c0-.28-.22-.5-.5-.5zm-2.37 10.24H7.03l-.34-4.12h10.64l-.35 4.12zm-9.42 6.38-.45-5.38h9.78l-.45 5.38H7.56zm9.84-11.5H6.6L6.48 8.6h11.04l-.12 1.43zm1.45-2.43H5.15V5.91h.73c.21 0 .4-.13.47-.33l1.1-3.11h9.09l.87 2.44H9.04c-.28 0-.5.22-.5.5s.22.5.5.5h9.8V7.6h.01z" fill="#F2F2F2"/>
        </g>
        <circle cx="19" cy="17" r="5" fill="#F2F2F2"/>
        <path d="m16 17 2.4 2 3.6-3" stroke="#4B4D4D" stroke-linecap="round" stroke-linejoin="round"/>
    </g>
    <defs>
        <clipPath id="7p102hnffa">
            <path fill="#fff" d="M0 0h24v24H0z"/>
        </clipPath>
        <clipPath id="0kta5zuypb">
            <path fill="#fff" d="M0 0h24v24H0z"/>
        </clipPath>
    </defs>
</svg>
