<svg width="29" height="28" viewBox="0 0 29 28" fill="none" xmlns="http://www.w3.org/2000/svg">
<mask id="mask0_3105_14602" style="mask-type:alpha" maskUnits="userSpaceOnUse" x="0" y="0" width="29" height="28">
<path fill-rule="evenodd" clip-rule="evenodd" d="M3.89428 22.167C3.85602 22.3555 3.83594 22.5506 3.83594 22.7503C3.83594 24.3612 5.14178 25.667 6.75262 25.667C8.36345 25.667 9.66929 24.3612 9.66929 22.7503C9.66929 22.5506 9.64921 22.3555 9.61095 22.167H8.57891C8.63761 22.3509 8.66929 22.5469 8.66929 22.7503C8.66929 23.8089 7.81117 24.667 6.75262 24.667C5.69406 24.667 4.83594 23.8089 4.83594 22.7503C4.83594 22.5469 4.86762 22.3509 4.92632 22.167H3.89428Z" fill="black"/>
<path d="M10.3095 22.1335H3.19315C3.40815 20.0184 4.97053 18.4668 6.75132 18.4668C8.5321 18.4668 10.0945 20.0184 10.3095 22.1335Z" stroke="black"/>
<path d="M25.4755 22.1335H18.3592C18.5742 20.0184 20.1365 18.4668 21.9173 18.4668C23.6981 18.4668 25.2605 20.0184 25.4755 22.1335Z" stroke="black"/>
<path fill-rule="evenodd" clip-rule="evenodd" d="M19.0603 22.167C19.022 22.3555 19.002 22.5506 19.002 22.7503C19.002 24.3612 20.3078 25.667 21.9186 25.667C23.5295 25.667 24.8353 24.3612 24.8353 22.7503C24.8353 22.5506 24.8152 22.3555 24.777 22.167H23.7449C23.8036 22.3509 23.8353 22.5469 23.8353 22.7503C23.8353 23.8089 22.9772 24.667 21.9186 24.667C20.8601 24.667 20.002 23.8089 20.002 22.7503C20.002 22.5469 20.0336 22.3509 20.0923 22.167H19.0603Z" fill="black"/>
<path d="M5.00125 19.2497V16.833C5.00125 14.6239 6.79211 12.833 9.00125 12.833H9.77627C10.3286 12.833 10.7763 13.2807 10.7763 13.833V15.333C10.7763 15.8853 11.224 16.333 11.7763 16.333H17.418C17.9703 16.333 18.418 15.8853 18.418 15.333V9.33301" stroke="black"/>
<line x1="9.66797" y1="21.667" x2="19.0013" y2="21.667" stroke="black"/>
<path d="M14.334 3.5H17.2507L18.4173 5.83333" stroke="black"/>
<path d="M18.418 5.83301H22.5013C23.79 5.83301 24.8347 6.87768 24.8347 8.16634V8.16634C24.8347 9.45501 23.79 10.4997 22.5013 10.4997H18.418V5.83301Z" stroke="black"/>
<path d="M22.5011 10.5L23.668 14V19.25" stroke="black"/>
</mask>
<g mask="url(#mask0_3105_14602)">
<rect x="0.333984" width="28" height="28" fill="black" fill-opacity="0.15"/>
</g>
</svg>
