<svg width="36" height="36" viewBox="0 0 36 36" fill="none" xmlns="http://www.w3.org/2000/svg">
<g id="36/ star">
<path id="Star 4" d="M17.1033 3.81698C17.4701 3.07374 18.5299 3.07374 18.8967 3.81699L22.4696 11.0564C22.6153 11.3516 22.8968 11.5561 23.2225 11.6035L31.2117 12.7644C32.032 12.8835 32.3595 13.8915 31.766 14.4701L25.9849 20.1052C25.7492 20.3349 25.6417 20.6659 25.6973 20.9903L27.062 28.9472C27.2022 29.7641 26.3447 30.3871 25.6111 30.0014L18.4653 26.2446C18.174 26.0915 17.826 26.0915 17.5347 26.2446L10.3889 30.0014C9.65528 30.3871 8.79785 29.7641 8.93796 28.9472L10.3027 20.9903C10.3583 20.6659 10.2508 20.3349 10.0151 20.1052L4.23404 14.4701C3.64053 13.8915 3.96804 12.8835 4.78826 12.7644L12.7775 11.6035C13.1032 11.5561 13.3847 11.3516 13.5304 11.0564L17.1033 3.81698Z" fill="#FFD644"/>
</g>
</svg>
