<!--<svg xmlns="http://www.w3.org/2000/svg" width="30" height="30" viewBox="0 0 30 30" fill="none">-->
<!--  <path d="M20.5527 2.39415L3.32006 19.6267C3.30904 19.6377 3.29809 19.6486 3.28722 19.6595C3.12475 19.8216 2.98093 19.9651 2.87956 20.1442L3.31172 20.3888L2.87956 20.1442C2.7782 20.3232 2.72912 20.5204 2.67369 20.7431C2.66998 20.758 2.66625 20.773 2.66247 20.7881L0.883547 27.9038L0.876862 27.9305C0.83762 28.0872 0.795711 28.2545 0.781964 28.395C0.766827 28.5498 0.770355 28.8108 0.979765 29.0202C1.18918 29.2296 1.45023 29.2332 1.60496 29.218C1.74549 29.2043 1.91281 29.1624 2.06949 29.1231L2.09622 29.1165L9.21192 27.3375C9.22703 27.3338 9.24202 27.33 9.2569 27.3263C9.47965 27.2709 9.67683 27.2218 9.85588 27.1204C10.0349 27.0191 10.1784 26.8753 10.3405 26.7128C10.3514 26.7019 10.3623 26.691 10.3733 26.68L10.3733 26.68L27.6059 9.44742L27.6292 9.42415C27.9426 9.11075 28.2127 8.84071 28.3999 8.59538C28.6005 8.33246 28.7524 8.04004 28.7524 7.67965C28.7524 7.31926 28.6005 7.02684 28.3999 6.76392C28.2127 6.51859 27.9426 6.24855 27.6292 5.93514L27.6059 5.91188L24.0882 2.39415L24.0649 2.37087C23.7515 2.05743 23.4815 1.78737 23.2362 1.60019C22.9732 1.39959 22.6808 1.24771 22.3204 1.24771C21.96 1.24771 21.6676 1.39959 21.4047 1.60019C21.1594 1.78737 20.8893 2.05744 20.5759 2.37087L20.5527 2.39415Z" stroke="black" stroke-opacity="0.5"/>-->
<!--  <path d="M17.6665 5L24.9999 12.3333" stroke="black" stroke-opacity="0.5"/>-->
<!--</svg>-->

<svg xmlns="http://www.w3.org/2000/svg" xmlns:xlink="http://www.w3.org/1999/xlink"
     width="30" height="30" viewBox="0 0 30 30">
  <style type="text/css">
    .st0 { fill: none; stroke: #000000; stroke-opacity: 0.5; }
  </style>
  <path class="st0" d="M10.4,26.7"/>
  <path class="st0" d="M2.9,20.1"/>
  <path class="st0" d="M17.7,5l7.3,7.3"/>
  <path class="st0" d="M2.9,20.1"/>
  <path class="st0" d="M1.6,29.2c-0.2,0-0.4,0-0.6-0.2c-0.2-0.2-0.2-0.5-0.2-0.6c0-0.1,0.1-0.3,0.1-0.5l1.8-7.2c0,0,0.1-0.4,0.2-0.6
	S21.4,1.6,21.4,1.6c0.3-0.2,0.6-0.4,0.9-0.4c0.4,0,0.7,0.2,0.9,0.4l5.2,5.2c0.2,0.3,0.4,0.6,0.4,0.9c0,0.4-0.2,0.7-0.4,0.9
	L10.3,26.7c-0.2,0.2-0.3,0.3-0.5,0.4c-0.2,0.1-0.6,0.2-0.6,0.2L1.6,29.2z"/>
</svg>
