<svg xmlns="http://www.w3.org/2000/svg" width="16" height="15" viewBox="0 0 16 15" fill="none">
<path d="M2.65832 9.26901L1.64347 8.25414C1.22952 7.84019 1.22952 7.15916 1.64347 6.74521L2.65832 5.73034C2.83192 5.55675 2.97213 5.21623 2.97213 4.97587V3.54037C2.97213 2.95283 3.45286 2.47212 4.0404 2.47212H5.47589C5.71625 2.47212 6.05677 2.33193 6.23036 2.15834L7.24521 1.14347C7.65916 0.729519 8.34019 0.729519 8.75415 1.14347L9.76902 2.15834C9.94261 2.33193 10.2831 2.47212 10.5235 2.47212H11.959C12.5465 2.47212 13.0272 2.95283 13.0272 3.54037V4.97587C13.0272 5.21623 13.1674 5.55675 13.341 5.73034L14.3559 6.74521C14.7699 7.15916 14.7699 7.84019 14.3559 8.25414L13.341 9.26901C13.1674 9.4426 13.0272 9.78312 13.0272 10.0235V11.4589C13.0272 12.0464 12.5465 12.5272 11.959 12.5272H10.5235C10.2831 12.5272 9.94261 12.6674 9.76902 12.841L8.75415 13.8559C8.34019 14.2698 7.65916 14.2698 7.24521 13.8559L6.23036 12.841C6.05677 12.6674 5.71625 12.5272 5.47589 12.5272H4.0404C3.45286 12.5272 2.97213 12.0464 2.97213 11.4589V10.0235C2.97213 9.77644 2.83192 9.43593 2.65832 9.26901Z" stroke="black" stroke-linecap="round" stroke-linejoin="round"/>
<path d="M6.00391 9.49526L10.0099 5.48926" stroke="black" stroke-linecap="round" stroke-linejoin="round"/>
<path d="M9.67294 9.16196H9.67894" stroke="#292D32" stroke-width="1.5" stroke-linecap="round" stroke-linejoin="round"/>
<path d="M6.33407 5.82309H6.34007" stroke="#292D32" stroke-width="1.5" stroke-linecap="round" stroke-linejoin="round"/>
</svg>