<svg xmlns="http://www.w3.org/2000/svg" width="24" height="24" viewBox="0 0 24 24" fill="none">
    <path fill-rule="evenodd" clip-rule="evenodd" d="M4.99994 3H18.9999V21H4.99994V3ZM9.83327 6.90004C9.83327 6.6239 10.0571 6.40004 10.3333 6.40004L15.9999 6.40004C16.2761 6.40004 16.4999 6.6239 16.4999 6.90004C16.4999 7.17618 16.2761 7.40004 15.9999 7.40004L10.3333 7.40004C10.0571 7.40004 9.83327 7.17618 9.83327 6.90004ZM10.3333 9.80004C10.0571 9.80004 9.83327 10.0239 9.83327 10.3C9.83327 10.5762 10.0571 10.8 10.3333 10.8H13.7333C14.0094 10.8 14.2333 10.5762 14.2333 10.3C14.2333 10.0239 14.0094 9.80004 13.7333 9.80004H10.3333ZM9.83327 13.7C9.83327 13.4239 10.0571 13.2 10.3333 13.2H14.8666C15.1427 13.2 15.3666 13.4239 15.3666 13.7C15.3666 13.9762 15.1427 14.2 14.8666 14.2H10.3333C10.0571 14.2 9.83327 13.9762 9.83327 13.7ZM10.3333 16.6C10.0571 16.6 9.83327 16.8239 9.83327 17.1C9.83327 17.3762 10.0571 17.6 10.3333 17.6H13.7333C14.0094 17.6 14.2333 17.3762 14.2333 17.1C14.2333 16.8239 14.0094 16.6 13.7333 16.6H10.3333ZM7.49994 6.90004C7.49994 6.58708 7.75364 6.33337 8.06661 6.33337C8.37957 6.33337 8.63327 6.58708 8.63327 6.90004C8.63327 7.213 8.37957 7.46671 8.06661 7.46671C7.75364 7.46671 7.49994 7.213 7.49994 6.90004ZM8.06661 9.73337C7.75364 9.73337 7.49994 9.98708 7.49994 10.3C7.49994 10.613 7.75364 10.8667 8.06661 10.8667C8.37957 10.8667 8.63327 10.613 8.63327 10.3C8.63327 9.98708 8.37957 9.73337 8.06661 9.73337ZM7.49994 13.7C7.49994 13.3871 7.75364 13.1334 8.06661 13.1334C8.37957 13.1334 8.63327 13.3871 8.63327 13.7C8.63327 14.013 8.37957 14.2667 8.06661 14.2667C7.75364 14.2667 7.49994 14.013 7.49994 13.7ZM8.06661 16.5334C7.75364 16.5334 7.49994 16.7871 7.49994 17.1C7.49994 17.413 7.75364 17.6667 8.06661 17.6667C8.37957 17.6667 8.63327 17.413 8.63327 17.1C8.63327 16.7871 8.37957 16.5334 8.06661 16.5334Z" fill="#570F9E"/>
</svg>
