<svg xmlns="http://www.w3.org/2000/svg" width="14" height="14" viewBox="0 0 14 14" fill="none">
  <path fill-rule="evenodd" clip-rule="evenodd" d="M7.00068 12.9997C10.3144 12.9997 13.0007 10.3134 13.0007 6.99967C13.0007 3.68597 10.3144 0.999674 7.00068 0.999674C3.68696 0.999674 1.00065 3.68597 1.00065 6.99967C1.00065 10.3134 3.68696 12.9997 7.00068 12.9997ZM7.00068 13.6663C10.6826 13.6663 13.6674 10.6816 13.6674 6.99967C13.6674 3.31778 10.6826 0.333008 7.00068 0.333008C3.31876 0.333008 0.333984 3.31778 0.333984 6.99967C0.333984 10.6816 3.31876 13.6663 7.00068 13.6663Z" fill="black" fill-opacity="0.9"/>
  <path d="M7.33464 3.33333C7.33464 3.51743 7.1854 3.66667 7.0013 3.66667C6.81721 3.66667 6.66797 3.51743 6.66797 3.33333C6.66797 3.14924 6.81721 3 7.0013 3C7.1854 3 7.33464 3.14924 7.33464 3.33333Z" fill="black" fill-opacity="0.9"/>
  <path fill-rule="evenodd" clip-rule="evenodd" d="M7.33464 5.51855V10.7037H6.66797V5.51855H7.33464Z" fill="black" fill-opacity="0.9"/>
</svg>