<svg width="14" height="12" viewBox="0 0 14 12" fill="none" xmlns="http://www.w3.org/2000/svg">
<g id="Group 13999">
<path id="Subtract" fill-rule="evenodd" clip-rule="evenodd" d="M1 7.04883V11.0002C1 11.5525 1.44772 12.0002 2 12.0002H12C12.5523 12.0002 13 11.5525 13 11.0002V7.12267C12.8209 7.17192 12.6116 7.2002 12.3683 7.2002C12.2392 7.2002 12.1164 7.19337 12 7.18045V11.0002H2L2 7.19019C1.93293 7.19676 1.86427 7.2002 1.79417 7.2002C1.5075 7.2002 1.23775 7.14268 1 7.04883Z" fill="white"/>
<path id="Rectangle 7321" d="M4.00002 6C4.00002 5.72386 3.77617 5.5 3.50002 5.5C3.22388 5.5 3.00002 5.72386 3.00002 6C3.00002 6.03643 2.95092 6.20707 2.71269 6.39475C2.49517 6.56613 2.17667 6.70001 1.79423 6.70001C1.4092 6.70001 1.0629 6.56422 0.817981 6.38444C0.695824 6.29477 0.609103 6.20159 0.556515 6.12224C0.506353 6.04654 0.500693 6.00479 0.500074 6.00022C0.50001 5.99976 0.5 5.99968 0.5 6L0.500003 4.7082C0.500004 4.32009 0.590367 3.93731 0.763935 3.59017L2.17083 0.776393C2.25552 0.607001 2.42865 0.5 2.61804 0.5H11.382C11.5713 0.5 11.7445 0.607001 11.8292 0.776393L12.262 0.56L11.8292 0.776393L13.2361 3.59017C13.4096 3.93731 13.5 4.32009 13.5 4.7082V6C13.5 6.11527 13.4495 6.28076 13.2985 6.42056C13.1526 6.55559 12.875 6.70001 12.3684 6.70001C11.265 6.70001 11 6.18079 11 6C11 5.72386 10.7762 5.5 10.5 5.5C10.2239 5.5 10 5.72386 10 6C10 6.09057 9.93757 6.25575 9.70129 6.42128C9.47371 6.58071 9.13227 6.70001 8.72633 6.70001C8.34329 6.70001 8.01828 6.56568 7.79439 6.39224C7.54818 6.2015 7.50002 6.03108 7.50002 6C7.50002 5.72386 7.27617 5.5 7.00002 5.5C6.72388 5.5 6.50002 5.72386 6.50002 6C6.50002 5.99989 6.49993 6.01132 6.49186 6.03523C6.48383 6.05903 6.46919 6.09123 6.44445 6.13013C6.39436 6.20889 6.31199 6.30071 6.1956 6.38879C5.96268 6.56505 5.62849 6.70001 5.2446 6.70001C4.84216 6.70001 4.51019 6.57886 4.2903 6.41984C4.06138 6.2543 4.00002 6.0885 4.00002 6Z" stroke="white" stroke-linejoin="round"/>
<rect id="Rectangle 7316" x="4.5" y="8.5" width="5" height="3" rx="0.5" stroke="white"/>
</g>
</svg>
