<svg width="44" height="60" viewBox="0 0 44 60" fill="none" xmlns="http://www.w3.org/2000/svg">
<path d="M44 22.0837C44 27.0615 42.3593 31.6546 39.5911 35.3479L30.8 49.2151L30.792 49.193L26.3685 56.9817C24.4393 60.3787 19.5607 60.3787 17.6315 56.9817L13.208 49.193L13.2 49.2151L4.40889 35.3479C1.6407 31.6546 0 27.0615 0 22.0837C0 9.8872 9.84974 0 22 0C34.1503 0 44 9.8872 44 22.0837Z" fill="#57109E"/>
<circle cx="22" cy="22" r="17" fill="white"/>
<path d="M21.372 18.0972C21.372 18.145 21.344 18.1829 21.2487 18.1944C20.5198 18.3032 20.2582 18.6196 19.9124 19.4089L17.1314 25.9143C17.1034 25.9621 17.0623 25.9868 17.0081 25.9868C16.9389 25.9868 16.9109 25.9621 16.8978 25.9143L14.1711 19.6758C13.4142 21.6054 12.547 23.8035 11.6798 25.9275C11.6518 25.9753 11.6106 26 11.5564 26C11.4873 26 11.4593 25.9637 11.4331 25.9275C10.3865 23.5481 9.11936 21.0599 8.32133 19.4451C7.94941 18.7053 7.7158 18.4251 7.30277 18.2669C7.0542 18.1813 7 18.1582 7 18.0725C7 18.0115 7.04112 18 7.12335 18C7.23362 18 8.37553 18.0725 9.17543 18.0725C9.82208 18.0725 10.9659 18 11.1172 18C11.1864 18 11.2555 18.0115 11.2555 18.0725C11.2555 18.145 11.1733 18.1697 10.9528 18.2307C10.5528 18.3279 10.4014 18.4614 10.4014 18.7168C10.4014 19.1419 11.4069 21.5691 12.3021 23.6816C12.3152 23.6931 12.3152 23.7063 12.3302 23.7063C12.3302 23.7063 12.3433 23.6947 12.3433 23.6816C12.9768 22.1162 13.5954 20.5623 14.0365 19.3479C13.7337 18.6805 13.6366 18.4614 13.2235 18.2439C13.0441 18.1467 13.003 18.1582 13.003 18.0741C13.003 18.0132 13.0572 18.0016 13.1263 18.0016C13.2777 18.0016 14.1169 18.0741 14.8738 18.0741C16.0157 18.0741 16.4979 18.0016 16.7053 18.0016C16.7745 18.0016 16.8287 18.0016 16.8287 18.0741C16.8287 18.1467 16.7745 18.1714 16.539 18.2323C16.139 18.3296 15.9877 18.4383 15.9877 18.669C15.9877 19.0809 17.0193 21.5576 17.8192 23.5728C17.8472 23.67 17.8472 23.6816 17.8734 23.6816C17.8865 23.6816 17.8865 23.6568 17.9276 23.5843C18.9742 21.0105 19.7311 19.3232 19.7311 18.8634C19.7311 18.5108 19.4826 18.3411 18.892 18.2076C18.7686 18.1714 18.7126 18.1467 18.7126 18.0857C18.7126 18.0247 18.7537 18.0132 18.8228 18.0132C18.9462 18.0132 19.5517 18.0741 20.0208 18.0741C20.5572 18.0741 21.1366 18.0132 21.2319 18.0132C21.3272 18.0132 21.3702 18.0379 21.3702 18.0989L21.372 18.0972Z" fill="#57109E"/>
<path d="M26.6407 23.006C26.7135 22.6484 26.7453 22.4935 26.6537 22.482C26.5752 22.4705 26.5136 22.6451 26.4538 22.8923L26.465 22.8429C25.9585 25.2816 25.6987 25.3656 24.6988 25.5831C24.4933 25.6309 24.4521 25.6556 24.4521 25.7281C24.4521 25.7644 24.4802 25.7891 24.5475 25.7891C24.6708 25.7891 25.4109 25.7166 25.8071 25.7166C26.2594 25.7166 27.0126 25.7891 27.149 25.7891C27.2443 25.7891 27.2854 25.7528 27.2854 25.6919C27.2854 25.6309 27.2163 25.5947 27.0518 25.5469C26.5453 25.3903 26.3398 25.3178 26.3398 24.7856C26.3398 24.5203 26.3229 24.4676 26.6388 23.006H26.6407Z" fill="#57109E"/>
<path d="M36.9273 18.0132C36.804 18.0132 36.0789 18.1104 35.5724 18.1104C35.1201 18.1104 34.75 18.0264 34.5463 18.0264C34.2585 18.0264 34.1352 18.1351 33.9445 18.4482L30.7543 23.4229C30.7262 23.4591 30.7132 23.4706 30.7001 23.4706C30.687 23.4706 30.7001 23.4591 30.687 23.4229L29.3862 18.3048C29.332 18.0873 29.2629 18.0395 29.0984 18.0395C28.9339 18.0395 28.4555 18.1121 27.9621 18.1121C27.4687 18.1121 26.7566 18.0395 26.6613 18.0395C26.5791 18.0395 26.5249 18.0758 26.5249 18.1368C26.5249 18.1977 26.5941 18.234 26.7174 18.2571C26.7585 18.2669 26.7959 18.2785 26.8314 18.29C27.0557 18.3526 27.25 18.4828 27.3902 18.7745C27.4874 18.9738 27.5323 19.1683 27.5771 19.3578L29.2087 25.7182C29.2367 25.8385 29.2629 25.8517 29.304 25.8517C29.332 25.8517 29.3582 25.8517 29.4554 25.7182C30.1805 24.7642 31.0982 23.268 32.0569 21.7833C33.2474 19.9361 33.8511 18.9343 34.0417 18.669C34.0698 18.6328 34.0698 18.608 34.0959 18.608C34.109 18.608 34.124 18.6196 34.124 18.6558C34.124 18.6805 33.9595 19.5374 33.2605 22.6764C32.7821 24.8614 32.6438 25.2601 32.07 25.5502C31.8102 25.6836 31.7822 25.6589 31.7822 25.7561C31.7822 25.7924 31.7953 25.8039 31.8513 25.8039C31.9747 25.8039 32.7559 25.7792 33.3988 25.7792C34.1389 25.7792 35.0958 25.8039 35.2341 25.8039C35.3032 25.8039 35.3294 25.7677 35.3294 25.7199C35.3294 25.6589 35.1649 25.6227 35.0547 25.5749C34.6585 25.3689 34.7538 25.0196 35.2472 22.5924L35.6434 20.709C36.0396 18.6558 36.219 18.4877 36.6844 18.2702C36.9311 18.173 37.0002 18.1499 37.0002 18.0774C37.0002 18.0412 36.9722 18.0165 36.9311 18.0165L36.9273 18.0132Z" fill="#57109E"/>
<path d="M24.1999 22.0486V22.0585C24.8559 22.0272 25.5344 22.3172 25.5344 23.1213C25.5344 24.1743 24.4336 25.3393 22.1647 25.3393C20.2808 25.3393 19.1221 24.5648 19.1221 23.4822C19.1221 22.1508 20.5967 21.2956 22.8076 21.2017V21.1704C21.533 21.1292 20.8658 20.6744 20.8658 20.035C20.8658 19.137 21.9068 18.5191 23.2879 18.5191C24.271 18.5191 24.727 18.8799 24.727 19.4583C24.727 19.8604 24.4336 20.1388 24.1177 20.1388C23.8953 20.1388 23.6841 20.0251 23.6841 19.7978C23.6841 19.4056 24.2224 19.3545 24.2224 19.0447C24.2224 18.8387 23.9888 18.6839 23.6486 18.6839C22.9926 18.6839 22.2918 19.2721 22.2918 20.1899C22.2918 20.6958 22.503 21.088 23.0879 21.088C23.1814 21.088 23.3215 21.0567 23.4281 21.0567C23.5215 21.0567 23.615 21.1077 23.615 21.2214C23.615 21.3351 23.5327 21.4175 23.3926 21.4175C23.2748 21.4175 23.1347 21.3763 22.959 21.3763C22.0114 21.3763 20.9817 22.1607 20.9817 23.3372C20.9817 24.4 21.6956 24.9784 22.8431 24.9784C24.213 24.9784 25.2428 24.1117 25.2428 23.1312C25.2428 22.5018 24.7756 22.1508 24.2018 22.1508C23.8037 22.1508 23.3944 22.3156 23.3944 22.6039C23.3944 22.945 23.828 22.9961 23.828 23.3257C23.828 23.6256 23.5477 23.7903 23.1963 23.7903C22.845 23.7903 22.5179 23.5844 22.5179 23.2021C22.5179 22.655 23.1272 22.2431 24.1439 21.9745C26.2034 21.4373 26.637 21.0764 26.637 20.4585C26.637 20.1487 26.4389 19.9016 26.1343 19.9016C25.8652 19.9016 25.7007 20.035 25.7007 20.1899C25.7007 20.3761 25.8876 20.4997 25.8876 20.7057C25.8876 20.9215 25.6895 21.0979 25.3605 21.0979C25.0671 21.0979 24.869 20.9529 24.869 20.6859C24.869 20.18 25.4783 19.7681 26.2614 19.7681C26.8819 19.7681 27.3491 20.1191 27.3491 20.5014C27.3491 21.1308 26.6707 21.6054 24.2018 22.0486H24.1999Z" fill="#57109E"/>
</svg>
