<svg width="30" height="28" viewBox="0 0 30 28" fill="none" xmlns="http://www.w3.org/2000/svg">
<g id="Group 14007">
<path id="Vector 442" d="M4.98248 1.23902L4.70905 0.540642L4.98248 1.23902ZM4.98248 1.23902C3.02977 2.00356 0.101273 4.91112 0.877991 10.587C1.14163 12.5135 2.08191 14.3817 3.19601 15.9943C4.29761 17.5888 5.53623 18.8864 6.35695 19.6841L14.839 26.8793C14.9323 26.9585 15.0691 26.9585 15.1624 26.8793L23.6637 19.6678L23.668 19.6641L23.668 19.6642C25.5513 18.0909 28.5879 14.5 29.1234 10.587C29.8952 4.9461 26.9699 2.00287 25.0189 1.23902C22.9559 0.431303 20.887 0.694957 19.1857 1.51477C17.4657 2.34359 16.192 3.70626 15.701 4.98759C15.5899 5.27771 15.3114 5.46926 15.0007 5.46926C14.69 5.46926 14.4115 5.2777 14.3003 4.98758C13.8094 3.70626 12.5357 2.34359 10.8158 1.51478C9.11444 0.694959 7.04555 0.431302 4.98248 1.23902Z" stroke="#ABAEB3" stroke-width="1.5" stroke-linejoin="round"/>
<path id="Vector 443 (Stroke)" d="M15 6.99997C14.2502 6.99997 13.8223 5.8361 13.6 5.25586L16.4014 5.25588C16.1791 5.83612 15.7498 6.99997 15 6.99997Z" fill="#ABAEB3"/>
</g>
</svg>
