<svg xmlns="http://www.w3.org/2000/svg" width="12" height="12" viewBox="0 0 12 12" fill="none">
  <path d="M3.53093 10.1047H1.75C1.19772 10.1047 0.75 9.65697 0.75 9.10469V5.97559C0.75 5.4233 1.19772 4.97559 1.75 4.97559H3.53093C3.61377 4.97559 3.68093 5.04274 3.68093 5.12559V9.95469C3.68093 10.0375 3.61377 10.1047 3.53093 10.1047Z" stroke="black" stroke-opacity="0.5" stroke-linecap="round"/>
  <path d="M3.68164 5.7082L5.04153 2.98843C5.11096 2.84958 5.1471 2.69646 5.1471 2.54122V1.31183C5.1471 0.907157 5.47516 0.579102 5.87983 0.579102V0.579102C6.68919 0.579102 7.3453 1.23521 7.3453 2.04456V4.97547" stroke="black" stroke-opacity="0.5"/>
  <path d="M5.87983 4.97559H9.91796C10.5845 4.97559 11.0644 5.6153 10.8781 6.25522L9.7533 10.117C9.62898 10.5439 9.23778 10.8374 8.79319 10.8374H6.29405C6.02883 10.8374 5.77448 10.7321 5.58694 10.5445L5.44 10.3976C5.25246 10.21 4.99811 10.1047 4.73289 10.1047H3.68164" stroke="black" stroke-opacity="0.5"/>
</svg>