<svg width="32" height="32" viewBox="0 0 32 32" fill="none" xmlns="http://www.w3.org/2000/svg">
    <g clip-path="url(#zn4bvt4vha)" fill="#D7D8D9">
        <path d="M23.83 18.51c-.54.49-1.16 1-1.83 1.48l-1.93-1.93c.32-.61.49-1.3.49-2.03A4.57 4.57 0 0 0 16 11.47c-.73 0-1.43.17-2.04.48l-1.64-1.64c1.1-.46 2.29-.75 3.53-.75 3.21 0 6.07 1.97 7.98 3.71 1.51 1.38 1.51 3.86 0 5.24z"/>
        <path d="M19.36 16.03c0 .15-.01.29-.03.43v.02c-.01.07-.02.14-.04.21 0 0 0 .02-.01.03-.04.15-.07.29-.12.43l-4.28-4.28c.18-.06.36-.11.55-.14.06-.02.12-.03.19-.03.12-.02.25-.03.38-.03 1.85 0 3.36 1.51 3.36 3.36zM23.33 22.74l-4.67-4.67-4.69-4.7-.86-.86-1.74-1.74-2.43-2.43a.607.607 0 0 0-.42-.17c-.16 0-.31.06-.43.17a.61.61 0 0 0 0 .85l2.2 2.2c-.29.19-.57.38-.83.58-.58.43-1.11.87-1.58 1.3-1.51 1.38-1.51 3.86 0 5.24 1.9 1.74 4.77 3.71 7.97 3.71 1.13 0 2.21-.24 3.23-.63.34-.13.66-.28.98-.43l2.42 2.42c.12.12.28.18.43.18.15 0 .31-.06.42-.18a.58.58 0 0 0 0-.84zM16 20.59c-2.52 0-4.57-2.04-4.57-4.56 0-.99.32-1.89.86-2.64l.28.28.58.58c-.32.53-.52 1.13-.52 1.78 0 1.86 1.51 3.36 3.37 3.36.65 0 1.26-.19 1.77-.52l.87.87c-.75.53-1.66.85-2.64.85z"/>
    </g>
    <defs>
        <clipPath id="zn4bvt4vha">
            <path fill="#fff" transform="translate(4 4)" d="M0 0h24v24H0z"/>
        </clipPath>
    </defs>
</svg>
