<svg width="24" height="24" viewBox="0 0 24 24" fill="none" xmlns="http://www.w3.org/2000/svg">
    <g clip-path="url(#dkx1ycs1ya)">
        <path d="M21.06 5.1H2.99c-.81 0-1.46.66-1.46 1.46v11.07c0 .81.66 1.46 1.46 1.46h18.07c.81 0 1.46-.66 1.46-1.46V6.57c0-.81-.66-1.46-1.46-1.46V5.1zm.46 3.57v1.54H2.53V8.67h19-.01zM2.99 6.1h18.07c.26 0 .46.21.46.46v1.11H2.53V6.56c0-.26.21-.46.46-.46zm18.07 12H2.99c-.26 0-.46-.21-.46-.46v-6.42h19v6.42c0 .26-.21.46-.46.46h-.01z" fill="#F2F2F2"/>
        <path d="M19.03 15.959h-2c-.28 0-.5.22-.5.5s.22.5.5.5h2c.28 0 .5-.22.5-.5s-.22-.5-.5-.5zM15.03 15.959h-2c-.28 0-.5.22-.5.5s.22.5.5.5h2c.28 0 .5-.22.5-.5s-.22-.5-.5-.5zM7.02 15.959h-2c-.28 0-.5.22-.5.5s.22.5.5.5h2c.28 0 .5-.22.5-.5s-.22-.5-.5-.5zM11.03 15.959h-2c-.28 0-.5.22-.5.5s.22.5.5.5h2c.28 0 .5-.22.5-.5s-.22-.5-.5-.5z" fill="#F2F2F2"/>
        <circle cx="19" cy="17" r="5" fill="#F2F2F2"/>
        <path d="m16 17 2.4 2 3.6-3" stroke="#4B4D4D" stroke-linecap="round" stroke-linejoin="round"/>
    </g>
    <defs>
        <clipPath id="dkx1ycs1ya">
            <path fill="#fff" d="M0 0h24v24H0z"/>
        </clipPath>
    </defs>
</svg>
