<svg width="40" height="40" viewBox="0 0 40 40" fill="none" xmlns="http://www.w3.org/2000/svg">
    <g clip-path="url(#jugcssr8wa)">
        <path d="M23.683 18.45c2.117-1.267 3.567-3.567 3.567-6.217 0-4-3.25-7.25-7.25-7.25s-7.25 3.25-7.25 7.25c0 2.65 1.433 4.95 3.567 6.217-4.534 1.533-7.8 5.817-7.8 10.867 0 .566.05 1.15.15 1.75.033.166.1.316.216.433 2.917 3.133 6.867 4.85 11.134 4.85 4.266 0 8.266-1.767 11.133-4.85a.826.826 0 0 0 .217-.433c.1-.6.15-1.184.15-1.75 0-5.05-3.267-9.334-7.8-10.867h-.034zm-9.266-6.217a5.584 5.584 0 1 1 11.167.001 5.584 5.584 0 0 1-11.167 0zM29.733 30.55A13.54 13.54 0 0 1 20 34.683a13.49 13.49 0 0 1-9.733-4.133c-.05-.417-.084-.833-.084-1.233 0-5.417 4.4-9.817 9.817-9.817s9.817 4.4 9.817 9.817c0 .4-.034.816-.084 1.233z" fill="#fff"/>
    </g>
    <defs>
        <clipPath id="jugcssr8wa">
            <path fill="#fff" d="M0 0h40v40H0z"/>
        </clipPath>
    </defs>
</svg>
