<svg xmlns="http://www.w3.org/2000/svg" width="16" height="11" viewBox="0 0 16 11" fill="none">
<mask id="path-1-inside-1_2900_12643" fill="white">
<path fill-rule="evenodd" clip-rule="evenodd" d="M0.666992 0.166992H15.3337V4.34533C15.1376 4.23188 14.9099 4.16695 14.667 4.16695C13.9307 4.16695 13.3337 4.76391 13.3337 5.50029C13.3337 6.23666 13.9307 6.83362 14.667 6.83362C14.9099 6.83362 15.1376 6.76869 15.3337 6.65524V10.8337H0.666992V6.65524C0.863109 6.76869 1.0908 6.83362 1.33366 6.83362C2.07004 6.83362 2.667 6.23666 2.667 5.50029C2.667 4.76391 2.07004 4.16695 1.33366 4.16695C1.0908 4.16695 0.863109 4.23188 0.666992 4.34533V0.166992Z"/>
</mask>
<path d="M15.3337 0.166992H16.3337V-0.833008H15.3337V0.166992ZM0.666992 0.166992V-0.833008H-0.333008V0.166992H0.666992ZM15.3337 4.34533L14.833 5.21093L16.3337 6.07905V4.34533H15.3337ZM15.3337 6.65524H16.3337V4.92152L14.833 5.78963L15.3337 6.65524ZM15.3337 10.8337V11.8337H16.3337V10.8337H15.3337ZM0.666992 10.8337H-0.333008V11.8337H0.666992V10.8337ZM0.666992 6.65524L1.16772 5.78964L-0.333008 4.92152V6.65524H0.666992ZM0.666992 4.34533H-0.333008V6.07905L1.16772 5.21093L0.666992 4.34533ZM15.3337 -0.833008H0.666992V1.16699H15.3337V-0.833008ZM16.3337 4.34533V0.166992H14.3337V4.34533H16.3337ZM14.667 5.16695C14.7294 5.16695 14.785 5.18316 14.833 5.21093L15.8344 3.47972C15.4902 3.2806 15.0904 3.16695 14.667 3.16695V5.16695ZM14.3337 5.50029C14.3337 5.31619 14.4829 5.16695 14.667 5.16695V3.16695C13.3784 3.16695 12.3337 4.21162 12.3337 5.50029H14.3337ZM14.667 5.83362C14.4829 5.83362 14.3337 5.68438 14.3337 5.50029H12.3337C12.3337 6.78895 13.3784 7.83362 14.667 7.83362V5.83362ZM14.833 5.78963C14.785 5.81741 14.7294 5.83362 14.667 5.83362V7.83362C15.0904 7.83362 15.4902 7.71997 15.8344 7.52085L14.833 5.78963ZM16.3337 10.8337V6.65524H14.3337V10.8337H16.3337ZM0.666992 11.8337H15.3337V9.83366H0.666992V11.8337ZM-0.333008 6.65524V10.8337H1.66699V6.65524H-0.333008ZM1.33366 5.83362C1.27128 5.83362 1.21573 5.81741 1.16772 5.78964L0.166268 7.52085C0.510489 7.71997 0.910321 7.83362 1.33366 7.83362V5.83362ZM1.667 5.50029C1.667 5.68438 1.51776 5.83362 1.33366 5.83362V7.83362C2.62233 7.83362 3.667 6.78895 3.667 5.50029H1.667ZM1.33366 5.16695C1.51776 5.16695 1.667 5.31619 1.667 5.50029H3.667C3.667 4.21162 2.62233 3.16695 1.33366 3.16695V5.16695ZM1.16772 5.21093C1.21573 5.18316 1.27128 5.16695 1.33366 5.16695V3.16695C0.910321 3.16695 0.510489 3.2806 0.166268 3.47972L1.16772 5.21093ZM-0.333008 0.166992V4.34533H1.66699V0.166992H-0.333008Z" fill="black" fill-opacity="0.9" mask="url(#path-1-inside-1_2900_12643)"/>
<path d="M6.2002 7.15078L9.80021 3.55078" stroke="black" stroke-opacity="0.9" stroke-linecap="round" stroke-linejoin="round"/>
<path d="M9.79671 7.15059H9.80209" stroke="black" stroke-opacity="0.9" stroke-width="1.5" stroke-linecap="round" stroke-linejoin="round"/>
<path d="M6.1971 3.85078H6.20249" stroke="black" stroke-opacity="0.9" stroke-width="1.5" stroke-linecap="round" stroke-linejoin="round"/>
</svg>