<svg width="24" height="24" viewBox="0 0 24 24" fill="none" xmlns="http://www.w3.org/2000/svg">
<mask id="mask0_5685_23062" style="mask-type:alpha" maskUnits="userSpaceOnUse" x="0" y="0" width="25" height="24">
<path fill-rule="evenodd" clip-rule="evenodd" d="M5 3H19V21H5V3ZM9.83333 6.90004C9.83333 6.6239 10.0572 6.40004 10.3333 6.40004L16 6.40004C16.2761 6.40004 16.5 6.6239 16.5 6.90004C16.5 7.17618 16.2761 7.40004 16 7.40004L10.3333 7.40004C10.0572 7.40004 9.83333 7.17618 9.83333 6.90004ZM10.3333 9.80004C10.0572 9.80004 9.83333 10.0239 9.83333 10.3C9.83333 10.5762 10.0572 10.8 10.3333 10.8H13.7333C14.0095 10.8 14.2333 10.5762 14.2333 10.3C14.2333 10.0239 14.0095 9.80004 13.7333 9.80004H10.3333ZM9.83333 13.7C9.83333 13.4239 10.0572 13.2 10.3333 13.2H14.8667C15.1428 13.2 15.3667 13.4239 15.3667 13.7C15.3667 13.9762 15.1428 14.2 14.8667 14.2H10.3333C10.0572 14.2 9.83333 13.9762 9.83333 13.7ZM10.3333 16.6C10.0572 16.6 9.83333 16.8239 9.83333 17.1C9.83333 17.3762 10.0572 17.6 10.3333 17.6H13.7333C14.0095 17.6 14.2333 17.3762 14.2333 17.1C14.2333 16.8239 14.0095 16.6 13.7333 16.6H10.3333ZM7.5 6.90004C7.5 6.58708 7.75371 6.33337 8.06667 6.33337C8.37963 6.33337 8.63333 6.58708 8.63333 6.90004C8.63333 7.213 8.37963 7.46671 8.06667 7.46671C7.75371 7.46671 7.5 7.213 7.5 6.90004ZM8.06667 9.73337C7.75371 9.73337 7.5 9.98708 7.5 10.3C7.5 10.613 7.75371 10.8667 8.06667 10.8667C8.37963 10.8667 8.63333 10.613 8.63333 10.3C8.63333 9.98708 8.37963 9.73337 8.06667 9.73337ZM7.5 13.7C7.5 13.3871 7.75371 13.1334 8.06667 13.1334C8.37963 13.1334 8.63333 13.3871 8.63333 13.7C8.63333 14.013 8.37963 14.2667 8.06667 14.2667C7.75371 14.2667 7.5 14.013 7.5 13.7ZM8.06667 16.5334C7.75371 16.5334 7.5 16.7871 7.5 17.1C7.5 17.413 7.75371 17.6667 8.06667 17.6667C8.37963 17.6667 8.63333 17.413 8.63333 17.1C8.63333 16.7871 8.37963 16.5334 8.06667 16.5334Z" fill="#570F9E"/>
</mask>
<g mask="url(#mask0_5685_23062)">
<rect width="24" height="24" fill="#570F9E"/>
</g>
</svg>
