<svg xmlns="http://www.w3.org/2000/svg" width="18" height="19" viewBox="0 0 18 19" fill="none">
  <path d="M5 8.5L13 4.5" stroke="black" stroke-opacity="0.9" stroke-linejoin="round"/>
  <path d="M5 11.5L13 15.5" stroke="black" stroke-opacity="0.9" stroke-linejoin="round"/>
  <path d="M5.5 10C5.5 11.3807 4.38071 12.5 3 12.5C1.61929 12.5 0.5 11.3807 0.5 10C0.5 8.61929 1.61929 7.5 3 7.5C4.38071 7.5 5.5 8.61929 5.5 10Z" stroke="black" stroke-opacity="0.9" stroke-linecap="round" stroke-linejoin="round"/>
  <path d="M17.5 16C17.5 17.3807 16.3807 18.5 15 18.5C13.6193 18.5 12.5 17.3807 12.5 16C12.5 14.6193 13.6193 13.5 15 13.5C16.3807 13.5 17.5 14.6193 17.5 16Z" stroke="black" stroke-opacity="0.9" stroke-linecap="round" stroke-linejoin="round"/>
  <path d="M17.5 3.75C17.5 5.13071 16.3807 6.25 15 6.25C13.6193 6.25 12.5 5.13071 12.5 3.75C12.5 2.36929 13.6193 1.25 15 1.25C16.3807 1.25 17.5 2.36929 17.5 3.75Z" stroke="black" stroke-opacity="0.9" stroke-linecap="round" stroke-linejoin="round"/>
</svg>