<!--<svg width="24" height="24" viewBox="0 0 24 24" fill="none" xmlns="http://www.w3.org/2000/svg">-->
<!--    <mask id="mask0_new" style="mask-type:alpha" maskUnits="userSpaceOnUse" x="0" y="0" width="24" height="24">-->
<!--        <path d="M12 3.07149L14.6143 8.02643L14.729 8.24388L14.9712 8.28579L20.4915 9.24094L16.5869 13.2584L16.4156 13.4347L16.4506 13.6781L17.248 19.2233L12.2206 16.7513L12 16.6428L11.7794 16.7513L6.75195 19.2233L7.54941 13.6781L7.58441 13.4347L7.41306 13.2584L3.50848 9.24094L9.02876 8.28579L9.27102 8.24388L9.38574 8.02643L12 3.07149Z" fill="black" fill-opacity="0.9"/>-->
<!--    </mask>-->
<!--    <g mask="url(#mask0_new)">-->
<!--        <rect width="24" height="24" fill="#FFD644"/>-->
<!--    </g>-->
<!--</svg>-->


<svg width="24" height="24" viewBox="0 0 24 24" fill="none" xmlns="http://www.w3.org/2000/svg">
    <mask id="mask0_new" style="mask-type:alpha" maskUnits="userSpaceOnUse" x="0" y="0" width="24" height="24">
        <path d="M12 2L15.0565 7.79311L21.5106 8.90983L16.9455 13.6069L17.8779 20.0902L12 17.2L6.12215 20.0902L7.05451 13.6069L2.48944 8.90983L8.94352 7.79311L12 2Z" fill="black" fill-opacity="0.9"/>
    </mask>
    <g mask="url(#mask0_new)">
        <rect width="24" height="24" fill="#FFD644"/>
    </g>
</svg>