<!--<svg width="16" height="16" viewBox="0 0 16 16" fill="none" xmlns="http://www.w3.org/2000/svg">-->
<!--<mask id="mask0_1862_41935" style="mask-type:alpha" maskUnits="userSpaceOnUse" x="0" y="0" width="16" height="16">-->
<!--<path fill-rule="evenodd" clip-rule="evenodd" d="M7.99994 13.9997C11.3137 13.9997 14 11.3134 14 7.99967C14 4.68597 11.3137 1.99967 7.99994 1.99967C4.68622 1.99967 1.99992 4.68597 1.99992 7.99967C1.99992 11.3134 4.68622 13.9997 7.99994 13.9997ZM7.99994 14.6663C11.6819 14.6663 14.6666 11.6816 14.6666 7.99967C14.6666 4.31778 11.6819 1.33301 7.99994 1.33301C4.31803 1.33301 1.33325 4.31778 1.33325 7.99967C1.33325 11.6816 4.31803 14.6663 7.99994 14.6663Z" fill="black" fill-opacity="0.5"/>-->
<!--<path d="M8.33317 4.33333C8.33317 4.51743 8.18393 4.66667 7.99984 4.66667C7.81574 4.66667 7.6665 4.51743 7.6665 4.33333C7.6665 4.14924 7.81574 4 7.99984 4C8.18393 4 8.33317 4.14924 8.33317 4.33333Z" fill="black" fill-opacity="0.5"/>-->
<!--<path fill-rule="evenodd" clip-rule="evenodd" d="M8.33317 6.51855V11.7037H7.6665V6.51855H8.33317Z" fill="black" fill-opacity="0.5"/>-->
<!--</mask>-->
<!--<g mask="url(#mask0_1862_41935)">-->
<!--<rect width="16" height="16" fill="black" fill-opacity="0.9"/>-->
<!--</g>-->
<!--</svg>-->
<svg width="24" height="24" viewBox="0 0 24 24" fill="none" xmlns="http://www.w3.org/2000/svg">
<path fill-rule="evenodd" clip-rule="evenodd" d="M12 21C16.9706 21 21 16.9706 21 12C21 7.02944 16.9706 3 12 3C7.02944 3 3 7.02944 3 12C3 16.9706 7.02944 21 12 21ZM12 22C17.5228 22 22 17.5228 22 12C22 6.47715 17.5228 2 12 2C6.47715 2 2 6.47715 2 12C2 17.5228 6.47715 22 12 22Z" fill="black" fill-opacity="0.9"/>
<path d="M12.5 6.5C12.5 6.77614 12.2761 7 12 7C11.7239 7 11.5 6.77614 11.5 6.5C11.5 6.22386 11.7239 6 12 6C12.2761 6 12.5 6.22386 12.5 6.5Z" fill="black" fill-opacity="0.9"/>
<path fill-rule="evenodd" clip-rule="evenodd" d="M12.5 9.77777V17.5555H11.5V9.77777H12.5Z" fill="black" fill-opacity="0.9"/>
</svg>
