<svg width="296" height="40" viewBox="0 0 296 40" fill="none" xmlns="http://www.w3.org/2000/svg">
    <g clip-path="url(#1dinfs84qa)" fill="#000">
        <path d="M30 17.27c.28 0 .5-.22.5-.5v-2.76c0-.28-.22-.5-.5-.5h-6.17s-.08-.03-.13-.03-.08.01-.13.03H10c-.28 0-.5.22-.5.5v2.76c0 .28.22.5.5.5a2.5 2.5 0 0 1 0 5c-.28 0-.5.22-.5.5v3.24c0 .28.22.5.5.5h20c.28 0 .5-.22.5-.5v-3.24c0-.28-.22-.5-.5-.5a2.5 2.5 0 0 1 0-5zm-.5 5.96v2.28h-5.3v-2.29c0-.28-.22-.5-.5-.5s-.5.22-.5.5v2.29H10.5v-2.28c1.69-.24 3-1.7 3-3.46s-1.31-3.22-3-3.46v-1.8h12.7v2.27c0 .28.22.5.5.5s.5-.22.5-.5v-2.27h5.3v1.8c-1.69.24-3 1.7-3 3.46s1.31 3.22 3 3.46z"/>
        <path d="M23.7 18.1c-.28 0-.5.22-.5.5v2.79c0 .28.22.5.5.5s.5-.22.5-.5V18.6c0-.28-.22-.5-.5-.5z"/>
    </g>
    <path d="M46.545 20.892v-1.02h-1.548c.096-.448.168-.86.216-1.236a14.004 14.004 0 0 0 .156-2.052c.008-.304.012-.596.012-.876v-.996h-7.428v1.008h6.228v.648c0 .224-.008.456-.024.696l-6.54.228.144 1.044 6.324-.312a9.16 9.16 0 0 1-.12.876c-.048.304-.112.628-.192.972h-7.02v1.02h4.272v4.032h1.248v-4.032h4.272zm10.852-1.032H53.1v-1.152h3.325v-.996H54.96V15.54h1.523v-.996h-8.028v.996h1.536v2.172h-1.475v.996h3.335v1.152H47.57v1.008h9.828V19.86zm-6.169-2.148V15.54h2.496v2.172H51.23zm-1.163 6v-2.016h-1.248v3.024h7.475v-1.008h-6.227zM64.84 16.14v-.984h-2.58v-1.152h-1.236v1.152h-2.58v.984h6.395zm3.587 1.752v-1.02h-1.536v-2.784h-1.236v6.528h1.236v-2.724h1.536zm-4.164.636c0-.288-.064-.552-.192-.792a1.79 1.79 0 0 0-.54-.612 2.278 2.278 0 0 0-.828-.396 3.709 3.709 0 0 0-1.068-.144c-.392 0-.747.048-1.067.144-.32.088-.596.22-.828.396a1.79 1.79 0 0 0-.54.612c-.129.24-.193.504-.193.792 0 .296.065.564.193.804.127.24.307.444.54.612.231.168.508.3.828.396.32.088.675.132 1.068.132.392 0 .747-.044 1.067-.132a2.57 2.57 0 0 0 .828-.396 1.79 1.79 0 0 0 .54-.612c.129-.24.192-.508.192-.804zm-4.068 0c0-.312.133-.556.397-.732.264-.184.611-.276 1.044-.276.431 0 .78.092 1.043.276.273.176.408.42.408.732 0 .32-.136.572-.408.756-.264.176-.611.264-1.044.264-.431 0-.78-.088-1.043-.264a.873.873 0 0 1-.396-.756zm-.227 2.64v3.624h6.923v-3.624h-6.924zm1.223 2.64V22.14h4.489v1.668H61.19z" fill="#323334"/>
    <g clip-path="url(#17rdz9gw6b)" fill="#000">
        <path d="M135.56 13.1h-18.07c-.81 0-1.46.66-1.46 1.46v11.07c0 .81.66 1.46 1.46 1.46h18.07c.81 0 1.46-.66 1.46-1.46V14.57c0-.81-.66-1.46-1.46-1.46v-.01zm.46 3.57v1.54h-18.99v-1.54h19-.01zm-18.53-2.57h18.07c.26 0 .46.21.46.46v1.11h-18.99v-1.11c0-.26.21-.46.46-.46zm18.07 12h-18.07c-.26 0-.46-.21-.46-.46v-6.42h19v6.42c0 .26-.21.46-.46.46h-.01z"/>
        <path d="M133.53 23.96h-2c-.28 0-.5.22-.5.5s.22.5.5.5h2c.28 0 .5-.22.5-.5s-.22-.5-.5-.5zM129.53 23.96h-2c-.28 0-.5.22-.5.5s.22.5.5.5h2c.28 0 .5-.22.5-.5s-.22-.5-.5-.5zM121.52 23.96h-2c-.28 0-.5.22-.5.5s.22.5.5.5h2c.28 0 .5-.22.5-.5s-.22-.5-.5-.5zM125.53 23.96h-2c-.28 0-.5.22-.5.5s.22.5.5.5h2c.28 0 .5-.22.5-.5s-.22-.5-.5-.5z"/>
    </g>
    <path d="M144.128 15.168V24h1.248v-4.368c0-.2-.008-.416-.024-.648a22.09 22.09 0 0 0-.096-1.428c-.016-.24-.032-.46-.048-.66h.048l.696 2.04 1.548 4.212h.864l1.536-4.212.708-2.04h.048c-.016.2-.036.42-.06.66-.016.232-.036.472-.06.72l-.048.708a18.88 18.88 0 0 0-.012.648V24h1.296v-8.832h-1.608l-1.596 4.464c-.104.296-.2.592-.288.888-.088.296-.184.596-.288.9h-.06a59.29 59.29 0 0 1-.3-.9 19.09 19.09 0 0 0-.288-.888l-1.62-4.464h-1.596zm11.213 5.484V24h1.392v-3.348l2.664-5.484h-1.452l-1.032 2.34c-.136.336-.276.66-.42.972-.136.312-.276.636-.42.972h-.048c-.152-.336-.296-.66-.432-.972l-.396-.972-1.02-2.34h-1.488l2.652 5.484zm14.461-1.26V18.36h-1.644v-4.284h-1.236v10.836h1.236v-5.52h1.644zm-4.44-4.224h-4.932v1.008h3.708a9.216 9.216 0 0 1-.288 1.692l-3.972.252.168 1.068 3.432-.336a6.27 6.27 0 0 1-1.356 1.86c-.584.552-1.356 1.068-2.316 1.548l.672.96c.984-.496 1.792-1.04 2.424-1.632a7.492 7.492 0 0 0 1.488-1.92c.368-.68.62-1.396.756-2.148.144-.76.216-1.544.216-2.352zm13.959 5.028V19.2h-6.276v-3.156h6.192v-1.008h-7.428v5.16h7.512zm1.116 2.316h-9.828v1.02h9.828v-1.02z" fill="#323334"/>
    <g clip-path="url(#4ep8lnil7c)">
        <path d="M248 14.44h-1.5v-2.28c0-.47-.22-.91-.6-1.19-.38-.29-.86-.38-1.39-.22l-5.45 2.56-5.52-2.58c-.45-.14-.93-.05-1.31.24-.38.28-.6.72-.6 1.2v2.27H230c-.28 0-.5.23-.5.5v5c0 .28.22.5.5.5h.5v8.4c0 .27.22.5.5.5h16c.27 0 .5-.23.5-.5v-8.4h.5c.27 0 .5-.22.5-.5v-5c0-.27-.23-.5-.5-.5zm-8.37-.29 5.23-2.46a.47.47 0 0 1 .44.08c.13.09.2.24.2.39v2.28h-5.87v-.29zm-7-1.98c0-.16.07-.31.2-.4.12-.1.28-.13.36-.11l5.31 2.49v.29h-5.87v-2.27zm-2.13 3.27h8v4h-8v-4zm1 5h7v7.9h-7v-7.9zm15 7.9h-7v-7.9h7v7.9zm1-8.9h-8v-4h8v4z" fill="#000"/>
    </g>
    <path d="M263.493 17.544v4.608h1.236v-8.064h-1.236v2.436h-2.196v1.02h2.196zm-2.004 2.904.66-.96a3.867 3.867 0 0 1-1.08-.576 4.068 4.068 0 0 1-.792-.828 3.545 3.545 0 0 1-.66-2.052v-1.284h-1.26v1.26c0 .4-.06.792-.18 1.176-.112.384-.28.74-.504 1.068a3.67 3.67 0 0 1-.816.876c-.328.256-.704.46-1.128.612l.66.96a4.359 4.359 0 0 0 1.596-1.044c.448-.464.792-1 1.032-1.608.232.552.556 1.036.972 1.452.416.416.916.732 1.5.948zm3.492 3.264h-6.06V21.3h-1.248v3.42h7.308v-1.008zm10.143-5.94v-3.348h-7.296v3.348h7.296zm-1.212-2.388V16.8h-4.86v-1.416h4.86zm-1.812 4.128h4.296v-.984h-9.816v.984h4.272v.9h-3.108v.936h6.204v.768h-6.18v2.712h7.704v-.948h-6.48v-.888h6.168v-2.58h-3.06v-.9zm11.74-3.372v-.984h-2.58v-1.152h-1.236v1.152h-2.58v.984h6.396zm3.588 1.752v-1.02h-1.536v-2.784h-1.236v6.528h1.236v-2.724h1.536zm-4.164.636c0-.288-.064-.552-.192-.792a1.79 1.79 0 0 0-.54-.612 2.278 2.278 0 0 0-.828-.396 3.709 3.709 0 0 0-1.068-.144c-.392 0-.748.048-1.068.144-.32.088-.596.22-.828.396a1.79 1.79 0 0 0-.54.612c-.128.24-.192.504-.192.792 0 .296.064.564.192.804.128.24.308.444.54.612.232.168.508.3.828.396.32.088.676.132 1.068.132s.748-.044 1.068-.132a2.57 2.57 0 0 0 .828-.396 1.79 1.79 0 0 0 .54-.612c.128-.24.192-.508.192-.804zm-4.068 0c0-.312.132-.556.396-.732.264-.184.612-.276 1.044-.276.432 0 .78.092 1.044.276.272.176.408.42.408.732 0 .32-.136.572-.408.756-.264.176-.612.264-1.044.264-.432 0-.78-.088-1.044-.264a.873.873 0 0 1-.396-.756zm-.228 2.64v3.624h6.924v-3.624h-6.924zm1.224 2.64V22.14h4.488v1.668h-4.488z" fill="#323334"/>
    <defs>
        <clipPath id="1dinfs84qa">
            <path fill="#fff" transform="translate(8 8)" d="M0 0h24v24H0z"/>
        </clipPath>
        <clipPath id="17rdz9gw6b">
            <path fill="#fff" transform="translate(114.5 8)" d="M0 0h24v24H0z"/>
        </clipPath>
        <clipPath id="4ep8lnil7c">
            <path fill="#fff" transform="translate(227 8)" d="M0 0h24v24H0z"/>
        </clipPath>
    </defs>
</svg>
