<svg xmlns="http://www.w3.org/2000/svg" width="27" height="25" viewBox="0 0 27 25" fill="none">
<path d="M13.9995 14.6668H17.6661V1.3335H2.40039V4.22233" stroke="black"/>
<path d="M13.9998 14.6667H17.6667C17.6667 11.3255 17.6667 8.00776 17.6667 4.66661L20.6665 4.6665L24.1322 8.33339L26.2223 12V14.4445V21.7778H21.3334C21.3334 20.4334 20.2334 19.3334 18.8889 19.3334C17.5445 19.3334 16.4445 20.4334 16.4445 21.7778H11.5555C11.5555 20.4334 10.4555 19.3334 9.11109 19.3334C7.76664 19.3334 6.66664 20.4334 6.66664 21.7778H2V17.3333" stroke="black"/>
<path d="M9.11047 24.2224C10.4605 24.2224 11.5549 23.128 11.5549 21.7779C11.5549 20.4279 10.4605 19.3335 9.11047 19.3335C7.76043 19.3335 6.66602 20.4279 6.66602 21.7779C6.66602 23.128 7.76043 24.2224 9.11047 24.2224Z" stroke="black" stroke-linecap="round"/>
<path d="M18.8878 24.2224C20.2378 24.2224 21.3323 23.128 21.3323 21.7779C21.3323 20.4279 20.2378 19.3335 18.8878 19.3335C17.5378 19.3335 16.4434 20.4279 16.4434 21.7779C16.4434 23.128 17.5378 24.2224 18.8878 24.2224Z" stroke="black" stroke-linecap="round"/>
<path d="M26.2209 14.4448V12.0003L24.1309 8.66699H21.332V14.4448H26.2209Z" stroke="black" stroke-linecap="round"/>
<path d="M0.666016 7.11133H7.99938" stroke="black" stroke-linejoin="round"/>
<path d="M0.666016 10.7778H5.55492" stroke="black" stroke-linejoin="round"/>
<path d="M0.666016 14.4448H3.11047" stroke="black" stroke-linejoin="round"/>
</svg>