<svg width="32" height="32" viewBox="0 0 32 32" fill="none" xmlns="http://www.w3.org/2000/svg">
    <g clip-path="url(#ec9g70xmta)" fill="#B0B0B0">
        <path d="M16 19.39a3.36 3.36 0 1 0 0-6.72 3.36 3.36 0 0 0 0 6.72z"/>
        <path d="M23.97 13.42C22.07 11.67 19.2 9.7 16 9.7s-6.07 1.97-7.98 3.72c-1.5 1.37-1.5 3.85 0 5.23 1.91 1.74 4.77 3.71 7.98 3.71 3.21 0 6.07-1.97 7.97-3.71 1.51-1.38 1.51-3.86 0-5.23zM16 20.59c-2.52 0-4.56-2.04-4.56-4.56 0-2.52 2.04-4.56 4.56-4.56 2.52 0 4.56 2.05 4.56 4.56A4.57 4.57 0 0 1 16 20.59z"/>
    </g>
    <defs>
        <clipPath id="ec9g70xmta">
            <path fill="#fff" transform="translate(4 4)" d="M0 0h24v24H0z"/>
        </clipPath>
    </defs>
</svg>
