<svg width="28" height="28" viewBox="0 0 28 28" fill="none" xmlns="http://www.w3.org/2000/svg">
<g id="19">
<path id="Ellipse 215" d="M28 14C28 21.732 21.732 28 14 28C6.26801 28 0 21.732 0 14C0 6.26801 6.26801 0 14 0C21.732 0 28 6.26801 28 14Z" fill="white"/>
<path id="Ellipse 215 (Stroke)" fill-rule="evenodd" clip-rule="evenodd" d="M14 26C20.6274 26 26 20.6274 26 14C26 7.37258 20.6274 2 14 2C7.37258 2 2 7.37258 2 14C2 20.6274 7.37258 26 14 26ZM14 28C21.732 28 28 21.732 28 14C28 6.26801 21.732 0 14 0C6.26801 0 0 6.26801 0 14C0 21.732 6.26801 28 14 28Z" fill="#E90E16"/>
<g id="Group 14202">
<path id="Vector" d="M15.0438 20.9999L17.6703 16.6978C17.5993 16.7289 17.4715 16.7601 17.3437 16.7601C15.0864 16.7601 13.2266 15.0299 13.2266 12.458C13.2266 9.74579 15.2 8 17.6135 8C20.027 8 22.0004 9.7302 22.0004 12.4424C22.0004 13.6738 21.6313 14.6246 20.9498 15.8093L17.9684 20.9999H15.0438ZM17.6135 14.4532C18.7635 14.4532 19.4875 13.5647 19.4875 12.4268C19.4875 11.2889 18.7635 10.4005 17.6135 10.4005C16.4635 10.4005 15.7395 11.2889 15.7395 12.4268C15.7395 13.5647 16.4635 14.4532 17.6135 14.4532Z" fill="#262627"/>
<path id="Vector_2" d="M11.6141 8.29639V21.0001H9.0444V10.7592H7V8.29639H11.6141Z" fill="#262627"/>
</g>
</g>
</svg>
