<svg xmlns="http://www.w3.org/2000/svg" width="16" height="16" viewBox="0 0 16 16" fill="none">
<g id="Group 8736">
<path id="Ellipse 65 (Stroke)" fill-rule="evenodd" clip-rule="evenodd" d="M7.9997 14.0007C11.3134 14.0007 13.9997 11.3144 13.9997 8.00065C13.9997 4.68694 11.3134 2.00065 7.9997 2.00065C4.68598 2.00065 1.99968 4.68694 1.99968 8.00065C1.99968 11.3144 4.68598 14.0007 7.9997 14.0007ZM7.9997 14.6673C11.6816 14.6673 14.6664 11.6825 14.6664 8.00065C14.6664 4.31875 11.6816 1.33398 7.9997 1.33398C4.31779 1.33398 1.33301 4.31875 1.33301 8.00065C1.33301 11.6825 4.31779 14.6673 7.9997 14.6673Z" fill="black" fill-opacity="0.9"/>
<path id="Ellipse 93" d="M8.33366 4.33333C8.33366 4.51743 8.18442 4.66667 8.00033 4.66667C7.81623 4.66667 7.66699 4.51743 7.66699 4.33333C7.66699 4.14924 7.81623 4 8.00033 4C8.18442 4 8.33366 4.14924 8.33366 4.33333Z" fill="black" fill-opacity="0.9"/>
<path id="Vector 123 (Stroke)" fill-rule="evenodd" clip-rule="evenodd" d="M8.33366 6.51758V11.7028H7.66699V6.51758H8.33366Z" fill="black" fill-opacity="0.9"/>
</g>
</svg>