<svg xmlns="http://www.w3.org/2000/svg" width="28" height="27" viewBox="0 0 28 27" fill="none">
  <path fill-rule="evenodd" clip-rule="evenodd" d="M2.06668 22.3335C2.02295 22.5489 2 22.7719 2 23.0002C2 24.8411 3.49239 26.3335 5.33335 26.3335C7.1743 26.3335 8.66669 24.8411 8.66669 23.0002C8.66669 22.7719 8.64374 22.5489 8.60001 22.3335H7.57007C7.63293 22.5447 7.66669 22.7685 7.66669 23.0002C7.66669 24.2888 6.62202 25.3335 5.33335 25.3335C4.04467 25.3335 3 24.2888 3 23.0002C3 22.7685 3.03376 22.5447 3.09663 22.3335H2.06668Z" fill="black"/>
  <path d="M9.47763 22.3665H1.18777C1.40563 19.8806 3.23079 18.0332 5.3327 18.0332C7.43461 18.0332 9.25977 19.8806 9.47763 22.3665Z" stroke="black"/>
  <path d="M26.8116 22.3665H18.5218C18.7396 19.8806 20.5648 18.0332 22.6667 18.0332C24.7686 18.0332 26.5938 19.8806 26.8116 22.3665Z" stroke="black"/>
  <path fill-rule="evenodd" clip-rule="evenodd" d="M19.4007 22.3335C19.3569 22.5489 19.334 22.7719 19.334 23.0002C19.334 24.8411 20.8264 26.3335 22.6673 26.3335C24.5083 26.3335 26.0007 24.8411 26.0007 23.0002C26.0007 22.7719 25.9777 22.5489 25.934 22.3335H24.904C24.9669 22.5447 25.0007 22.7685 25.0007 23.0002C25.0007 24.2888 23.956 25.3335 22.6673 25.3335C21.3787 25.3335 20.334 24.2888 20.334 23.0002C20.334 22.7685 20.3677 22.5447 20.4306 22.3335H19.4007Z" fill="black"/>
  <path d="M3.33262 18.9998V15.6665C3.33262 13.4574 5.12348 11.6665 7.33262 11.6665H8.93265C9.48493 11.6665 9.93265 12.1142 9.93265 12.6665V14.6665C9.93265 15.2188 10.3804 15.6665 10.9326 15.6665H17.666C18.2183 15.6665 18.666 15.2188 18.666 14.6665V7.6665" stroke="black"/>
  <line x1="8.66602" y1="21.8335" x2="19.3327" y2="21.8335" stroke="black"/>
  <path d="M14 1H17.3333L18.6667 3.66667" stroke="black"/>
  <path d="M18.666 3.6665H23.3327C24.8055 3.6665 25.9994 4.86041 25.9994 6.33317V6.33317C25.9994 7.80593 24.8055 8.99984 23.3327 8.99984H18.666V3.6665Z" stroke="black"/>
  <path d="M23.3324 9L24.666 13V19" stroke="black"/>
</svg>