<svg width="36" height="36" viewBox="0 0 36 36" fill="none" xmlns="http://www.w3.org/2000/svg">
<g id="36/ star">
<path id="Star 4" d="M17.7758 4.14891C17.8675 3.9631 18.1325 3.9631 18.2242 4.14891L21.7971 11.3883C22.052 11.9048 22.5447 12.2628 23.1147 12.3457L31.1039 13.5066C31.3089 13.5364 31.3908 13.7884 31.2424 13.933L25.4614 19.5681C25.049 19.9701 24.8608 20.5494 24.9581 21.1171L26.3228 29.074C26.3579 29.2782 26.1435 29.434 25.9601 29.3375L18.8143 25.5808C18.3045 25.3128 17.6955 25.3128 17.1857 25.5808L10.0399 29.3375C9.8565 29.434 9.64214 29.2782 9.67717 29.074L11.0419 21.1171C11.1392 20.5494 10.951 19.9701 10.5386 19.5681L4.75755 13.933C4.60917 13.7884 4.69105 13.5364 4.89611 13.5066L12.8853 12.3457C13.4553 12.2628 13.948 11.9048 14.2029 11.3883L17.7758 4.14891Z" stroke="#ABAEB3" stroke-width="1.5"/>
</g>
</svg>
