
<svg width="24" height="24" viewBox="0 0 24 24" fill="none" xmlns="http://www.w3.org/2000/svg">
    <path d="M22 9.77778L22 8.66667C22 7.63337 22 7.11672 21.8864 6.69283C21.5782 5.54253 20.6797 4.64403 19.5294 4.33581C19.1055 4.22223 18.5889 4.22223 17.5556 4.22223" stroke="black" stroke-linejoin="round"/>
    <path d="M2 9.77778L2 8.66667C2 7.63337 2 7.11672 2.11358 6.69283C2.4218 5.54253 3.3203 4.64403 4.4706 4.33581C4.89449 4.22223 5.41114 4.22223 6.44444 4.22223" stroke="black" stroke-linejoin="round"/>
    <path d="M22 14.2222L22 15.3333C22 16.3666 22 16.8833 21.8864 17.3072C21.5782 18.4575 20.6797 19.356 19.5294 19.6642C19.1055 19.7778 18.5889 19.7778 17.5556 19.7778" stroke="black" stroke-linejoin="round"/>
    <path d="M2 14.2222L2 15.3333C2 16.3666 2 16.8833 2.11358 17.3072C2.4218 18.4575 3.3203 19.356 4.4706 19.6642C4.89449 19.7778 5.41114 19.7778 6.44444 19.7778" stroke="black" stroke-linejoin="round"/>
    <path d="M12 15.3334L12 8.66669" stroke="black" stroke-linecap="round" stroke-linejoin="round"/>
    <path d="M7.55566 14.2222L7.55566 9.77777" stroke="black" stroke-linecap="round" stroke-linejoin="round"/>
    <path d="M16.4443 14.2222L16.4443 9.77777" stroke="black" stroke-linecap="round" stroke-linejoin="round"/>
</svg>
