<svg width="24" height="24" viewBox="0 0 24 24" fill="none" xmlns="http://www.w3.org/2000/svg">
    <g clip-path="url(#g6uc2tt92a)">
        <path d="M21 6.44h-1.5V4.16c0-.47-.22-.91-.6-1.19-.38-.29-.86-.38-1.39-.22l-5.45 2.56-5.52-2.58c-.45-.14-.93-.05-1.31.24-.38.28-.6.72-.6 1.2v2.27H3c-.28 0-.5.23-.5.5v5c0 .28.22.5.5.5h.5v8.4c0 .27.22.5.5.5h16c.27 0 .5-.23.5-.5v-8.4h.5c.27 0 .5-.22.5-.5v-5c0-.27-.23-.5-.5-.5zm-8.37-.29 5.23-2.46a.47.47 0 0 1 .44.08c.13.09.2.24.2.39v2.28h-5.87v-.29zm-7-1.98c0-.16.07-.31.2-.4.12-.1.28-.13.36-.11l5.31 2.49v.29H5.63V4.17zM3.5 7.44h8v4h-8v-4zm1 5h7v7.9h-7v-7.9zm15 7.9h-7v-7.9h7v7.9zm1-8.9h-8v-4h8v4z" fill="#000"/>
    </g>
    <defs>
        <clipPath id="g6uc2tt92a">
            <path fill="#fff" d="M0 0h24v24H0z"/>
        </clipPath>
    </defs>
</svg>
