<svg width="360" height="288" viewBox="0 0 360 288" fill="none" xmlns="http://www.w3.org/2000/svg">
<rect width="360" height="288" fill="white"/>
<circle cx="180" cy="84" r="17.25" stroke="#ABAEB3" stroke-width="1.5"/>
<path d="M180 74V89" stroke="#ABAEB3" stroke-width="2" stroke-linecap="round"/>
<circle cx="180" cy="93.6999" r="1.3" fill="#ABAEB3"/>
<path d="M69.0196 119.468H66.4576V118.278H69.0196V115.436H70.4616V124.844H69.0196V119.468ZM66.6816 122.856C65.3236 122.352 64.3436 121.344 63.7976 120.056C63.2376 121.47 62.1876 122.59 60.7316 123.15L59.9616 122.03C61.9356 121.316 63.0276 119.552 63.0276 117.676V116.206H64.4976V117.704C64.4976 119.384 65.5616 121.064 67.4516 121.736L66.6816 122.856ZM70.7556 126.664V127.84H62.2296V123.85H63.6856V126.664H70.7556ZM83.2645 115.436V123.122H81.8925V119.818H80.4925V123.038H79.1485V115.674H80.4925V118.642H81.8925V115.436H83.2645ZM78.5185 122.226C77.0625 122.492 75.8725 122.534 73.8985 122.534H73.0445V116.332H77.9725V117.494H74.4445V118.824H77.8325V119.944H74.4445V121.358C76.0405 121.358 77.1325 121.274 78.3645 121.05L78.5185 122.226ZM74.6825 123.738H83.2645V128.092H81.8225V124.9H74.6825V123.738ZM95.5634 124.928H94.1214V115.422H95.5634V124.928ZM93.3234 122.954C90.6634 123.332 87.7514 123.402 85.3854 123.402L85.1894 122.24C86.2534 122.24 87.3874 122.226 88.6194 122.184V120.63H86.2814V116.22H92.3574V117.396H87.7234V119.454H92.4274V120.63H90.0614V122.128C91.1814 122.086 92.2174 122.016 93.2254 121.904L93.3234 122.954ZM95.9554 126.664V127.84H87.2334V124.27H88.6754V126.664H95.9554ZM101.047 121.736C103.511 121.33 105.513 119.608 105.513 117.69V117.662H101.495V116.5H111.043V117.662H107.025V117.69C107.025 119.608 109.041 121.288 111.547 121.694L110.959 122.842C108.817 122.436 107.109 121.302 106.269 119.664C105.429 121.302 103.721 122.478 101.649 122.884L101.047 121.736ZM112.009 125.348V126.524H100.557V125.348H105.555V122.394H107.011V125.348H112.009ZM122.166 119.23V115.436H123.608V124.746H122.166V120.42H119.674V119.23H122.166ZM119.744 116.402C119.744 119.748 117.504 122.198 113.92 123.388L113.29 122.24C116.09 121.344 117.924 119.608 118.19 117.578H113.948V116.402H119.744ZM123.93 126.664V127.84H115.502V123.808H116.944V126.664H123.93ZM136.509 115.436V128.064H135.137V115.436H136.509ZM132.603 115.674H133.947V127.476H132.603V121.414H131.259C131.147 123.878 130.069 125.39 128.557 125.39C126.933 125.39 125.841 123.654 125.841 120.896C125.841 118.124 126.933 116.416 128.557 116.416C130.083 116.416 131.091 117.858 131.245 120.224H132.603V115.674ZM128.557 124.032C129.453 124.032 129.957 122.926 129.957 120.896C129.957 118.866 129.453 117.774 128.557 117.774C127.661 117.774 127.157 118.866 127.157 120.896C127.157 122.926 127.661 124.032 128.557 124.032ZM148.794 115.408V128.092H147.338V120.742H144.636V119.566H147.338V115.408H148.794ZM142.872 118.544C142.872 120.882 144.062 123.192 146.008 124.088L145.154 125.25C143.698 124.536 142.704 123.15 142.158 121.456C141.598 123.262 140.576 124.718 139.12 125.46L138.21 124.312C140.184 123.346 141.416 120.91 141.416 118.544V116.458H142.872V118.544ZM164.176 115.422V122.59H162.734V119.762H160.228V118.572H162.734V115.422H164.176ZM160.2 116.192C160.2 119.482 158.016 121.736 154.376 122.772L153.788 121.624C156.756 120.84 158.38 119.342 158.646 117.368H154.46V116.192H160.2ZM155.944 123.108H164.176V127.924H155.944V123.108ZM157.358 126.762H162.762V124.256H157.358V126.762ZM176.979 115.436V123.094H175.607V119.804H174.277V123.024H172.919V115.646H174.277V118.628H175.607V115.436H176.979ZM171.841 122.366C170.721 121.904 169.937 121.05 169.475 120.028C169.013 121.204 168.215 122.156 166.983 122.702L166.213 121.596C167.907 120.812 168.761 119.23 168.761 117.774V116.164H170.161V117.774C170.161 119.188 170.973 120.602 172.611 121.274L171.841 122.366ZM168.411 123.724H176.979V128.092H175.537V124.886H168.411V123.724ZM189.263 115.408V128.106H187.807V115.408H189.263ZM183.747 124.186C184.867 124.144 185.973 124.074 187.037 123.948L187.149 125.012C184.419 125.46 181.493 125.474 179.099 125.474L178.917 124.284C179.995 124.284 181.115 124.27 182.305 124.242V121.904H179.799V116.584H186.267V117.76H181.241V120.742H186.323V121.904H183.747V124.186ZM201.59 120.238H192.91V115.884H194.352V119.062H201.59V120.238ZM202.906 121.75V122.912H191.426V121.75H202.906ZM194.268 126.636H201.66V127.798H192.826V124.074H194.268V126.636ZM217.644 115.436V128.064H216.272V121.54H214.83V127.476H213.472V115.674H214.83V120.364H216.272V115.436H217.644ZM207.27 116.822H212.142V124.788H207.27V116.822ZM208.614 123.64H210.798V117.97H208.614V123.64ZM231.091 118.516V119.706H229.299V122.996H227.857V115.436H229.299V118.516H231.091ZM226.149 122.506C224.735 122.058 223.727 121.148 223.181 119.972C222.621 121.316 221.557 122.394 220.045 122.912L219.317 121.778C221.305 121.106 222.411 119.468 222.411 117.746V117.494H219.723V116.332H226.513V117.494H223.867V117.732C223.867 119.314 224.917 120.756 226.849 121.386L226.149 122.506ZM225.225 123.29C227.829 123.29 229.439 124.172 229.439 125.684C229.439 127.196 227.829 128.078 225.225 128.078C222.621 128.078 221.011 127.196 221.011 125.684C221.011 124.172 222.621 123.29 225.225 123.29ZM225.225 126.944C227.031 126.944 228.011 126.524 228.011 125.684C228.011 124.844 227.031 124.424 225.225 124.424C223.419 124.424 222.439 124.844 222.439 125.684C222.439 126.524 223.419 126.944 225.225 126.944ZM242.41 115.422V128.106H240.954V115.422H242.41ZM235.676 116.36C237.566 116.36 238.938 118.096 238.938 120.812C238.938 123.556 237.566 125.278 235.676 125.278C233.814 125.278 232.428 123.556 232.428 120.812C232.428 118.096 233.814 116.36 235.676 116.36ZM235.676 117.662C234.556 117.662 233.814 118.838 233.814 120.812C233.814 122.842 234.556 123.99 235.676 123.99C236.796 123.99 237.552 122.842 237.552 120.812C237.552 118.838 236.796 117.662 235.676 117.662ZM254.11 119.468C253.844 120.896 252.542 121.848 250.876 121.848C248.972 121.848 247.586 120.644 247.586 118.894C247.586 117.172 248.972 115.968 250.876 115.968C252.528 115.968 253.83 116.892 254.096 118.278H256.448V115.45H257.89V122.128H256.448V119.468H254.11ZM248.972 118.894C248.972 119.958 249.756 120.658 250.876 120.658C251.982 120.658 252.794 119.958 252.794 118.894C252.794 117.83 251.996 117.158 250.876 117.158C249.756 117.158 248.972 117.83 248.972 118.894ZM256.98 123.766C256.98 125.11 257.68 126.398 259.206 126.958L258.492 128.05C257.372 127.616 256.644 126.804 256.252 125.838C255.818 126.79 255.118 127.602 254.04 128.05L253.312 126.958C254.838 126.328 255.552 125.012 255.552 123.766V122.758H256.98V123.766ZM253.312 122.856V127.924H248.832V122.856H250.176V124.284H251.982V122.856H253.312ZM251.982 125.348H250.176V126.818H251.982V125.348ZM270.301 120.336C268.215 120.056 266.549 119.132 265.709 117.788C264.869 119.132 263.217 120.056 261.131 120.336L260.599 119.216C263.119 118.88 264.967 117.522 264.967 116.052V115.562H266.451V116.052C266.451 117.522 268.313 118.88 270.819 119.216L270.301 120.336ZM271.435 121.092V122.24H259.983V121.092H271.435ZM268.523 123.024H269.965V127.924H261.397V123.024H262.825V124.312H268.523V123.024ZM268.523 125.418H262.825V126.776H268.523V125.418ZM283.02 115.436V128.078H281.578V115.436H283.02ZM274.746 123.654C276.552 123.64 278.386 123.486 280.416 123.08L280.57 124.284C278.372 124.732 276.37 124.886 274.396 124.886H273.318V116.668H274.746V123.654ZM296.914 121.484H294.94V128.092H293.498V115.422H294.94V120.294H296.914V121.484ZM287.1 123.78C289.116 123.78 290.698 123.668 292.448 123.374L292.602 124.564C290.698 124.9 288.976 124.984 286.694 124.984H285.658V116.626H291.538V117.802H287.1V123.78ZM299.287 127.182H297.635V125.446H299.287V127.182Z" fill="#8B8C8D"/>
</svg>
