<svg width="24" height="24" viewBox="0 0 24 24" fill="none" xmlns="http://www.w3.org/2000/svg">
    <path fill-rule="evenodd" clip-rule="evenodd" d="M15.688 18.322H8.312s-.79-.06-.79-.803v-1.041a4.478 4.478 0 0 1 8.957 0v1.04c0 .744-.79.804-.79.804h-.001zm-6.585-1.58h5.795v-.264c0-.768-.306-1.506-.849-2.05a2.903 2.903 0 0 0-4.098 0 2.903 2.903 0 0 0-.849 2.05v.263z" fill="#000" stroke="#E9EAEB" stroke-width=".5"/>
    <path fill-rule="evenodd" clip-rule="evenodd" d="M16.741 16.741a.79.79 0 0 1 0 1.581H7.258a.79.79 0 0 1 0-1.58h9.483zM12.79 12.79a.79.79 0 0 1-1.58 0v-1.053a.79.79 0 0 1 1.58 0v1.053z" fill="#000" stroke="#E9EAEB" stroke-width=".5"/>
    <path fill-rule="evenodd" clip-rule="evenodd" d="M19.64 7.785v13.698a1.844 1.844 0 0 1-1.845 1.844H6.206a1.844 1.844 0 0 1-1.844-1.844V6.731a.79.79 0 0 1 .79-.79h12.644c1.02 0 1.844.826 1.844 1.844zm-1.581 0a.263.263 0 0 0-.264-.263H5.942v13.961c0 .146.118.264.264.264h11.59a.263.263 0 0 0 .264-.264V7.785z" fill="#000" stroke="#E9EAEB" stroke-width=".5"/>
    <path fill-rule="evenodd" clip-rule="evenodd" d="M17.005 2.517V6.73a.79.79 0 0 1-.79.79H5.15a.79.79 0 0 1-.377-1.485L14.331.87c.013-.007.024-.013.037-.018a1.845 1.845 0 0 1 2.636 1.665zm-1.58 0a.26.26 0 0 0-.124-.223.26.26 0 0 0-.242-.02L8.276 5.94h7.15V2.517z" fill="#000" stroke="#E9EAEB" stroke-width=".5"/>
</svg>
