<svg width="14" height="15" viewBox="0 0 14 15" fill="none" xmlns="http://www.w3.org/2000/svg">
<mask id="mask0_2651_8169" style="mask-type:alpha" maskUnits="userSpaceOnUse" x="0" y="0" width="14" height="15">
<path d="M5.19315 11.5297L5.19317 11.5297C5.19474 11.5293 5.19631 11.5289 5.19787 11.5285C5.2114 11.5251 5.22484 11.5218 5.23818 11.5184C5.4609 11.463 5.65808 11.4139 5.83711 11.3126C6.01614 11.2112 6.15966 11.0674 6.32179 10.9049C6.33263 10.894 6.34355 10.8831 6.35458 10.8721L11.011 6.21572C11.028 6.19864 11.045 6.18174 11.0618 6.16501C11.2925 5.93485 11.4922 5.73574 11.6039 5.50417C11.8025 5.09245 11.8025 4.61264 11.6039 4.20091C11.4922 3.96935 11.2925 3.77024 11.0618 3.54008C11.045 3.52335 11.028 3.50645 11.011 3.48937C10.9939 3.47229 10.977 3.45535 10.9603 3.43858C10.7301 3.20779 10.531 3.00814 10.2994 2.89646L10.0822 3.34681L10.2994 2.89646C9.88769 2.69788 9.40789 2.69788 8.99616 2.89646L9.21337 3.34681L8.99616 2.89646C8.7646 3.00814 8.56548 3.20779 8.33532 3.43858C8.31859 3.45535 8.3017 3.47229 8.28462 3.48937L3.62824 8.14574C3.61721 8.15676 3.60627 8.16768 3.59541 8.17852C3.43293 8.34065 3.2891 8.48417 3.18774 8.66321C3.08637 8.84224 3.0373 9.03941 2.98186 9.26214C2.97816 9.27704 2.97442 9.29204 2.97064 9.30717L2.63403 10.6536C2.63182 10.6625 2.62959 10.6714 2.62735 10.6803C2.58811 10.837 2.5462 11.0043 2.53245 11.1449C2.51732 11.2996 2.52084 11.5606 2.73025 11.7701C2.93967 11.9795 3.20072 11.983 3.35545 11.9679C3.49599 11.9541 3.66333 11.9122 3.82002 11.873C3.82895 11.8707 3.83785 11.8685 3.84671 11.8663L5.19315 11.5297Z" stroke="#757575"/>
<path d="M8.16699 4L10.5003 6.33333" stroke="#757575"/>
</mask>
<g mask="url(#mask0_2651_8169)">
<rect y="0.5" width="14" height="14" fill="#757575"/>
</g>
</svg>
