<svg width="56" height="56" viewBox="0 0 56 56" fill="none" xmlns="http://www.w3.org/2000/svg">
    <g clip-path="url(#vrf8pv7qda)" fill="#4B4D4D">
        <path d="M33.2 22.932c-.333 0-.65-.2-.783-.534l-3.167-7.65a.859.859 0 0 1 .467-1.116.859.859 0 0 1 1.116.466L34 21.748a.859.859 0 0 1-.467 1.117.746.746 0 0 1-.333.067zM22.234 33.367s-.167 0-.234-.033l-7.716-2.267a.867.867 0 0 1-.584-1.066.867.867 0 0 1 1.067-.584l7.717 2.267c.45.133.716.617.583 1.067a.87.87 0 0 1-.817.616h-.016zM27.683 28.467c1.25-1.316 1.417-3.283.883-4.966-.533-1.684-1.8-2.617-3.4-3.1-1.6-.484-2.983-.134-4.483.216-.817.184-1.6.367-2.417.084a3.39 3.39 0 0 1-1.8-1.567c-.883-1.667-.066-3.85 1.6-4.65.984-.483.117-1.95-.866-1.483-3.35 1.616-3.684 6.45-.767 8.633 1.533 1.15 3.167 1 4.933.6 1.5-.35 2.917-.55 4.317.25 1.533.883 2.033 3.45.783 4.783-.75.8.45 2.017 1.217 1.217v-.017zM25.067 17.35a.867.867 0 1 0 0-1.733.867.867 0 0 0 0 1.733zM15.9 25.401a.867.867 0 1 0 0-1.733.867.867 0 0 0 0 1.733zM22.3 29.933a.867.867 0 1 0 0-1.734.867.867 0 0 0 0 1.734zM44.016 42.949l-3.35-10.2-2.516-7.667-.734-2.2a.82.82 0 0 0-.616-.566.897.897 0 0 0-.8.216l-4.684 4.7-8.75 8.75c-.216.2-.3.517-.233.8a.877.877 0 0 0 .567.617l5.5 1.817 4.233 1.383 4.433 1.45 5.884 1.95c.083.017.166.033.266.033.217 0 .45-.083.6-.233a.876.876 0 0 0 .2-.867v.017zM28.1 37.332l-3.35-1.116 5.333-5.334-1.983 6.45zm4.233 1.384-2.617-.85 2.95-9.567 3.567-3.567.2.65-4.1 13.334zm4.433 1.45-2.8-.9 3.4-11.084 1.584 4.834-2.184 7.15zm1.617.55 1.483-4.884 1.984 6.034-3.467-1.15z"/>
    </g>
    <defs>
        <clipPath id="vrf8pv7qda">
            <path fill="#fff" transform="translate(8 8)" d="M0 0h40v40H0z"/>
        </clipPath>
    </defs>
</svg>
