<svg width="16" height="17" viewBox="0 0 16 17" fill="none" xmlns="http://www.w3.org/2000/svg">
    <path fill-rule="evenodd" clip-rule="evenodd" d="M14.774 8.598A6.802 6.802 0 0 1 8.6 14.774v-1.97a.6.6 0 0 0-1.2 0v1.97a6.802 6.802 0 0 1-6.174-6.172H3.2a.6.6 0 0 0 0-1.2H1.226A6.802 6.802 0 0 1 7.4 1.226V3.2a.6.6 0 0 0 1.2 0V1.226a6.802 6.802 0 0 1 6.174 6.172H12.8a.6.6 0 1 0 0 1.2h1.974zm1.204 0a8.002 8.002 0 0 1-7.378 7.38v.025H7.4v-.025A8.002 8.002 0 0 1 .022 8.602H0v-1.2h.022A8.002 8.002 0 0 1 7.4.022V0h1.2v.022a8.002 8.002 0 0 1 7.378 7.376H16v1.2h-.022zM8 8.803a.8.8 0 1 0 0-1.6.8.8 0 0 0 0 1.6z" fill="#0085FF"/>
</svg>
