<svg width="24" height="24" viewBox="0 0 24 24" fill="none" xmlns="http://www.w3.org/2000/svg">
<mask id="mask0_5685_5528" style="mask-type:alpha" maskUnits="userSpaceOnUse" x="0" y="0" width="25" height="24">
<path fill-rule="evenodd" clip-rule="evenodd" d="M22 4.99994H2V9.99994C3.10457 9.99994 4 10.8954 4 11.9999C4 13.1045 3.10457 13.9999 2 13.9999V18.9999H22V13.9999C20.8954 13.9999 20 13.1045 20 11.9999C20 10.8954 20.8954 9.99994 22 9.99994V4.99994ZM15.0534 9.42857C15.2486 9.2333 15.2486 8.91672 15.0534 8.72146C14.8581 8.5262 14.5415 8.5262 14.3463 8.72146L8.94625 14.1215C8.75099 14.3167 8.75099 14.6333 8.94625 14.8286C9.14151 15.0238 9.4581 15.0238 9.65336 14.8286L15.0534 9.42857ZM13.9451 14.475C13.9451 14.0608 14.2808 13.725 14.6951 13.725H14.7031C15.1174 13.725 15.4531 14.0608 15.4531 14.475C15.4531 14.8892 15.1174 15.225 14.7031 15.225H14.6951C14.2808 15.225 13.9451 14.8892 13.9451 14.475ZM9.29515 8.77501C8.88094 8.77501 8.54515 9.1108 8.54515 9.52501C8.54515 9.93923 8.88094 10.275 9.29515 10.275H9.30324C9.71745 10.275 10.0532 9.93923 10.0532 9.52501C10.0532 9.1108 9.71745 8.77501 9.30324 8.77501H9.29515Z" fill="#570F9E"/>
</mask>
<g mask="url(#mask0_5685_5528)">
<rect width="24" height="24" fill="#570F9E"/>
</g>
</svg>
