<svg width="29" height="28" viewBox="0 0 29 28" fill="none" xmlns="http://www.w3.org/2000/svg">
<mask id="mask0_3105_14590" style="mask-type:alpha" maskUnits="userSpaceOnUse" x="0" y="0" width="29" height="28">
<path d="M20.8876 3.50001V3.50001C21.924 3.50001 22.4422 3.50001 22.844 3.6874C23.2702 3.88611 23.6127 4.22862 23.8114 4.65477C23.9988 5.05662 23.9988 5.57479 23.9988 6.61113L23.9988 10.6667C23.9988 11.1381 23.9988 11.3738 23.8523 11.5202C23.7059 11.6667 23.4702 11.6667 22.9988 11.6667L18.8136 11.6667M20.8876 3.50001V3.50001C19.7422 3.50001 18.8136 4.42861 18.8136 5.57409L18.8136 11.6667M20.8876 3.50001L9.33203 3.50001C7.44641 3.50001 6.5036 3.50001 5.91782 4.0858C5.33203 4.67158 5.33203 5.61439 5.33203 7.50001L5.33203 24.5L9.4802 23.3333L12.5913 24.5L15.7024 23.3333L18.8136 24.5L18.8136 11.6667" stroke="#222222"/>
<path d="M8.44336 9.33301L15.7026 9.33301" stroke="#222222" stroke-linecap="round"/>
<path d="M11.5547 14H8.44356" stroke="#222222" stroke-linecap="round"/>
<path d="M8.44336 18.667L13.6286 18.667" stroke="#222222" stroke-linecap="round"/>
</mask>
<g mask="url(#mask0_3105_14590)">
<rect x="0.666016" width="28" height="28" fill="black" fill-opacity="0.15"/>
</g>
</svg>
