<svg width="24" height="24" viewBox="0 0 24 24" fill="none" xmlns="http://www.w3.org/2000/svg">
    <path fill-rule="evenodd" clip-rule="evenodd" d="M20 3.772v17.37a.686.686 0 0 1-1.073.567l-2.281-1.557-2.157 1.548a.684.684 0 0 1-.85-.042l-1.64-1.432-1.638 1.432a.684.684 0 0 1-.85.042l-2.158-1.548-2.28 1.557A.685.685 0 0 1 4 21.143V3.772a1.6 1.6 0 0 1 1.6-1.6h12.8a1.6 1.6 0 0 1 1.6 1.6zm-1.372 0a.229.229 0 0 0-.229-.229H5.6a.229.229 0 0 0-.228.229v16.073l1.605-1.096a.685.685 0 0 1 .787.009l2.104 1.51 1.68-1.47a.685.685 0 0 1 .904 0l1.68 1.47 2.105-1.51a.685.685 0 0 1 .787-.01l1.605 1.097V3.772z" fill="#000"/>
    <path fill-rule="evenodd" clip-rule="evenodd" d="M8.342 7.2a.686.686 0 0 1 0-1.371h7.315a.686.686 0 0 1 0 1.371H8.342zM8.342 10.857a.686.686 0 0 1 0-1.371h7.315a.686.686 0 0 1 0 1.371H8.342zM8.342 14.514a.686.686 0 0 1 0-1.37H12a.686.686 0 0 1 0 1.37H8.342z" fill="#000"/>
</svg>
