<svg width="32" height="32" viewBox="0 0 32 32" fill="none" xmlns="http://www.w3.org/2000/svg">
    <g clip-path="url(#rzv5lxv7qa)" fill="#B0B0B0">
        <path d="M11.28 8.36h-1.6a1.2 1.2 0 0 0-1.2 1.2v1.4a1.2 1.2 0 0 0 1.2 1.2h1.6a1.2 1.2 0 0 0 1.2-1.2v-1.4a1.2 1.2 0 0 0-1.2-1.2zM11.28 14.1h-1.6a1.2 1.2 0 0 0-1.2 1.2v1.4a1.2 1.2 0 0 0 1.2 1.2h1.6a1.2 1.2 0 0 0 1.2-1.2v-1.4a1.2 1.2 0 0 0-1.2-1.2zM11.28 19.84h-1.6a1.2 1.2 0 0 0-1.2 1.2v1.4a1.2 1.2 0 0 0 1.2 1.2h1.6a1.2 1.2 0 0 0 1.2-1.2v-1.4a1.2 1.2 0 0 0-1.2-1.2zM22.5 8.36h-7.3a1.2 1.2 0 0 0-1.2 1.2v1.4a1.2 1.2 0 0 0 1.2 1.2h7.3a1.2 1.2 0 0 0 1.2-1.2v-1.4a1.2 1.2 0 0 0-1.2-1.2zM22.5 14.1h-7.3a1.2 1.2 0 0 0-1.2 1.2v1.4a1.2 1.2 0 0 0 1.2 1.2h7.3a1.2 1.2 0 0 0 1.2-1.2v-1.4a1.2 1.2 0 0 0-1.2-1.2zM22.5 19.84h-7.3a1.2 1.2 0 0 0-1.2 1.2v1.4a1.2 1.2 0 0 0 1.2 1.2h7.3a1.2 1.2 0 0 0 1.2-1.2v-1.4a1.2 1.2 0 0 0-1.2-1.2z"/>
    </g>
    <defs>
        <clipPath id="rzv5lxv7qa">
            <path fill="#fff" transform="translate(4 4)" d="M0 0h24v24H0z"/>
        </clipPath>
    </defs>
</svg>
