<svg width="44" height="44" viewBox="0 0 44 44" fill="none" xmlns="http://www.w3.org/2000/svg">
<mask id="mask0_2651_33754" style="mask-type:alpha" maskUnits="userSpaceOnUse" x="0" y="0" width="44" height="44">
<path fill-rule="evenodd" clip-rule="evenodd" d="M29.8392 28.9845L29.8701 28.9537C32.4319 26.3918 34.8331 22.4637 34.8331 18.3334C34.8331 11.2457 29.0874 5.50002 21.9997 5.50002C14.912 5.50002 9.16635 11.2457 9.16635 18.3334C9.16635 22.4637 11.5676 26.3918 14.1294 28.9537L14.1602 28.9845L21.9997 37.6079L29.8392 28.9845ZM21.9997 40.3334L12.833 30.25C10.083 27.5 7.33301 23.1329 7.33301 18.3334C7.33301 10.2332 13.8995 3.66669 21.9997 3.66669C30.0999 3.66669 36.6665 10.2332 36.6665 18.3334C36.6665 23.1329 33.9164 27.5 31.1664 30.25L21.9997 40.3334ZM29.3331 18.3334C29.3331 22.3834 26.0498 25.6667 21.9997 25.6667C17.9496 25.6667 14.6664 22.3834 14.6664 18.3334C14.6664 14.2833 17.9496 11 21.9997 11C26.0498 11 29.3331 14.2833 29.3331 18.3334ZM27.4998 18.3334C27.4998 21.3709 25.0373 23.8334 21.9997 23.8334C18.9622 23.8334 16.4997 21.3709 16.4997 18.3334C16.4997 15.2958 18.9622 12.8334 21.9997 12.8334C25.0373 12.8334 27.4998 15.2958 27.4998 18.3334Z" fill="black" fill-opacity="0.9"/>
</mask>
<g mask="url(#mask0_2651_33754)">
<rect width="44" height="44" fill="black" fill-opacity="0.5"/>
</g>
</svg>
