<svg width="24" height="24" viewBox="0 0 24 24" fill="none" xmlns="http://www.w3.org/2000/svg">
<mask id="mask0_2858_36598" style="mask-type:alpha" maskUnits="userSpaceOnUse" x="4" y="4" width="16" height="16">
<path fill-rule="evenodd" clip-rule="evenodd" d="M11.9999 17.9997C15.3137 17.9997 18 15.3134 18 11.9997C18 8.68597 15.3137 5.99967 11.9999 5.99967C8.68622 5.99967 5.99992 8.68597 5.99992 11.9997C5.99992 15.3134 8.68622 17.9997 11.9999 17.9997ZM11.9999 18.6663C15.6819 18.6663 18.6666 15.6816 18.6666 11.9997C18.6666 8.31778 15.6819 5.33301 11.9999 5.33301C8.31803 5.33301 5.33325 8.31778 5.33325 11.9997C5.33325 15.6816 8.31803 18.6663 11.9999 18.6663Z" fill="black"/>
<path d="M12.3332 15.6663C12.3332 15.8504 12.1839 15.9997 11.9998 15.9997C11.8157 15.9997 11.6665 15.8504 11.6665 15.6663C11.6665 15.4822 11.8157 15.333 11.9998 15.333C12.1839 15.333 12.3332 15.4822 12.3332 15.6663Z" fill="black"/>
<path fill-rule="evenodd" clip-rule="evenodd" d="M9.6665 10.3333C9.6665 9.04467 10.7112 8 11.9998 8C13.2885 8 14.3332 9.04467 14.3332 10.3333V10.5046C14.3332 11.3421 13.9147 12.1241 13.2179 12.5886L12.8189 12.8546C12.5154 13.0569 12.3332 13.3975 12.3332 13.7621V14.3333H11.6665V13.7621C11.6665 13.1745 11.9602 12.6258 12.4491 12.2999L12.8481 12.0339C13.3594 11.693 13.6665 11.1192 13.6665 10.5046V10.3333C13.6665 9.41286 12.9203 8.66667 11.9998 8.66667C11.0794 8.66667 10.3332 9.41286 10.3332 10.3333H9.6665Z" fill="black"/>
</mask>
<g mask="url(#mask0_2858_36598)">
<rect x="4" y="4" width="16" height="16" fill="black" fill-opacity="0.5"/>
</g>
</svg>
