<svg width="24" height="24" viewBox="0 0 24 24" fill="none" xmlns="http://www.w3.org/2000/svg">
    <path d="m19.789 10.742 1.061.816a.71.71 0 0 0 1.002-.13.714.714 0 0 0-.13-1.002L13.846 4.37a3.032 3.032 0 0 0-3.694 0l-7.874 6.056a.714.714 0 0 0 .871 1.133l1.061-.817v6.487c0 1.67 1.36 3.03 3.03 3.03h9.518c1.67 0 3.03-1.36 3.03-3.03v-6.487zm-3.03 8.088h-4.045v-3.348a.714.714 0 0 0-1.428 0v3.348H7.24a1.603 1.603 0 0 1-1.601-1.601V9.643l5.384-4.14a1.604 1.604 0 0 1 1.952 0l5.384 4.14v7.586c0 .883-.718 1.6-1.6 1.6h-.001z" fill="#000"/>
</svg>
