<!--<svg width="44" height="44" viewBox="0 0 44 44" fill="none" xmlns="http://www.w3.org/2000/svg">-->
<!--<mask id="mask0_2900_17877" style="mask-type:alpha" maskUnits="userSpaceOnUse" x="0" y="0" width="44" height="44">-->
<!--<path d="M6.48752 9.6665H37.5133C38.8154 9.6665 39.8338 10.6723 39.8338 11.8683V32.1314C39.8338 33.3274 38.8154 34.3332 37.5133 34.3332H6.48752C5.18544 34.3332 4.16699 33.3274 4.16699 32.1314V11.8683C4.16699 10.6723 5.18544 9.6665 6.48752 9.6665Z" stroke="#000001" stroke-linecap="round" stroke-linejoin="round"/>-->
<!--<path d="M3.66699 20.1665H40.3338" stroke="#000001" stroke-linejoin="round"/>-->
<!--<path d="M3.66699 14.6665H40.3338" stroke="#000001" stroke-linejoin="round"/>-->
<!--<path d="M29.334 29.333H34.834" stroke="#000001" stroke-linecap="round" stroke-linejoin="round"/>-->
<!--</mask>-->
<!--<g mask="url(#mask0_2900_17877)">-->
<!--<rect width="44" height="44" fill="black" fill-opacity="0.5"/>-->
<!--</g>-->
<!--</svg>-->


<svg width="44" height="44" viewBox="0 0 24 24" fill="none" xmlns="http://www.w3.org/2000/svg">
    <path d="M3.53846 5.5H20.4615C21.0556 5.5 21.5 5.95599 21.5 6.47368V17.5263C21.5 18.044 21.0556 18.5 20.4615 18.5H3.53846C2.94445 18.5 2.5 18.044 2.5 17.5263V6.47368C2.5 5.95599 2.94445 5.5 3.53846 5.5Z"
          stroke="#000001" stroke-linecap="round" stroke-linejoin="round" stroke-opacity="0.3"/>
    <path d="M2 11H22" stroke="#000001" stroke-opacity="0.3" stroke-linejoin="round"/>
    <path d="M2 8H22" stroke="#000001" stroke-opacity="0.3" stroke-linejoin="round"/>
    <path d="M16 16H19" stroke="#000001" stroke-opacity="0.3" stroke-linecap="round" stroke-linejoin="round"/>
</svg>
