<svg width="56" height="56" viewBox="0 0 56 56" fill="none" xmlns="http://www.w3.org/2000/svg">
<circle cx="28" cy="28" r="15.5" fill="white" stroke="#323334"/>
<g clip-path="url(#clip0_1171_19332)">
<path d="M34.8577 33.4869H21.1434C20.9034 33.4869 20.7148 33.2983 20.7148 33.0583V31.1212C20.7148 30.6154 21.0491 30.1697 21.572 29.9983C22.292 29.7583 22.4291 28.8583 22.4377 28.8497V25.4126C22.4377 25.4126 22.4377 25.344 22.4377 25.3097C22.6006 22.3526 25.0263 20.0469 27.992 20.0469C30.9577 20.0469 33.3834 22.3526 33.5463 25.3097C33.5548 25.344 33.5634 25.3783 33.5634 25.4126V28.9097C33.5634 28.9097 33.7263 29.7583 34.4206 29.9983C34.9434 30.1697 35.2777 30.6154 35.2777 31.1212V33.0583C35.2777 33.2983 35.0891 33.4869 34.8491 33.4869H34.8577ZM21.572 32.6297H34.4291V31.1212C34.4291 30.9583 34.292 30.8554 34.1548 30.8126C32.9291 30.4012 32.7234 29.0383 32.7148 28.9783V25.5069C32.7148 25.5069 32.7063 25.464 32.7063 25.4383C32.6034 22.9012 30.5377 20.9126 28.0006 20.9126C25.4634 20.9126 23.3977 22.9012 23.2948 25.4383C23.2948 25.464 23.2948 25.4812 23.2948 25.5069V28.9183C23.2863 29.0383 23.072 30.4012 21.8548 30.8126C21.7263 30.8554 21.5806 30.9583 21.5806 31.1212V32.6297H21.572Z" fill="#262627"/>
<path d="M28.0007 35.9546C26.4064 35.9546 25.1035 34.6518 25.1035 33.0575C25.1035 32.8175 25.2921 32.6289 25.5321 32.6289H30.4692C30.7092 32.6289 30.8978 32.8175 30.8978 33.0575C30.8978 34.6518 29.5949 35.9546 28.0007 35.9546ZM26.0035 33.486C26.2007 34.4032 27.0235 35.0975 28.0007 35.0975C28.9778 35.0975 29.8007 34.4032 29.9978 33.486H26.0121H26.0035Z" fill="#262627"/>
</g>
<circle cx="33.1433" cy="22.8571" r="3.85714" fill="#262627"/>
<defs>
<clipPath id="clip0_1171_19332">
<rect width="20.5714" height="20.5714" fill="white" transform="translate(17.7148 17.7148)"/>
</clipPath>
</defs>
</svg>
