<svg width="20" height="20" viewBox="0 0 20 20" fill="none" xmlns="http://www.w3.org/2000/svg">
<g id="Group 1102">
<g id="19">
<path d="M5 13.581H9.7V12.141H8.36V6.13098H7.05C6.53 6.46098 6.01 6.66098 5.21 6.81098V7.91098H6.58V12.141H5V13.581Z" fill="#262627"/>
<path d="M12.1137 8.52098C12.1137 7.66098 12.5137 7.33098 12.9837 7.33098C13.4437 7.33098 13.9138 7.68098 14.0538 8.91098C13.7938 9.41098 13.3838 9.61098 13.0138 9.61098C12.5138 9.61098 12.1137 9.32098 12.1137 8.52098ZM12.7837 13.721C14.3038 13.721 15.7238 12.471 15.7238 9.77098C15.7238 7.07098 14.3537 6.00098 12.9437 6.00098C11.6137 6.00098 10.4937 6.94098 10.4937 8.52098C10.4937 10.121 11.4237 10.861 12.6737 10.861C13.1038 10.861 13.7238 10.591 14.0938 10.131C14.0238 11.741 13.4237 12.281 12.6637 12.281C12.2437 12.281 11.7837 12.041 11.5337 11.761L10.5937 12.831C11.0637 13.301 11.7837 13.721 12.7837 13.721Z" fill="#262627"/>
</g>
</g>
</svg>
