<svg width="24" height="24" viewBox="0 0 24 24" fill="none" xmlns="http://www.w3.org/2000/svg">
    <g clip-path="url(#f0zj1p90da)" fill="#F2F2F2">
        <path d="M4.14 22.62c-.28 0-.5-.2-.5-.48v-.04c0-.28.22-.5.5-.5s.5.22.5.5-.22.52-.5.52zM16.71 22.63c-.28 0-.5-.21-.5-.49v-.02c0-.28.22-.5.5-.5s.5.22.5.5-.22.51-.5.51z"/>
        <path d="M18.55 2.75H5.94a2.3 2.3 0 0 0-2.3 2.3V22.1c0 .19.11.37.28.45.17.08.38.06.53-.06l2.48-2.01c.19-.15.46-.15.64 0l2.53 2.05c.09.07.2.11.31.11.11 0 .22-.04.31-.11l2.53-2.05c.19-.15.45-.15.64 0l2.49 2.02c.15.12.36.15.53.06a.51.51 0 0 0 .29-.45V11.26h3.09c.28 0 .5-.22.5-.5V5c0-1.25-1.01-2.26-2.25-2.26l.01.01zm-2.34 18.32-1.67-1.35c-.55-.46-1.35-.47-1.91-.02l-2.21 1.79L8.2 19.7c-.28-.22-.61-.33-.95-.33-.34 0-.67.11-.95.33l-1.67 1.35v-16c0-.72.58-1.3 1.3-1.3h10.56s0 .02-.01.03c-.09.13-.17.27-.23.41-.03.06-.04.13-.04.2v16.69-.01zm3.59-10.8h-2.59V4.49a1.372 1.372 0 0 1 .98-.72c.03 0 .06-.01.08-.02h.27c.69 0 1.25.57 1.25 1.26v5.26h.01z"/>
        <path d="M14.4 7.68H6.32c-.28 0-.5.22-.5.5s.22.5.5.5h8.08c.28 0 .5-.22.5-.5s-.22-.5-.5-.5zM14.4 10.36H6.32c-.28 0-.5.22-.5.5s.22.5.5.5h8.08c.28 0 .5-.22.5-.5s-.22-.5-.5-.5zM14.4 13.05H6.32c-.28 0-.5.22-.5.5s.22.5.5.5h8.08c.28 0 .5-.22.5-.5s-.22-.5-.5-.5z"/>
    </g>
    <defs>
        <clipPath id="f0zj1p90da">
            <path fill="#fff" d="M0 0h24v24H0z"/>
        </clipPath>
    </defs>
</svg>
