<svg width="48" height="48" viewBox="0 0 48 48" fill="none" xmlns="http://www.w3.org/2000/svg">
    <g clip-path="url(#hujuhoyira)">
        <path d="M39.517 21.084c0 4.683-3.467 7.633-6.534 10.216l-.583.5c-2.617 2.234-5.917 4.5-7.883 5.384-.15.066-.334.116-.517.116-.167 0-.35-.05-.517-.116-1.95-.884-5.266-3.15-7.866-5.384l-.584-.5C11.967 28.717 8.5 25.767 8.5 21.084c0-4.934 4-8.934 8.933-8.934 2.55 0 4.9 1.067 6.567 2.884a8.881 8.881 0 0 1 6.583-2.884c4.917 0 8.934 4 8.934 8.934z" fill="#4B4D4D"/>
    </g>
    <defs>
        <clipPath id="hujuhoyira">
            <path fill="#fff" transform="translate(4 4)" d="M0 0h40v40H0z"/>
        </clipPath>
    </defs>
</svg>
