<svg xmlns="http://www.w3.org/2000/svg" width="14" height="14" viewBox="0 0 14 14" fill="none">
  <path fill-rule="evenodd" clip-rule="evenodd" d="M7.00068 12.9999C10.3144 12.9999 13.0007 10.3136 13.0007 6.99992C13.0007 3.68621 10.3144 0.999919 7.00068 0.999919C3.68696 0.999919 1.00065 3.68621 1.00065 6.99992C1.00065 10.3136 3.68696 12.9999 7.00068 12.9999ZM7.00068 13.6666C10.6826 13.6666 13.6674 10.6818 13.6674 6.99992C13.6674 3.31802 10.6826 0.333252 7.00068 0.333252C3.31876 0.333252 0.333984 3.31802 0.333984 6.99992C0.333984 10.6818 3.31876 13.6666 7.00068 13.6666Z" fill="#E90E16"/>
  <path d="M7.33464 3.33333C7.33464 3.51743 7.1854 3.66667 7.0013 3.66667C6.81721 3.66667 6.66797 3.51743 6.66797 3.33333C6.66797 3.14924 6.81721 3 7.0013 3C7.1854 3 7.33464 3.14924 7.33464 3.33333Z" fill="#E90E16"/>
  <path fill-rule="evenodd" clip-rule="evenodd" d="M7.33464 5.51855V10.7037H6.66797V5.51855H7.33464Z" fill="#E90E16"/>
</svg>