<svg width="24" height="24" viewBox="0 0 24 24" fill="none" xmlns="http://www.w3.org/2000/svg">
<path id="Vector" d="M22.2397 9.97932H14.3473V7.18153C14.3473 6.3733 13.7606 5.7204 13.0271 5.65817C13.2618 5.53391 13.4671 5.37843 13.6726 5.16071C14.582 4.16579 14.582 2.54939 13.6726 1.55447L12.4403 0.186548C12.2056 -0.0621826 11.8241 -0.0621826 11.5896 0.186548L10.3573 1.55447C9.44782 2.54939 9.44782 4.16579 10.3573 5.16071C10.5333 5.37843 10.768 5.5337 11.0028 5.65817C10.2396 5.75142 9.65283 6.40417 9.65283 7.21256V10.0104H1.76048C0.73349 10.0104 0 10.9118 0 12.1865V13.7408C0 14.7667 0.44001 15.6682 1.14424 16.2279V22.1346C1.14424 23.1605 1.93647 24 2.90473 24H21.0953C22.0635 24 22.8558 23.1606 22.8558 22.1346V16.2279C23.56 15.6685 24 14.7358 24 13.7408V11.8755C24 10.8185 23.2079 9.97932 22.2397 9.97932ZM11.1786 2.42498L12.0002 1.52354L12.8217 2.42498C13.2911 2.95344 13.2911 3.7929 12.8217 4.29036C12.3817 4.78782 11.6187 4.78782 11.1787 4.29036C10.7092 3.7929 10.7092 2.95347 11.1786 2.42498ZM10.8266 7.21262C10.8266 7.02612 10.9439 6.90165 11.1201 6.90165H12.8806C13.0566 6.90165 13.1741 7.02591 13.1741 7.21262V10.0104H10.8269L10.8266 7.21262ZM1.17391 12.1555C1.17391 11.7203 1.32065 11.2228 1.76065 11.2228H22.2397C22.5624 11.2228 22.8264 11.5026 22.8264 11.8445V13.7099C22.8264 14.7048 22.1222 15.513 21.2422 15.5753C20.7727 15.6063 20.3032 15.451 19.9807 15.1091C19.6287 14.7671 19.4527 14.3008 19.4527 13.8034C19.4527 13.4614 19.1887 13.1817 18.8659 13.1817C18.5432 13.1817 18.2792 13.4614 18.2792 13.8034C18.2792 14.7983 17.5164 15.6065 16.5775 15.6065C15.6386 15.6065 14.8758 14.7983 14.8758 13.8034C14.8758 13.4614 14.6118 13.1817 14.2891 13.1817C13.9663 13.1817 13.7023 13.4614 13.7023 13.8034C13.7023 14.7983 12.9396 15.6065 12.0006 15.6065C11.0617 15.6065 10.2989 14.7983 10.2989 13.8034C10.2989 13.4614 10.0349 13.1817 9.7122 13.1817C9.38946 13.1817 9.12546 13.4614 9.12546 13.8034C9.12546 14.7983 8.36269 15.6065 7.42377 15.6065C6.48485 15.6065 5.72207 14.7983 5.72207 13.8034C5.72207 13.4614 5.45806 13.1817 5.13533 13.1817C4.8126 13.1817 4.54859 13.4614 4.54859 13.8034C4.54859 14.3008 4.37259 14.7671 4.02058 15.1091C3.66858 15.4511 3.22836 15.6375 2.75909 15.6065C1.87884 15.5443 1.17485 14.7361 1.17485 13.7411L1.17391 12.1555ZM21.0955 22.7254H2.90494C2.5822 22.7254 2.31821 22.4457 2.31821 22.1037V20.2383H21.6823V22.1037C21.6823 22.4457 21.4182 22.7254 21.0955 22.7254ZM21.6822 18.9949H2.3181V16.7566C2.43537 16.7876 2.55284 16.7876 2.69958 16.8188H2.87558C3.60907 16.8188 4.31328 16.5391 4.84134 16.0106C4.95861 15.8863 5.07608 15.7619 5.16408 15.6376C5.69209 16.3526 6.51381 16.85 7.45257 16.85C8.39154 16.85 9.21305 16.3838 9.74106 15.6376C10.2691 16.3526 11.0908 16.85 12.0295 16.85C12.9685 16.85 13.79 16.3838 14.318 15.6376C14.846 16.3526 15.6678 16.85 16.6065 16.85C17.5455 16.85 18.367 16.3838 18.895 15.6376C18.983 15.7619 19.1005 15.8863 19.2178 16.0106C19.8045 16.6013 20.5675 16.8811 21.3595 16.8188C21.4768 16.8188 21.5942 16.7878 21.7115 16.7566L21.7117 18.9949H21.6822Z" fill="white"/>
</svg>
