<svg width="24" height="24" viewBox="0 0 24 24" fill="none" xmlns="http://www.w3.org/2000/svg">
    <g clip-path="url(#m9pu916tca)" fill="#4B4D4D">
        <path d="M17.1 5.325h-1.492v-.792a.946.946 0 0 0-.941-.941h-5.1a.948.948 0 0 0-.95.941v.792H7.125A1.43 1.43 0 0 0 5.7 6.75v3.992c0 .233.183.416.417.416H6.7l-.033 8.509c0 .683.508 1.233 1.125 1.233h8.65c.616 0 1.125-.55 1.125-1.233l-.034-8.509h.584a.413.413 0 0 0 .416-.416V6.75c0-.783-.641-1.425-1.433-1.425zm-7.65-.792c0-.058.05-.108.117-.108h5.1a.11.11 0 0 1 .108.108v.792H9.45v-.792zm7.283 15.134c0 .216-.133.4-.291.4h-8.65c-.159 0-.292-.183-.292-.4l.033-8.509H16.7l.033 8.509zm.967-9.342H6.533V6.75c0-.325.267-.592.592-.592H17.1c.333 0 .6.267.6.592v3.575z"/>
        <path d="M12.117 18.142a.413.413 0 0 0 .416-.417v-4.417a.413.413 0 0 0-.416-.416.413.413 0 0 0-.417.416v4.417c0 .233.183.417.417.417zM14.575 18.142a.413.413 0 0 0 .417-.417v-4.417a.413.413 0 0 0-.417-.416.413.413 0 0 0-.417.416v4.417c0 .233.184.417.417.417zM9.667 18.142a.413.413 0 0 0 .416-.417v-4.417a.413.413 0 0 0-.416-.416.413.413 0 0 0-.417.416v4.417c0 .233.183.417.417.417z"/>
    </g>
    <defs>
        <clipPath id="m9pu916tca">
            <path fill="#fff" transform="translate(2 2)" d="M0 0h20v20H0z"/>
        </clipPath>
    </defs>
</svg>
