<svg width="16" height="16" viewBox="0 0 24 24" fill="none" xmlns="http://www.w3.org/2000/svg">
    <path fill-rule="evenodd" clip-rule="evenodd" d="M8.52618 3.10001C7.2241 3.10001 6.16855 4.15556 6.16855 5.45764V6.03589C6.16855 6.46697 6.38503 6.86924 6.7448 7.10671L7.02383 7.29089H11.2505L11.023 5.26329C10.8847 4.03138 9.843 3.10001 8.60336 3.10001H8.52618ZM4.76855 6.03589C4.76855 6.48021 4.87853 6.9099 5.08016 7.29089H4.5C3.55719 7.29089 3.08579 7.29089 2.79289 7.58379C2.5 7.87668 2.5 8.34808 2.5 9.29089C2.5 10.2337 2.5 10.7051 2.79289 10.998C2.98578 11.1909 3.2561 11.2568 3.6875 11.2792V17.55C3.6875 19.4356 3.6875 20.3784 4.27329 20.9642C4.85907 21.55 5.80188 21.55 7.6875 21.55H16.3125C18.1981 21.55 19.1409 21.55 19.7267 20.9642C20.3125 20.3784 20.3125 19.4356 20.3125 17.55V11.2792C20.7439 11.2568 21.0142 11.1909 21.2071 10.998C21.5 10.7051 21.5 10.2337 21.5 9.29089C21.5 8.34808 21.5 7.87668 21.2071 7.58379C20.9142 7.29089 20.4428 7.29089 19.5 7.29089H18.9198C19.1215 6.9099 19.2314 6.48021 19.2314 6.03589V5.45764C19.2314 3.38236 17.5491 1.70001 15.4738 1.70001H15.3966C13.9335 1.70001 12.6453 2.52387 12 3.7534C11.3547 2.52387 10.0665 1.70001 8.60336 1.70001H8.52618C6.4509 1.70001 4.76855 3.38236 4.76855 5.45764V6.03589ZM3.90266 9.81H20.0973C20.0999 9.6654 20.1 9.49808 20.1 9.29089C20.1 9.04999 20.0999 8.86298 20.0959 8.70292L20.0957 8.69522L20.088 8.69502C19.9279 8.69099 19.7409 8.69089 19.5 8.69089H4.5C4.25909 8.69089 4.07209 8.69099 3.91202 8.69502L3.90433 8.69522L3.90413 8.70292C3.90009 8.86298 3.9 9.04999 3.9 9.29089C3.9 9.49808 3.90007 9.6654 3.90266 9.81ZM5.0875 17.55V11.2909H11.3003V15.5212C11.3003 15.9078 11.6137 16.2212 12.0003 16.2212C12.3869 16.2212 12.7003 15.9078 12.7003 15.5212V11.2909H18.9125V17.55C18.9125 18.5324 18.9095 19.1283 18.8518 19.558C18.8251 19.7564 18.7929 19.8621 18.7707 19.9161C18.7536 19.9575 18.7431 19.968 18.7374 19.9737L18.7362 19.9749C18.7305 19.9806 18.72 19.9911 18.6786 20.0082C18.6246 20.0304 18.5189 20.0626 18.3205 20.0893C17.8908 20.147 17.2949 20.15 16.3125 20.15H7.6875C6.70511 20.15 6.10916 20.147 5.6795 20.0893C5.48111 20.0626 5.37539 20.0304 5.32138 20.0082C5.28002 19.9911 5.26953 19.9806 5.26383 19.9749L5.26264 19.9737C5.25691 19.968 5.24635 19.9575 5.22934 19.9161C5.20712 19.8621 5.17491 19.7564 5.14824 19.558C5.09047 19.1283 5.0875 18.5324 5.0875 17.55ZM17.2552 7.10671L16.9762 7.29089H12.7495L12.977 5.26329C13.1153 4.03138 14.157 3.10001 15.3966 3.10001H15.4738C16.7759 3.10001 17.8314 4.15556 17.8314 5.45764V6.03589C17.8314 6.46697 17.615 6.86924 17.2552 7.10671Z" fill="black"/>
</svg>
