
<svg width="24" height="24" viewBox="0 0 24 24" fill="none" xmlns="http://www.w3.org/2000/svg">
    <path d="M3.32698 5.63803L3.77248 5.86502L3.32698 5.63803ZM3.76657 19.8702L3.41483 19.5149L3.41482 19.5149L3.76657 19.8702ZM19.362 16.7387L19.589 17.1842L19.362 16.7387ZM20.673 15.4277L20.2275 15.2007V15.2007L20.673 15.4277ZM20.673 5.63803L20.2275 5.86502V5.86502L20.673 5.63803ZM19.362 4.32698L19.589 3.88148V3.88148L19.362 4.32698ZM4.63803 4.32698L4.86502 4.77248L4.63803 4.32698ZM3.5 8.8C3.5 7.95167 3.50039 7.3455 3.53921 6.87032C3.57756 6.40099 3.65089 6.10366 3.77248 5.86502L2.88148 5.41103C2.67609 5.81413 2.58593 6.25771 2.54253 6.78889C2.49961 7.31423 2.5 7.96817 2.5 8.8H3.5ZM3.5 11.1267V8.8H2.5V11.1267H3.5ZM2.5 11.1267V17.0656H3.5V11.1267H2.5ZM2.5 17.0656V17.0657H3.5V17.0656H2.5ZM2.5 17.0657V19.5504H3.5V17.0657H2.5ZM2.5 19.5504C2.5 20.3944 3.51845 20.8194 4.11831 20.2256L3.41482 19.5149C3.41777 19.512 3.42834 19.5047 3.44338 19.5022C3.45572 19.5001 3.4643 19.5022 3.46925 19.5043C3.4742 19.5063 3.48175 19.5109 3.48895 19.5212C3.49771 19.5337 3.5 19.5463 3.5 19.5504H2.5ZM4.11831 20.2256L6.65943 17.7103L5.95595 16.9996L3.41483 19.5149L4.11831 20.2256ZM16.2 16.5657H7.01117V17.5657H16.2V16.5657ZM19.135 16.2932C18.8963 16.4148 18.599 16.4881 18.1297 16.5265C17.6545 16.5653 17.0483 16.5657 16.2 16.5657V17.5657C17.0318 17.5657 17.6858 17.5661 18.2111 17.5231C18.7423 17.4798 19.1859 17.3896 19.589 17.1842L19.135 16.2932ZM20.2275 15.2007C19.9878 15.6711 19.6054 16.0535 19.135 16.2932L19.589 17.1842C20.2475 16.8486 20.783 16.3132 21.1185 15.6546L20.2275 15.2007ZM20.5 12.2657C20.5 13.114 20.4996 13.7202 20.4608 14.1954C20.4224 14.6647 20.3491 14.962 20.2275 15.2007L21.1185 15.6546C21.3239 15.2515 21.4141 14.808 21.4575 14.2768C21.5004 13.7515 21.5 13.0975 21.5 12.2657H20.5ZM20.5 8.8V12.2657H21.5V8.8H20.5ZM20.2275 5.86502C20.3491 6.10366 20.4224 6.40099 20.4608 6.87032C20.4996 7.34549 20.5 7.95167 20.5 8.8H21.5C21.5 7.96817 21.5004 7.31423 21.4575 6.78889C21.4141 6.25771 21.3239 5.81413 21.1185 5.41103L20.2275 5.86502ZM19.135 4.77248C19.6054 5.01217 19.9878 5.39462 20.2275 5.86502L21.1185 5.41103C20.783 4.75247 20.2475 4.21703 19.589 3.88148L19.135 4.77248ZM16.2 4.5C17.0483 4.5 17.6545 4.50039 18.1297 4.53921C18.599 4.57756 18.8963 4.65089 19.135 4.77248L19.589 3.88148C19.1859 3.67609 18.7423 3.58593 18.2111 3.54253C17.6858 3.49961 17.0318 3.5 16.2 3.5V4.5ZM7.8 4.5H16.2V3.5H7.8V4.5ZM4.86502 4.77248C5.10366 4.65089 5.40099 4.57756 5.87032 4.53921C6.34549 4.50039 6.95167 4.5 7.8 4.5V3.5C6.96817 3.5 6.31423 3.49961 5.78889 3.54253C5.25771 3.58593 4.81413 3.67609 4.41103 3.88148L4.86502 4.77248ZM3.77248 5.86502C4.01217 5.39462 4.39462 5.01217 4.86502 4.77248L4.41103 3.88148C3.75247 4.21703 3.21703 4.75247 2.88148 5.41103L3.77248 5.86502ZM6.65943 17.7103C6.75305 17.6177 6.87945 17.5657 7.01117 17.5657V16.5657C6.61601 16.5657 6.2368 16.7216 5.95595 16.9996L6.65943 17.7103Z" fill="black"/>
    <path d="M7 8.75122L17 8.75122" stroke="black" stroke-linecap="round" stroke-linejoin="round"/>
    <path d="M7 12.3146L15 12.3146" stroke="black" stroke-linecap="round" stroke-linejoin="round"/>
</svg>
