<svg xmlns="http://www.w3.org/2000/svg" xmlns:xlink="http://www.w3.org/1999/xlink"
     width="14" height="14" viewBox="0 0 30 30">
    <style type="text/css">
        .st0 { fill: none; stroke: #000000; }
    </style>
    <path class="st0" d="M10.4,26.7"/>
    <path class="st0" d="M2.9,20.1"/>
    <path class="st0" d="M17.7,5l7.3,7.3"/>
    <path class="st0" d="M2.9,20.1"/>
    <path class="st0" d="M1.6,29.2c-0.2,0-0.4,0-0.6-0.2c-0.2-0.2-0.2-0.5-0.2-0.6c0-0.1,0.1-0.3,0.1-0.5l1.8-7.2c0,0,0.1-0.4,0.2-0.6
	S21.4,1.6,21.4,1.6c0.3-0.2,0.6-0.4,0.9-0.4c0.4,0,0.7,0.2,0.9,0.4l5.2,5.2c0.2,0.3,0.4,0.6,0.4,0.9c0,0.4-0.2,0.7-0.4,0.9
	L10.3,26.7c-0.2,0.2-0.3,0.3-0.5,0.4c-0.2,0.1-0.6,0.2-0.6,0.2L1.6,29.2z"/>
</svg>
