<svg width="24" height="24" viewBox="0 0 24 24" fill="none" xmlns="http://www.w3.org/2000/svg">
<g id="24/ quick">
<path id="Subtract" fill-rule="evenodd" clip-rule="evenodd" d="M12 22C17.5228 22 22 17.5228 22 12C22 6.47715 17.5228 2 12 2C6.47715 2 2 6.47715 2 12C2 17.5228 6.47715 22 12 22ZM11.79 19.65C11.71 19.79 11.51 19.73 11.51 19.58V13.15H7.75C7.63 13.15 7.56 13.03 7.62 12.92L12.21 4.66C12.29 4.52 12.49 4.58 12.49 4.73V11.15H16.25C16.36 11.15 16.44 11.27 16.38 11.37L11.79 19.65Z" fill="#262627"/>
</g>
</svg>
