<svg width="36" height="36" viewBox="0 0 36 36" fill="none" xmlns="http://www.w3.org/2000/svg">
    <g clip-path="url(#ucu48owfha)" fill="#000">
        <path d="M24.21 2.865h-12c-2.07 0-3.75 1.68-3.75 3.75V30.33c0 2.07 1.68 3.75 3.75 3.75h12c2.07 0 3.75-1.68 3.75-3.75V6.615c0-2.07-1.68-3.75-3.75-3.75zm2.25 27.465a2.247 2.247 0 0 1-2.25 2.25h-12a2.247 2.247 0 0 1-2.25-2.25V6.615a2.247 2.247 0 0 1 2.25-2.25h12a2.247 2.247 0 0 1 2.25 2.25V30.33z"/>
        <path d="M18.21 13.965a5.256 5.256 0 0 0-5.25 5.25 5.256 5.256 0 0 0 5.25 5.25 5.256 5.256 0 0 0 5.25-5.25 5.256 5.256 0 0 0-5.25-5.25zm0 9c-2.07 0-3.75-1.68-3.75-3.75 0-2.07 1.68-3.75 3.75-3.75 2.07 0 3.75 1.68 3.75 3.75 0 2.07-1.68 3.75-3.75 3.75zM22.11 26.235h-7.8c-.75 0-1.35.6-1.35 1.35v1.8c0 .75.6 1.35 1.35 1.35h7.8c.75 0 1.35-.6 1.35-1.35v-1.8c0-.75-.6-1.35-1.35-1.35zm-.15 3h-7.5v-1.5h7.5v1.5z"/>
    </g>
    <defs>
        <clipPath id="ucu48owfha">
            <path fill="#fff" d="M0 0h36v36H0z"/>
        </clipPath>
    </defs>
</svg>
