<svg width="24" height="24" viewBox="0 0 24 24" fill="none" xmlns="http://www.w3.org/2000/svg">
    <g clip-path="url(#islxiroota)" fill="#000">
        <path d="M22 9.27c.28 0 .5-.22.5-.5V6.01c0-.28-.22-.5-.5-.5h-6.17s-.08-.03-.13-.03-.08.01-.13.03H2c-.28 0-.5.22-.5.5v2.76c0 .28.22.5.5.5a2.5 2.5 0 0 1 0 5c-.28 0-.5.22-.5.5v3.24c0 .28.22.5.5.5h20c.28 0 .5-.22.5-.5v-3.24c0-.28-.22-.5-.5-.5a2.5 2.5 0 0 1 0-5zm-.5 5.96v2.28h-5.3v-2.29c0-.28-.22-.5-.5-.5s-.5.22-.5.5v2.29H2.5v-2.28c1.69-.24 3-1.7 3-3.46s-1.31-3.22-3-3.46v-1.8h12.7v2.27c0 .28.22.5.5.5s.5-.22.5-.5V6.51h5.3v1.8c-1.69.24-3 1.7-3 3.46s1.31 3.22 3 3.46z"/>
        <path d="M15.7 10.1c-.28 0-.5.22-.5.5v2.79c0 .28.22.5.5.5s.5-.22.5-.5V10.6c0-.28-.22-.5-.5-.5z"/>
    </g>
    <defs>
        <clipPath id="islxiroota">
            <path fill="#fff" d="M0 0h24v24H0z"/>
        </clipPath>
    </defs>
</svg>
