<svg width="24" height="24" viewBox="0 0 24 24" fill="none" xmlns="http://www.w3.org/2000/svg">
    <mask id="mask0_7251_2468" style="mask-type:alpha" maskUnits="userSpaceOnUse" x="0" y="0" width="20" height="21">
        <path fill-rule="evenodd" clip-rule="evenodd" d="M7.10533 3.08341C6.02026 3.08341 5.14064 3.96304 5.14064 5.0481V5.52998C5.14064 5.88921 5.32103 6.22444 5.62084 6.42233L5.85337 6.57582H9.37562L9.18601 4.88614C9.0708 3.85956 8.20268 3.08341 7.16965 3.08341H7.10533ZM3.97397 5.52998C3.97397 5.90025 4.06561 6.25832 4.23364 6.57582H3.75017C2.96449 6.57582 2.57165 6.57582 2.32757 6.81989C2.0835 7.06397 2.0835 7.45681 2.0835 8.24248C2.0835 9.02816 2.0835 9.42099 2.32757 9.66507C2.48832 9.82581 2.71358 9.8807 3.07308 9.89943V15.1251C3.07308 16.6964 3.07308 17.4821 3.56124 17.9702C4.0494 18.4584 4.83507 18.4584 6.40643 18.4584H13.594C15.1653 18.4584 15.951 18.4584 16.4391 17.9702C16.9273 17.4821 16.9273 16.6964 16.9273 15.1251V9.89943C17.2868 9.8807 17.5121 9.82581 17.6728 9.66507C17.9169 9.42099 17.9169 9.02816 17.9169 8.24248C17.9169 7.45681 17.9169 7.06397 17.6728 6.81989C17.4287 6.57582 17.0359 6.57582 16.2502 6.57582H15.7667C15.9348 6.25832 16.0264 5.90025 16.0264 5.52998V5.0481C16.0264 3.3187 14.6245 1.91675 12.8951 1.91675H12.8307C11.6114 1.91675 10.538 2.6033 10.0002 3.62791C9.46242 2.6033 8.38897 1.91675 7.16965 1.91675H7.10533C5.37593 1.91675 3.97397 3.3187 3.97397 5.0481V5.52998ZM3.25238 8.67507H16.748C16.7502 8.55457 16.7502 8.41514 16.7502 8.24248C16.7502 8.04173 16.7501 7.88589 16.7468 7.7525L16.7466 7.74609L16.7402 7.74592C16.6068 7.74256 16.451 7.74248 16.2502 7.74248H3.75017C3.54941 7.74248 3.39357 7.74256 3.26019 7.74592L3.25377 7.74609L3.25361 7.7525C3.25024 7.88589 3.25017 8.04173 3.25017 8.24248C3.25017 8.41514 3.25022 8.55457 3.25238 8.67507ZM4.23975 15.1251V9.90915H9.4171V13.4344C9.4171 13.7566 9.67827 14.0177 10.0004 14.0177C10.3226 14.0177 10.5838 13.7566 10.5838 13.4344V9.90915H15.7606V15.1251C15.7606 15.9437 15.7582 16.4404 15.71 16.7984C15.6878 16.9637 15.6609 17.0518 15.6424 17.0968C15.6283 17.1313 15.6195 17.14 15.6147 17.1448L15.6137 17.1458C15.6089 17.1506 15.6002 17.1594 15.5657 17.1735C15.5207 17.1921 15.4326 17.2189 15.2673 17.2411C14.9092 17.2893 14.4126 17.2917 13.594 17.2917H6.40643C5.58777 17.2917 5.09114 17.2893 4.73309 17.2411C4.56776 17.2189 4.47966 17.1921 4.43466 17.1735C4.40019 17.1594 4.39145 17.1506 4.38669 17.1458L4.38571 17.1448C4.38093 17.14 4.37213 17.1313 4.35795 17.0968C4.33944 17.0518 4.3126 16.9637 4.29037 16.7984C4.24223 16.4404 4.23975 15.9437 4.23975 15.1251ZM14.3795 6.42233L14.147 6.57582H10.6248L10.8144 4.88614C10.9296 3.85956 11.7977 3.08341 12.8307 3.08341H12.8951C13.9801 3.08341 14.8597 3.96304 14.8597 5.0481V5.52998C14.8597 5.88921 14.6794 6.22444 14.3795 6.42233Z" fill="black"/>
    </mask>
    <g mask="url(#mask0_7251_2468)">
        <rect y="0.5" width="24" height="24" fill="white"/>
    </g>
</svg>
