<svg width="28" height="28" viewBox="0 0 28 28" fill="none" xmlns="http://www.w3.org/2000/svg">
    <g clip-path="url(#12988xkpza)" fill="#FAFBFB">
        <path d="M24.533 10.384a1.86 1.86 0 0 0-1.346-.603h-2.47V7.812c0-3.214-2.55-5.812-5.673-5.812h-2.079C9.843 2 7.294 4.598 7.294 7.813V9.78h-2.47c-.51 0-.994.228-1.347.616-.34.375-.51.898-.47 1.42l1.098 12.482C4.195 25.277 4.966 26 5.92 26H22.09c.941 0 1.725-.723 1.817-1.7l1.085-12.483a1.899 1.899 0 0 0-.458-1.433zM8.6 7.812c0-2.477 1.96-4.473 4.366-4.473h2.078c2.405 0 4.365 1.996 4.365 4.473v1.97H8.6v-1.97zM22.599 24.18a.517.517 0 0 1-.51.482H5.92a.517.517 0 0 1-.51-.482L4.314 11.696a.553.553 0 0 1 .13-.401.531.531 0 0 1 .38-.175h18.364c.144 0 .274.068.379.175a.553.553 0 0 1 .13.401L22.6 24.18z"/>
        <path d="M14 18.748a.578.578 0 0 1-.583-.583V13.93c0-.327.256-.583.583-.583.327 0 .583.256.583.583v4.235a.578.578 0 0 1-.583.583zM17.92 18.748a.578.578 0 0 1-.583-.583V13.93c0-.327.256-.583.583-.583.327 0 .583.256.583.583v4.235a.578.578 0 0 1-.583.583zM10.08 18.748a.578.578 0 0 1-.583-.583V13.93c0-.327.256-.583.583-.583.327 0 .583.256.583.583v4.235a.578.578 0 0 1-.583.583z"/>
    </g>
    <defs>
        <clipPath id="12988xkpza">
            <path fill="#fff" d="M0 0h28v28H0z"/>
        </clipPath>
    </defs>
</svg>
