<svg width="24" height="24" viewBox="0 0 24 24" fill="none" xmlns="http://www.w3.org/2000/svg">
    <path d="M12 12.824a5.45 5.45 0 0 1-5.45-5.45c0-2.98 2.408-5.515 5.45-5.515a5.45 5.45 0 0 1 5.45 5.45c0 2.98-2.408 5.515-5.45 5.515zm0-9.887c-2.408 0-4.437 1.964-4.437 4.436A4.41 4.41 0 0 0 12 11.81a4.41 4.41 0 0 0 4.437-4.437c0-2.472-2.029-4.436-4.437-4.436z" fill="#000" stroke="#000" stroke-width=".4"/>
    <path d="M21 22.14h-1.078v-1.394A7.925 7.925 0 0 0 12 12.824a7.925 7.925 0 0 0-7.923 7.922v1.395H3v-1.395c0-4.943 4.056-9 9-9s9 4.057 9 9v1.395z" fill="#000" stroke="#000" stroke-width=".4"/>
</svg>
