<svg width="16" height="16" viewBox="0 0 16 16" fill="none" xmlns="http://www.w3.org/2000/svg">
    <g clip-path="url(#3y32xodmna)">
        <path d="M10.671 5.178a.415.415 0 0 0 .4.432l1.498.054a.394.394 0 0 0 .296-.107.42.42 0 0 0 .135-.292l.057-1.485a.415.415 0 1 0-.83-.033l-.02.468a5.73 5.73 0 0 0-5.734-1.673 5.793 5.793 0 0 0-4.105 7.09 5.801 5.801 0 0 0 7.095 4.097 5.784 5.784 0 0 0 4.288-5.663.416.416 0 1 0-.833.01 4.949 4.949 0 0 1-3.67 4.848 4.968 4.968 0 0 1-6.075-3.507A4.968 4.968 0 0 1 6.68 3.342c1.803-.483 3.676.092 4.923 1.449l-.502-.018a.415.415 0 0 0-.431.399l.002.006z" fill="#0085FF"/>
    </g>
    <defs>
        <clipPath id="3y32xodmna">
            <path fill="#fff" d="M0 0h16v16H0z"/>
        </clipPath>
    </defs>
</svg>
