<svg xmlns="http://www.w3.org/2000/svg" xmlns:xlink="http://www.w3.org/1999/xlink" version="1.1" id="Layer_1" x="0px" y="0px" width="16px" height="16px" viewBox="0 0 16 16" style="enable-background:new 0 0 16 16;" xml:space="preserve">
<style type="text/css">
	.st0{fill:none;stroke:#000000;stroke-linecap:round;stroke-opacity:0.9;}
	.st1{fill:none;stroke:#000000;stroke-linecap:round;stroke-linejoin:round;stroke-opacity:0.9;}
	.st2{fill-opacity:0.9;}
</style>
    <g id="Group_14161">
	<path id="Vector" class="st0" d="M1.3,2h0.9c0.7,0,1,0,1.3,0.2c0.3,0.2,0.4,0.5,0.6,1.2l0.3,1"/>
        <path id="Rectangle_41" class="st1" d="M12.3,12.2H4.9c-0.6,0-1-0.6-0.8-1.2l0,0C4.3,10.3,5,9.8,5.7,9.8H10"/>
        <path id="Vector_339" class="st0" d="M9.6,9.8H7.4c-0.8,0-1.3,0-1.6-0.1C5.6,9.6,5.4,9.5,5.2,9.3C4.9,9,4.7,8.6,4.4,7.8l0,0
		C3.9,6.6,3.6,6,3.7,5.5C3.8,5.2,4,4.9,4.3,4.7c0.4-0.3,1.1-0.3,2.4-0.3h3.6c1.6,0,2.3,0,2.8,0.4c0.2,0.2,0.4,0.5,0.5,0.8
		c0.1,0.6-0.1,0.9-0.8,2.2l-0.2,0.4c-0.4,0.7-0.6,1-0.9,1.2c-0.2,0.1-0.4,0.3-0.6,0.3C10.7,9.8,10.3,9.8,9.6,9.8z"/>
        <ellipse id="Ellipse_167" class="st2" cx="11.9" cy="14.2" rx="0.8" ry="0.8"/>
        <ellipse id="Ellipse_168" class="st2" cx="5.6" cy="14.2" rx="0.8" ry="0.8"/>
</g>
</svg>