<svg xmlns="http://www.w3.org/2000/svg" width="22" height="24" viewBox="0 0 22 20" fill="none">
<path d="M11.0005 11C12.8305 11 14.1805 9.51 14.0005 7.68L13.3405 1H8.67048L8.00048 7.68C7.82048 9.51 9.17048 11 11.0005 11Z" stroke="black" stroke-opacity="0.9" stroke-linecap="round" stroke-linejoin="round"/>
<path d="M20.6108 7.35C20.8108 9.36 19.3308 11 17.3108 11C15.6608 11 14.1708 9.66 14.0008 8.01L13.3008 1H16.3508H19.001L20.6108 7.35Z" stroke="black" stroke-opacity="0.9" stroke-linecap="round" stroke-linejoin="round"/>
<path d="M7.94037 8.01C7.78037 9.66 6.29037 11 4.64037 11C2.62037 11 1.14037 9.36 1.34037 7.35L3.00049 1H5.59037H8.64037L8.16037 5.8L7.94037 8.01Z" stroke="black" stroke-opacity="0.9" stroke-linecap="round" stroke-linejoin="round"/>
<path d="M11 14C9.33 14 8.5 14.83 8.5 16.5V19H13.5V16.5C13.5 14.83 12.67 14 11 14Z" stroke="black" stroke-opacity="0.9" stroke-linecap="round" stroke-linejoin="round"/>
<path d="M3 11V18C3 18.5523 3.44772 19 4 19H18C18.5523 19 19 18.5523 19 18V11" stroke="black" stroke-opacity="0.9" stroke-linecap="round"/>
</svg>