<svg width="12" height="15" viewBox="0 0 12 15" fill="none" xmlns="http://www.w3.org/2000/svg">
<path id="Exclude" fill-rule="evenodd" clip-rule="evenodd" d="M6.70527 14.2088L10.2427 10.6897C11.0818 9.85488 11.6532 8.79131 11.8847 7.63344C12.1162 6.47558 11.9974 5.27542 11.5433 4.18473C11.0891 3.09405 10.3201 2.16183 9.33341 1.50595C8.34672 0.850073 7.18668 0.5 6 0.5C4.81332 0.5 3.65328 0.850073 2.66659 1.50595C1.67989 2.16183 0.91086 3.09405 0.456732 4.18473C0.00260457 5.27542 -0.11622 6.47558 0.115286 7.63344C0.346791 8.79131 0.918228 9.85488 1.75734 10.6897L5.29473 14.2088C5.68483 14.5969 6.31517 14.5969 6.70527 14.2088ZM6 9.55028C7.65685 9.55028 9 8.16776 9 6.46234C9 4.75691 7.65685 3.3744 6 3.3744C4.34315 3.3744 3 4.75691 3 6.46234C3 8.16776 4.34315 9.55028 6 9.55028Z" fill="#ABAEB3"/>
</svg>
