<svg width="16" height="16" viewBox="0 0 16 16" fill="none" xmlns="http://www.w3.org/2000/svg">
<path fill-rule="evenodd" clip-rule="evenodd" d="M8.70527 14.7088L12.2427 11.1897C13.0818 10.3549 13.6532 9.29131 13.8847 8.13344C14.1162 6.97558 13.9974 5.77542 13.5433 4.68473C13.0891 3.59405 12.3201 2.66183 11.3334 2.00595C10.3467 1.35007 9.18668 1 8 1C6.81332 1 5.65328 1.35007 4.66659 2.00595C3.67989 2.66183 2.91086 3.59405 2.45673 4.68473C2.0026 5.77542 1.88378 6.97558 2.11529 8.13344C2.34679 9.29131 2.91823 10.3549 3.75734 11.1897L7.29473 14.7088C7.68483 15.0969 8.31517 15.0969 8.70527 14.7088ZM8 10.0503C9.65685 10.0503 11 8.66776 11 6.96234C11 5.25691 9.65685 3.8744 8 3.8744C6.34315 3.8744 5 5.25691 5 6.96234C5 8.66776 6.34315 10.0503 8 10.0503Z" fill="#ABAEB3"/>
</svg>
