<svg width="16" height="16" viewBox="0 0 16 16" fill="none" xmlns="http://www.w3.org/2000/svg">
<g id="24/ point">
<path id="P" d="M7.88636 1C8.65496 1 9.34917 1.07003 9.96901 1.2101C10.6012 1.35016 11.1405 1.58572 11.5868 1.91678C12.0331 2.23511 12.3802 2.6553 12.6281 3.17735C12.876 3.69941 13 4.34243 13 5.10641C13 5.84493 12.876 6.48795 12.6281 7.03547C12.3926 7.58299 12.0517 8.03502 11.6054 8.39154C11.1591 8.74807 10.626 9.01546 10.0062 9.19372C9.39876 9.35925 8.72314 9.44202 7.97934 9.44202H5.72934V15H4V1H7.88636ZM7.7562 8.00955C8.95868 8.00955 9.84504 7.78035 10.4153 7.32196C10.9979 6.85084 11.2893 6.11232 11.2893 5.10641C11.2893 4.1005 10.9855 3.40655 10.3781 3.02456C9.78306 2.62983 8.8843 2.43247 7.68182 2.43247H5.72934V8.00955H7.7562Z" fill="#ABAEB3"/>
</g>
</svg>
