<svg xmlns="http://www.w3.org/2000/svg" width="70" height="154" viewBox="0 0 70 154" fill="none">
    <path fill-rule="evenodd" clip-rule="evenodd" d="M9 1C9 5.41828 5.41828 9 1 9V145C5.41828 145 9 148.582 9 153H69V145C66.7909 145 65 143.209 65 141C65 138.791 66.7909 137 69 137V129C66.7909 129 65 127.209 65 125C65 122.791 66.7909 121 69 121V113C66.7909 113 65 111.209 65 109C65 106.791 66.7909 105 69 105V97C66.7909 97 65 95.2091 65 93C65 90.7909 66.7909 89 69 89V81C66.7909 81 65 79.2091 65 77C65 74.7909 66.7909 73 69 73V65C66.7909 65 65 63.2091 65 61C65 58.7909 66.7909 57 69 57V49C66.7909 49 65 47.2091 65 45C65 42.7909 66.7909 41 69 41V33C66.7909 33 65 31.2091 65 29C65 26.7909 66.7909 25 69 25V17C66.7909 17 65 15.2091 65 13C65 10.7909 66.7909 9 69 9V1H9Z" fill="white"/>
    <path d="M1 9V8.7H0.7V9H1ZM9 1V0.7H8.7V1H9ZM1 145H0.7V145.3H1V145ZM9 153H8.7V153.3H9V153ZM69 153V153.3H69.3V153H69ZM69 145H69.3V144.7H69V145ZM69 137V137.3H69.3V137H69ZM69 129H69.3V128.7H69V129ZM69 121V121.3H69.3V121H69ZM69 113H69.3V112.7H69V113ZM69 105V105.3H69.3V105H69ZM69 97H69.3V96.7H69V97ZM69 89V89.3H69.3V89H69ZM69 81H69.3V80.7H69V81ZM69 73V73.3H69.3V73H69ZM69 65H69.3V64.7H69V65ZM69 57V57.3H69.3V57H69ZM69 49H69.3V48.7H69V49ZM69 41V41.3H69.3V41H69ZM69 33H69.3V32.7H69V33ZM69 25V25.3H69.3V25H69ZM69 17H69.3V16.7H69V17ZM69 9V9.3H69.3V9H69ZM69 1H69.3V0.7H69V1ZM1 9.3C5.58396 9.3 9.3 5.58396 9.3 1H8.7C8.7 5.25259 5.25259 8.7 1 8.7V9.3ZM1.3 145V9H0.7V145H1.3ZM9.3 153C9.3 148.416 5.58396 144.7 1 144.7V145.3C5.25259 145.3 8.7 148.747 8.7 153H9.3ZM69 152.7H9V153.3H69V152.7ZM68.7 145V153H69.3V145H68.7ZM69 144.7C66.9566 144.7 65.3 143.043 65.3 141H64.7C64.7 143.375 66.6252 145.3 69 145.3V144.7ZM65.3 141C65.3 138.957 66.9566 137.3 69 137.3V136.7C66.6252 136.7 64.7 138.625 64.7 141H65.3ZM68.7 129V137H69.3V129H68.7ZM64.7 125C64.7 127.375 66.6252 129.3 69 129.3V128.7C66.9566 128.7 65.3 127.043 65.3 125H64.7ZM69 120.7C66.6252 120.7 64.7 122.625 64.7 125H65.3C65.3 122.957 66.9566 121.3 69 121.3V120.7ZM68.7 113V121H69.3V113H68.7ZM64.7 109C64.7 111.375 66.6252 113.3 69 113.3V112.7C66.9566 112.7 65.3 111.043 65.3 109H64.7ZM69 104.7C66.6252 104.7 64.7 106.625 64.7 109H65.3C65.3 106.957 66.9566 105.3 69 105.3V104.7ZM68.7 97V105H69.3V97H68.7ZM64.7 93C64.7 95.3748 66.6252 97.3 69 97.3V96.7C66.9566 96.7 65.3 95.0434 65.3 93H64.7ZM69 88.7C66.6252 88.7 64.7 90.6252 64.7 93H65.3C65.3 90.9566 66.9566 89.3 69 89.3V88.7ZM68.7 81V89H69.3V81H68.7ZM64.7 77C64.7 79.3748 66.6252 81.3 69 81.3V80.7C66.9566 80.7 65.3 79.0434 65.3 77H64.7ZM69 72.7C66.6252 72.7 64.7 74.6252 64.7 77H65.3C65.3 74.9566 66.9566 73.3 69 73.3V72.7ZM68.7 65V73H69.3V65H68.7ZM64.7 61C64.7 63.3748 66.6252 65.3 69 65.3V64.7C66.9566 64.7 65.3 63.0435 65.3 61H64.7ZM69 56.7C66.6252 56.7 64.7 58.6252 64.7 61H65.3C65.3 58.9565 66.9566 57.3 69 57.3V56.7ZM68.7 49V57H69.3V49H68.7ZM64.7 45C64.7 47.3748 66.6252 49.3 69 49.3V48.7C66.9566 48.7 65.3 47.0435 65.3 45H64.7ZM69 40.7C66.6252 40.7 64.7 42.6252 64.7 45H65.3C65.3 42.9565 66.9566 41.3 69 41.3V40.7ZM68.7 33V41H69.3V33H68.7ZM64.7 29C64.7 31.3748 66.6252 33.3 69 33.3V32.7C66.9566 32.7 65.3 31.0435 65.3 29H64.7ZM69 24.7C66.6252 24.7 64.7 26.6252 64.7 29H65.3C65.3 26.9565 66.9566 25.3 69 25.3V24.7ZM68.7 17V25H69.3V17H68.7ZM64.7 13C64.7 15.3748 66.6252 17.3 69 17.3V16.7C66.9566 16.7 65.3 15.0435 65.3 13H64.7ZM69 8.7C66.6252 8.7 64.7 10.6252 64.7 13H65.3C65.3 10.9565 66.9566 9.3 69 9.3V8.7ZM68.7 1V9H69.3V1H68.7ZM9 1.3H69V0.7H9V1.3Z" fill="#BCBCBC"/>
</svg>